<svg width="227" height="114" viewBox="0 0 227 114" fill="none" xmlns="http://www.w3.org/2000/svg">
<path d="M217.658 36.0651C217.983 35.3032 217.629 34.4219 216.867 34.0966C216.105 33.7713 215.224 34.1252 214.899 34.8871L217.658 36.0651ZM4.77809 74.976L3.3377 75.3947L3.34977 75.4362L3.3642 75.4769L4.77809 74.976ZM225.151 72.1904C225.976 72.1068 226.576 71.371 226.492 70.5468L225.131 57.1156C225.048 56.2913 224.312 55.6909 223.488 55.7744C222.664 55.858 222.063 56.5938 222.147 57.418L223.357 69.3569L211.418 70.5667C210.593 70.6503 209.993 71.3861 210.077 72.2103C210.16 73.0345 210.896 73.635 211.72 73.5515L225.151 72.1904ZM214.899 34.8871C212.604 40.2612 208.115 46.2596 201.846 52.4958C195.593 58.7175 187.637 65.1087 178.502 71.2792C160.229 83.6217 137.331 95.0189 114.109 102.386C90.8625 109.761 67.4356 113.052 48.0477 109.342C28.751 105.648 13.4777 95.0404 6.19199 74.4751L3.3642 75.4769C11.0616 97.2041 27.3162 108.428 47.4838 112.288C67.5601 116.131 91.5336 112.696 115.016 105.246C138.522 97.7886 161.679 86.2629 180.181 73.7652C189.434 67.5154 197.545 61.0071 203.962 54.6226C210.365 48.2526 215.15 41.938 217.658 36.0651L214.899 34.8871ZM6.21848 74.5574C1.30413 57.6498 3.72778 42.037 12.1531 29.8359C20.5883 17.6204 35.1571 8.65796 54.8327 5.32267C94.2135 -1.35291 153.865 14.59 224.052 71.8602L225.948 69.5358C155.418 11.9852 94.908 -4.51344 54.3313 2.36486C34.0282 5.80652 18.6693 15.1199 9.68451 28.1312C0.689792 41.1568 -1.79913 57.7217 3.3377 75.3947L6.21848 74.5574Z" fill="white"/>
</svg>
