<svg width="31" height="28" viewBox="0 0 31 28" fill="none" xmlns="http://www.w3.org/2000/svg">
<path d="M0.43934 12.4652C0.971873 11.9712 1.8052 11.9263 2.39242 12.3305L2.56066 12.4652L15.5 24.4656L28.4393 12.4652C28.9719 11.9712 29.8052 11.9263 30.3924 12.3305L30.5607 12.4652C31.0932 12.9591 31.1416 13.732 30.7059 14.2766L30.5607 14.4327L16.5607 27.4175C16.0281 27.9114 15.1948 27.9563 14.6076 27.5522L14.4393 27.4175L0.43934 14.4327C-0.146447 13.8894 -0.146447 13.0085 0.43934 12.4652Z" fill="white"/>
<path d="M0.43934 0.407491C0.971873 -0.0864375 1.8052 -0.13134 2.39242 0.272783L2.56066 0.407491L15.5 12.4082L28.4393 0.407491C28.9719 -0.0864375 29.8052 -0.13134 30.3924 0.272783L30.5607 0.407491C31.0932 0.90142 31.1416 1.67434 30.7059 2.21899L30.5607 2.37503L16.5607 15.3601C16.0281 15.8541 15.1948 15.899 14.6076 15.4949L14.4393 15.3601L0.43934 2.37503C-0.146447 1.83171 -0.146447 0.950813 0.43934 0.407491Z" fill="white"/>
</svg>
