<svg width="264" height="82" viewBox="0 0 264 82" fill="none" xmlns="http://www.w3.org/2000/svg">
<path d="M0.5625 76.3849C0.5625 75.9318 0.609375 75.6037 0.703125 75.4006C0.796875 75.2131 0.914062 75.1115 1.05469 75.0959C1.19531 75.0959 1.35938 75.1584 1.54688 75.2834C1.71875 75.4084 1.91406 75.549 2.13281 75.7053C2.33594 75.8615 2.54688 76.0099 2.76562 76.1506C2.96875 76.3068 3.17188 76.4006 3.375 76.4318C3.8125 76.4318 4.17188 76.2756 4.45312 75.9631C4.73438 75.6662 4.95312 75.299 5.10938 74.8615C5.28125 74.4396 5.39062 73.9943 5.4375 73.5256C5.5 73.0568 5.53125 72.6662 5.53125 72.3537C5.53125 72.3224 5.53125 72.2756 5.53125 72.2131C5.53125 72.1349 5.51562 71.9787 5.48438 71.7443C5.46875 71.5099 5.44531 71.1662 5.41406 70.7131C5.38281 70.2443 5.32812 69.6193 5.25 68.8381C5.1875 68.0568 5.10156 67.0803 4.99219 65.9084C4.89844 64.7209 4.77344 63.2834 4.61719 61.5959C4.61719 61.3615 4.67188 61.1662 4.78125 61.0099C4.90625 60.8537 5.09375 60.7756 5.34375 60.7756C5.65625 60.7756 5.91406 60.8224 6.11719 60.9162C6.32031 60.9943 6.50781 61.1818 6.67969 61.4787C6.67969 61.6662 6.6875 61.8771 6.70312 62.1115C6.71875 62.3303 6.74219 62.6193 6.77344 62.9787C6.80469 63.3224 6.84375 63.7599 6.89062 64.2912C6.95312 64.8068 7.01562 65.4474 7.07812 66.2131C7.15625 66.9631 7.23438 67.8693 7.3125 68.9318C7.40625 69.9787 7.5 71.2053 7.59375 72.6115C7.59375 73.1271 7.54688 73.6584 7.45312 74.2053C7.375 74.7521 7.22656 75.2678 7.00781 75.7521C6.78906 76.2521 6.49219 76.6896 6.11719 77.0646C5.74219 77.4553 5.27344 77.7365 4.71094 77.9084C4.61719 77.8771 4.52344 77.8849 4.42969 77.9318C4.33594 77.9787 4.24219 78.0021 4.14844 78.0021C3.83594 78.0021 3.5 77.9709 3.14062 77.9084C2.78125 77.8459 2.42969 77.7521 2.08594 77.6271C1.74219 77.5021 1.4375 77.3303 1.17188 77.1115C0.890625 76.9084 0.6875 76.6662 0.5625 76.3849ZM3.51562 55.4553C3.51562 55.2053 3.60938 55.0412 3.79688 54.9631C4 54.8693 4.19531 54.8224 4.38281 54.8224C4.67969 54.8224 4.96094 54.9084 5.22656 55.0803C5.49219 55.2521 5.625 55.5178 5.625 55.8771C5.625 56.0803 5.51562 56.2287 5.29688 56.3224C5.09375 56.4006 4.91406 56.4396 4.75781 56.4396C4.64844 56.4396 4.52344 56.4162 4.38281 56.3693C4.24219 56.3068 4.10156 56.2287 3.96094 56.1349C3.83594 56.0412 3.72656 55.9396 3.63281 55.8303C3.55469 55.7053 3.51562 55.5803 3.51562 55.4553ZM8.60156 68.9318L9.46875 62.9084C9.5 62.7053 9.58594 62.5568 9.72656 62.4631C9.88281 62.3693 10.0547 62.3224 10.2422 62.3224C10.5859 62.3224 10.8594 62.424 11.0625 62.6271C11.2656 62.8146 11.4375 63.049 11.5781 63.3303H11.6016C11.7891 63.3303 11.9531 63.299 12.0938 63.2365C12.25 63.1584 12.4375 63.1193 12.6562 63.1193C13.1562 63.1193 13.5781 63.2756 13.9219 63.5881C14.2812 63.9006 14.5703 64.2834 14.7891 64.7365C15.0078 65.174 15.1641 65.6506 15.2578 66.1662C15.3672 66.6818 15.4219 67.1349 15.4219 67.5256C15.4219 67.9943 15.2969 68.5178 15.0469 69.0959C14.8125 69.674 14.4922 70.2209 14.0859 70.7365C13.6953 71.2521 13.25 71.6818 12.75 72.0256C12.25 72.3693 11.7422 72.5412 11.2266 72.5412C10.7578 72.5412 10.3516 72.4318 10.0078 72.2131C9.67969 71.9943 9.40625 71.7209 9.1875 71.3928C8.98438 71.049 8.83594 70.6662 8.74219 70.2443C8.64844 69.8224 8.60156 69.4084 8.60156 69.0021V68.9318ZM10.5703 69.0724C10.6016 69.2287 10.6328 69.4084 10.6641 69.6115C10.6953 69.8146 10.7422 70.0021 10.8047 70.174C10.8672 70.3303 10.9531 70.4553 11.0625 70.549C11.1875 70.6271 11.3594 70.6271 11.5781 70.549C11.7812 70.3615 12 70.1506 12.2344 69.9162C12.4688 69.6818 12.6875 69.4318 12.8906 69.1662C13.1094 68.9006 13.2891 68.6193 13.4297 68.3224C13.5703 68.0256 13.6406 67.7131 13.6406 67.3849C13.7031 66.8537 13.6641 66.3693 13.5234 65.9318C13.3828 65.4787 13.1797 65.1584 12.9141 64.9709C12.6641 64.7678 12.375 64.7443 12.0469 64.9006C11.7188 65.0412 11.3906 65.4396 11.0625 66.0959C10.875 66.5021 10.7422 66.9787 10.6641 67.5256C10.6016 68.0568 10.5703 68.549 10.5703 69.0021V69.0724ZM17.5547 71.6271C17.3984 70.0646 17.2656 68.7287 17.1562 67.6193C17.0469 66.5099 16.9531 65.5803 16.875 64.8303C16.7969 64.0803 16.7266 63.4865 16.6641 63.049C16.6172 62.5959 16.5781 62.2599 16.5469 62.0412C16.5156 61.8068 16.4922 61.6506 16.4766 61.5724C16.4609 61.4943 16.4531 61.4474 16.4531 61.4318V61.3381C16.4531 61.1662 16.5234 61.0256 16.6641 60.9162C16.8203 60.7912 16.9766 60.7287 17.1328 60.7287C17.3672 60.7287 17.6172 60.7678 17.8828 60.8459C18.1641 60.924 18.3516 61.0881 18.4453 61.3381C18.5859 62.1037 18.6797 62.8771 18.7266 63.6584C18.7891 64.4396 18.8359 65.2209 18.8672 66.0021C18.9141 66.7678 18.9688 67.5412 19.0312 68.3224C19.1094 69.1037 19.2422 69.8771 19.4297 70.6428C19.4297 70.674 19.4375 70.7365 19.4531 70.8303C19.4844 70.924 19.5078 71.0256 19.5234 71.1349C19.5547 71.2443 19.5781 71.3459 19.5938 71.4396C19.6094 71.5334 19.6172 71.5959 19.6172 71.6271V71.674C19.6172 71.6896 19.625 71.7053 19.6406 71.7209C19.6406 71.9084 19.5547 72.0959 19.3828 72.2834C19.2109 72.4709 19.0312 72.549 18.8438 72.5178C18.7969 72.5021 18.6797 72.4787 18.4922 72.4474C18.3203 72.4006 18.2031 72.3615 18.1406 72.3303C18.0938 72.3146 18.0312 72.2834 17.9531 72.2365C17.875 72.174 17.7969 72.1115 17.7188 72.049C17.6562 71.9865 17.6016 71.9162 17.5547 71.8381C17.5078 71.7599 17.5078 71.6896 17.5547 71.6271ZM16.2422 54.5412C16.2422 54.4318 16.3281 54.3381 16.5 54.2599C16.6875 54.1662 16.8281 54.1193 16.9219 54.1193C17.1562 54.1193 17.4141 54.1896 17.6953 54.3303C17.9922 54.4553 18.1406 54.6506 18.1406 54.9162C18.1406 55.1818 18.1016 55.3615 18.0234 55.4553C17.9609 55.549 17.7969 55.5959 17.5312 55.5959C17.25 55.5959 16.9609 55.5021 16.6641 55.3146C16.3828 55.1271 16.2422 54.8693 16.2422 54.5412ZM27.1875 71.7209C26.9688 71.4084 26.7812 70.9787 26.625 70.4318C26.4844 69.8693 26.3438 69.2834 26.2031 68.674C26.0781 68.049 25.9609 67.4474 25.8516 66.8693C25.7422 66.2756 25.625 65.8068 25.5 65.4631C25.3906 65.1037 25.2656 64.9006 25.125 64.8537C24.9844 64.8068 24.8203 65.0178 24.6328 65.4865L22.5938 71.7678C22.5156 71.9865 22.4219 72.1428 22.3125 72.2365C22.2031 72.3146 22.0234 72.3537 21.7734 72.3537C21.6484 72.3537 21.5156 72.3381 21.375 72.3068C21.2344 72.2599 21.1016 72.1974 20.9766 72.1193C20.8516 72.0412 20.7422 71.9474 20.6484 71.8381C20.5703 71.7287 20.5234 71.6037 20.5078 71.4631C20.5547 71.2756 20.5938 70.9318 20.625 70.4318C20.6719 69.9318 20.7031 69.3537 20.7188 68.6974C20.7344 68.0412 20.7422 67.3537 20.7422 66.6349C20.7578 65.9006 20.7578 65.2209 20.7422 64.5959C20.7422 63.9553 20.7344 63.4084 20.7188 62.9553C20.7031 62.4865 20.6875 62.1818 20.6719 62.0412C20.6719 61.8849 20.6719 61.7287 20.6719 61.5724C20.6875 61.4006 20.7109 61.2443 20.7422 61.1037C20.7891 60.9631 20.8594 60.8537 20.9531 60.7756C21.0625 60.6818 21.2266 60.6349 21.4453 60.6349C21.7422 60.6349 22.0156 60.7599 22.2656 61.0099C22.5312 61.2599 22.6641 61.5256 22.6641 61.8068C22.6641 62.2131 22.6406 62.6193 22.5938 63.0256C22.5625 63.4162 22.5469 63.8146 22.5469 64.2209C22.5469 64.4709 22.5469 64.6818 22.5469 64.8537C22.5469 65.0256 22.5781 65.2365 22.6406 65.4865C22.6875 65.3615 22.7656 65.1428 22.875 64.8303C22.9844 64.5178 23.1016 64.1896 23.2266 63.8459C23.3672 63.5021 23.4922 63.1818 23.6016 62.8849C23.7109 62.5724 23.7891 62.3537 23.8359 62.2287C23.9453 61.9162 24.1094 61.6193 24.3281 61.3381C24.5469 61.0412 24.8359 60.8771 25.1953 60.8459C25.4297 60.8303 25.6406 60.8928 25.8281 61.0334C26.0312 61.174 26.2031 61.3615 26.3438 61.5959C26.4844 61.8146 26.6016 62.049 26.6953 62.299C26.7891 62.5334 26.8594 62.7365 26.9062 62.9084L28.1719 68.7443L29.1562 71.4162C29.1719 71.4318 29.1797 71.4787 29.1797 71.5568C29.1797 71.6193 29.1797 71.6662 29.1797 71.6974C29.1797 71.8849 29.1328 72.0724 29.0391 72.2599C28.9609 72.4318 28.8125 72.5178 28.5938 72.5178C28.3281 72.5178 28.0547 72.4474 27.7734 72.3068C27.4922 72.1506 27.2969 71.9553 27.1875 71.7209ZM39.8906 68.9318L40.7578 62.9084C40.7891 62.7053 40.875 62.5568 41.0156 62.4631C41.1719 62.3693 41.3438 62.3224 41.5312 62.3224C41.875 62.3224 42.1484 62.424 42.3516 62.6271C42.5547 62.8146 42.7266 63.049 42.8672 63.3303H42.8906C43.0781 63.3303 43.2422 63.299 43.3828 63.2365C43.5391 63.1584 43.7266 63.1193 43.9453 63.1193C44.4453 63.1193 44.8672 63.2756 45.2109 63.5881C45.5703 63.9006 45.8594 64.2834 46.0781 64.7365C46.2969 65.174 46.4531 65.6506 46.5469 66.1662C46.6562 66.6818 46.7109 67.1349 46.7109 67.5256C46.7109 67.9943 46.5859 68.5178 46.3359 69.0959C46.1016 69.674 45.7812 70.2209 45.375 70.7365C44.9844 71.2521 44.5391 71.6818 44.0391 72.0256C43.5391 72.3693 43.0312 72.5412 42.5156 72.5412C42.0469 72.5412 41.6406 72.4318 41.2969 72.2131C40.9688 71.9943 40.6953 71.7209 40.4766 71.3928C40.2734 71.049 40.125 70.6662 40.0312 70.2443C39.9375 69.8224 39.8906 69.4084 39.8906 69.0021V68.9318ZM41.8594 69.0724C41.8906 69.2287 41.9219 69.4084 41.9531 69.6115C41.9844 69.8146 42.0312 70.0021 42.0938 70.174C42.1562 70.3303 42.2422 70.4553 42.3516 70.549C42.4766 70.6271 42.6484 70.6271 42.8672 70.549C43.0703 70.3615 43.2891 70.1506 43.5234 69.9162C43.7578 69.6818 43.9766 69.4318 44.1797 69.1662C44.3984 68.9006 44.5781 68.6193 44.7188 68.3224C44.8594 68.0256 44.9297 67.7131 44.9297 67.3849C44.9922 66.8537 44.9531 66.3693 44.8125 65.9318C44.6719 65.4787 44.4688 65.1584 44.2031 64.9709C43.9531 64.7678 43.6641 64.7443 43.3359 64.9006C43.0078 65.0412 42.6797 65.4396 42.3516 66.0959C42.1641 66.5021 42.0312 66.9787 41.9531 67.5256C41.8906 68.0568 41.8594 68.549 41.8594 69.0021V69.0724ZM52.3828 70.2912C52.2734 70.5256 52.1641 70.7834 52.0547 71.0646C51.9453 71.3303 51.8203 71.5724 51.6797 71.7912C51.5391 72.0099 51.3672 72.1974 51.1641 72.3537C50.9609 72.4943 50.7031 72.5646 50.3906 72.5646C49.8438 72.5646 49.3906 72.4318 49.0312 72.1662C48.6719 71.8849 48.375 71.5412 48.1406 71.1349C47.9219 70.7131 47.7656 70.2599 47.6719 69.7756C47.5781 69.2912 47.5312 68.8381 47.5312 68.4162L47.7188 62.7443C47.7031 62.6349 47.7266 62.5256 47.7891 62.4162C47.8672 62.2912 47.9609 62.1818 48.0703 62.0881C48.1953 61.9787 48.3281 61.8928 48.4688 61.8303C48.625 61.7678 48.7656 61.7365 48.8906 61.7365C49.25 61.7365 49.5547 61.8537 49.8047 62.0881C50.0547 62.3068 50.1797 62.5959 50.1797 62.9553V63.1896C50.0078 63.4709 49.8594 63.8381 49.7344 64.2912C49.6094 64.7443 49.5078 65.2365 49.4297 65.7678C49.3672 66.2834 49.3281 66.8146 49.3125 67.3615C49.2969 67.9084 49.3125 68.4084 49.3594 68.8615C49.4219 69.3146 49.5156 69.7053 49.6406 70.0334C49.7656 70.3459 49.9297 70.5334 50.1328 70.5959C50.2109 70.5959 50.3281 70.5568 50.4844 70.4787C50.6562 70.4006 50.8359 70.2521 51.0234 70.0334C51.2109 69.8146 51.4062 69.5099 51.6094 69.1193C51.8125 68.7131 51.9922 68.1818 52.1484 67.5256C52.3047 66.8693 52.4219 66.0724 52.5 65.1349C52.5781 64.1974 52.6016 63.0724 52.5703 61.7599C52.6328 61.5881 52.7188 61.4943 52.8281 61.4787C52.9531 61.4631 53.0781 61.4553 53.2031 61.4553C53.3438 61.4553 53.4609 61.4631 53.5547 61.4787C53.6484 61.4787 53.75 61.5334 53.8594 61.6428C53.9375 61.7209 54.0234 61.8381 54.1172 61.9943C54.2109 62.1506 54.2578 62.2365 54.2578 62.2521L54.6562 72.6349C54.6562 72.8693 54.5938 73.0646 54.4688 73.2209C54.3438 73.3771 54.1641 73.4553 53.9297 73.4553C53.8516 73.4553 53.7578 73.4474 53.6484 73.4318C53.5391 73.4162 53.4297 73.3849 53.3203 73.3381C53.2109 73.2912 53.1094 73.2287 53.0156 73.1506C52.9375 73.0881 52.8906 73.0099 52.875 72.9162L52.4766 70.5724L52.3828 70.2912ZM57 71.5099C56.9688 70.9474 56.9141 70.1974 56.8359 69.2599C56.7734 68.3068 56.6953 67.3224 56.6016 66.3068C56.5234 65.2912 56.4375 64.3303 56.3438 63.424C56.25 62.5178 56.1719 61.8146 56.1094 61.3146C56.1094 61.1115 56.2031 60.9787 56.3906 60.9162C56.5781 60.8537 56.7578 60.8224 56.9297 60.8224C57.1484 60.8224 57.375 60.8849 57.6094 61.0099C57.8594 61.1349 58.0156 61.3068 58.0781 61.5256C58.0781 61.5881 58.0859 61.7053 58.1016 61.8771C58.1172 62.0334 58.125 62.1974 58.125 62.3693C58.1406 62.5412 58.1562 62.7131 58.1719 62.8849C58.1875 63.0412 58.1953 63.1506 58.1953 63.2131C58.1953 63.3068 58.1953 63.3771 58.1953 63.424C58.1953 63.4709 58.1953 63.5178 58.1953 63.5646C58.1953 63.5959 58.2031 63.6349 58.2188 63.6818C58.2344 63.7287 58.2578 63.8068 58.2891 63.9162C58.3203 63.8849 58.3516 63.8459 58.3828 63.799C58.4297 63.7521 58.4609 63.7209 58.4766 63.7053C58.7266 63.3459 58.9688 63.0334 59.2031 62.7678C59.4375 62.4865 59.6797 62.2287 59.9297 61.9943C60.1797 61.7443 60.4531 61.4865 60.75 61.2209C61.0625 60.9396 61.4219 60.6193 61.8281 60.2599C61.9219 60.1818 61.9922 60.1271 62.0391 60.0959C62.0859 60.049 62.125 60.0178 62.1562 60.0021C62.2031 59.9709 62.25 59.9553 62.2969 59.9553C62.3438 59.9396 62.4062 59.9318 62.4844 59.9318C62.75 59.9318 63.0156 60.0256 63.2812 60.2131C63.5625 60.3849 63.7031 60.6271 63.7031 60.9396C63.7031 61.049 63.6641 61.1662 63.5859 61.2912C63.5078 61.4006 63.4141 61.5099 63.3047 61.6193C63.1953 61.7131 63.0781 61.799 62.9531 61.8771C62.8438 61.9553 62.7422 62.0099 62.6484 62.0412C62.2422 62.4006 61.8125 62.8146 61.3594 63.2834C60.9062 63.7365 60.4844 64.2287 60.0938 64.7599C59.7031 65.2912 59.3828 65.8459 59.1328 66.424C58.8828 67.0021 58.7578 67.5803 58.7578 68.1584C58.7578 68.6896 58.7969 69.2131 58.875 69.7287C58.9531 70.2443 58.9922 70.7678 58.9922 71.299V72.1193C58.8672 72.2443 58.7578 72.3459 58.6641 72.424C58.5703 72.5021 58.4375 72.5412 58.2656 72.5412C58 72.5412 57.7422 72.4318 57.4922 72.2131C57.2422 71.9787 57.0781 71.7443 57 71.5099ZM73.9219 69.7053C73.8125 69.2365 73.8125 68.6818 73.9219 68.0412C74.0469 67.4006 74.2344 66.7599 74.4844 66.1193C74.75 65.4631 75.0703 64.8459 75.4453 64.2678C75.8359 63.6896 76.2422 63.2287 76.6641 62.8849C77.1016 62.5412 77.5391 62.3537 77.9766 62.3224C78.4297 62.2756 78.8594 62.4709 79.2656 62.9084C79.2656 62.924 79.2734 62.9631 79.2891 63.0256C79.3047 63.0881 79.3203 63.2209 79.3359 63.424C79.3516 63.6115 79.3594 63.8849 79.3594 64.2443C79.375 64.5881 79.3828 65.0646 79.3828 65.674C79.3984 65.7053 79.4141 65.7599 79.4297 65.8381C79.4609 65.9006 79.4766 65.9474 79.4766 65.9787C79.4297 66.1506 79.3359 66.3146 79.1953 66.4709C79.0703 66.6115 78.9062 66.6818 78.7031 66.6818C78.4375 66.6818 78.2188 66.6428 78.0469 66.5646C77.8906 66.4709 77.7734 66.2599 77.6953 65.9318C77.7266 65.8849 77.7344 65.7912 77.7188 65.6506C77.7031 65.4943 77.6719 65.3224 77.625 65.1349C77.5938 64.9474 77.5625 64.7599 77.5312 64.5724C77.5 64.3849 77.4844 64.2365 77.4844 64.1271C77.4688 64.1271 77.4453 64.1428 77.4141 64.174C77.3984 64.1896 77.3828 64.2053 77.3672 64.2209C77.1016 64.6896 76.8516 65.2131 76.6172 65.7912C76.3984 66.3537 76.2266 66.9318 76.1016 67.5256C75.9922 68.1037 75.9531 68.6818 75.9844 69.2599C76.0312 69.8381 76.2031 70.3615 76.5 70.8303C76.7188 70.8303 76.9219 70.7443 77.1094 70.5724C77.2969 70.3849 77.4531 70.2131 77.5781 70.0568C77.8438 69.7443 78.1016 69.424 78.3516 69.0959C78.6172 68.7678 78.8594 68.424 79.0781 68.0646C79.1719 67.9084 79.2422 67.7678 79.2891 67.6428C79.3359 67.5178 79.3906 67.4162 79.4531 67.3381C79.5312 67.2599 79.625 67.1974 79.7344 67.1506C79.8438 67.1037 80.0078 67.0803 80.2266 67.0803C80.4766 67.0803 80.7109 67.1428 80.9297 67.2678C81.1484 67.3771 81.2578 67.5646 81.2578 67.8303C81.2578 68.1896 81.0938 68.6428 80.7656 69.1896C80.4531 69.7209 80.0625 70.2365 79.5938 70.7365C79.1406 71.2365 78.6562 71.6662 78.1406 72.0256C77.625 72.3693 77.1719 72.5412 76.7812 72.5412C76.4062 72.5412 76.0391 72.4709 75.6797 72.3303C75.3359 72.174 75.0312 71.9709 74.7656 71.7209C74.5156 71.4709 74.3125 71.174 74.1562 70.8303C74 70.4865 73.9219 70.1115 73.9219 69.7053ZM82.2891 68.9318L83.1562 62.9084C83.1875 62.7053 83.2734 62.5568 83.4141 62.4631C83.5703 62.3693 83.7422 62.3224 83.9297 62.3224C84.2734 62.3224 84.5469 62.424 84.75 62.6271C84.9531 62.8146 85.125 63.049 85.2656 63.3303H85.2891C85.4766 63.3303 85.6406 63.299 85.7812 63.2365C85.9375 63.1584 86.125 63.1193 86.3438 63.1193C86.8438 63.1193 87.2656 63.2756 87.6094 63.5881C87.9688 63.9006 88.2578 64.2834 88.4766 64.7365C88.6953 65.174 88.8516 65.6506 88.9453 66.1662C89.0547 66.6818 89.1094 67.1349 89.1094 67.5256C89.1094 67.9943 88.9844 68.5178 88.7344 69.0959C88.5 69.674 88.1797 70.2209 87.7734 70.7365C87.3828 71.2521 86.9375 71.6818 86.4375 72.0256C85.9375 72.3693 85.4297 72.5412 84.9141 72.5412C84.4453 72.5412 84.0391 72.4318 83.6953 72.2131C83.3672 71.9943 83.0938 71.7209 82.875 71.3928C82.6719 71.049 82.5234 70.6662 82.4297 70.2443C82.3359 69.8224 82.2891 69.4084 82.2891 69.0021V68.9318ZM84.2578 69.0724C84.2891 69.2287 84.3203 69.4084 84.3516 69.6115C84.3828 69.8146 84.4297 70.0021 84.4922 70.174C84.5547 70.3303 84.6406 70.4553 84.75 70.549C84.875 70.6271 85.0469 70.6271 85.2656 70.549C85.4688 70.3615 85.6875 70.1506 85.9219 69.9162C86.1562 69.6818 86.375 69.4318 86.5781 69.1662C86.7969 68.9006 86.9766 68.6193 87.1172 68.3224C87.2578 68.0256 87.3281 67.7131 87.3281 67.3849C87.3906 66.8537 87.3516 66.3693 87.2109 65.9318C87.0703 65.4787 86.8672 65.1584 86.6016 64.9709C86.3516 64.7678 86.0625 64.7443 85.7344 64.9006C85.4062 65.0412 85.0781 65.4396 84.75 66.0959C84.5625 66.5021 84.4297 66.9787 84.3516 67.5256C84.2891 68.0568 84.2578 68.549 84.2578 69.0021V69.0724ZM90.4922 64.8771C90.4609 64.4709 90.4219 64.0646 90.375 63.6584C90.3438 63.2365 90.2891 62.8224 90.2109 62.4162C90.2109 62.0724 90.3203 61.8537 90.5391 61.7599C90.7734 61.6662 91.0234 61.6193 91.2891 61.6193H91.7578C91.9922 61.7287 92.1562 61.8615 92.25 62.0178C92.3438 62.174 92.4062 62.3459 92.4375 62.5334C92.4688 62.7209 92.4766 62.9162 92.4609 63.1193C92.4609 63.3224 92.4688 63.5178 92.4844 63.7053C92.5 63.7834 92.5078 63.9162 92.5078 64.1037C92.5078 64.2912 92.5078 64.4865 92.5078 64.6896C92.5234 64.8928 92.5391 65.0803 92.5547 65.2521C92.5859 65.424 92.625 65.5334 92.6719 65.5803L94.7344 61.7131C94.8281 61.5412 94.9609 61.4006 95.1328 61.2912C95.3203 61.1662 95.5234 61.1193 95.7422 61.1506C96.0859 61.1818 96.3438 61.2521 96.5156 61.3615C96.6875 61.4553 96.8047 61.5881 96.8672 61.7599C96.9453 61.9162 96.9844 62.1115 96.9844 62.3459C97 62.5803 97.0156 62.8381 97.0312 63.1193C97.0312 63.2131 97.0391 63.3928 97.0547 63.6584C97.0703 63.9084 97.0859 64.174 97.1016 64.4553C97.1328 64.7365 97.1562 65.0021 97.1719 65.2521C97.2031 65.5021 97.2266 65.674 97.2422 65.7678H97.3359C97.3672 65.6584 97.4219 65.4474 97.5 65.1349C97.5938 64.8224 97.6953 64.4943 97.8047 64.1506C97.9141 63.8068 98.0156 63.4787 98.1094 63.1662C98.2031 62.8537 98.2734 62.6349 98.3203 62.5099C98.3359 62.4787 98.3672 62.4162 98.4141 62.3224C98.4609 62.2131 98.5078 62.1037 98.5547 61.9943C98.6016 61.8693 98.6484 61.7599 98.6953 61.6662C98.7422 61.5568 98.7734 61.4787 98.7891 61.4318C98.8984 61.2599 99.0078 61.174 99.1172 61.174C99.2422 61.1584 99.375 61.1506 99.5156 61.1506C99.9062 61.1506 100.203 61.2521 100.406 61.4553C100.625 61.6428 100.781 61.8849 100.875 62.1818C100.984 62.4787 101.062 62.8068 101.109 63.1662C101.156 63.5099 101.211 63.8303 101.273 64.1271C101.289 64.1271 101.297 64.1428 101.297 64.174C101.297 64.1896 101.289 64.2053 101.273 64.2209L102.562 71.0412C102.625 71.1037 102.656 71.1584 102.656 71.2053C102.672 71.2521 102.68 71.3146 102.68 71.3928C102.68 71.5646 102.594 71.7365 102.422 71.9084C102.266 72.0646 102.102 72.1428 101.93 72.1428C101.695 72.1428 101.422 72.0568 101.109 71.8849C100.812 71.7131 100.641 71.4943 100.594 71.2287L99.5156 65.674L99.3984 65.4865C99.3672 65.5646 99.2969 65.7912 99.1875 66.1662C99.0938 66.5256 98.9766 66.9865 98.8359 67.549C98.6953 68.0959 98.5312 68.7131 98.3438 69.4006C98.1719 70.0881 97.9922 70.7912 97.8047 71.5099C97.7734 71.6506 97.6797 71.7599 97.5234 71.8381C97.3828 71.9006 97.2578 71.9318 97.1484 71.9318C96.8203 71.9318 96.5547 71.8928 96.3516 71.8146C96.1484 71.7365 95.9922 71.6193 95.8828 71.4631C95.7734 71.3068 95.6953 71.1193 95.6484 70.9006C95.6016 70.6818 95.5625 70.4318 95.5312 70.1506C95.5312 70.0881 95.5156 69.8693 95.4844 69.4943C95.4531 69.1037 95.4141 68.6662 95.3672 68.1818C95.3359 67.6818 95.2969 67.1818 95.25 66.6818C95.2031 66.1818 95.1719 65.7834 95.1562 65.4865C95.1562 65.424 95.1562 65.3771 95.1562 65.3459C95.1562 65.3146 95.1562 65.2912 95.1562 65.2756C95.1562 65.2443 95.1484 65.2131 95.1328 65.1818C95.1172 65.1349 95.0859 65.0646 95.0391 64.9709L94.3594 66.5881L93.2812 70.549L93.0469 72.0021C93.0312 72.0959 92.9844 72.1818 92.9062 72.2599C92.8438 72.3224 92.7656 72.3771 92.6719 72.424C92.5781 72.4553 92.4844 72.4787 92.3906 72.4943C92.2969 72.5099 92.2188 72.5178 92.1562 72.5178C91.8125 72.5178 91.5156 72.3928 91.2656 72.1428C91.0312 71.8928 90.9062 71.6193 90.8906 71.3224C90.875 71.2131 90.8594 71.0021 90.8438 70.6896C90.8281 70.3615 90.8047 69.9787 90.7734 69.5412C90.7422 69.1037 90.7109 68.6428 90.6797 68.1584C90.6641 67.674 90.6406 67.2131 90.6094 66.7756C90.5781 66.3381 90.5469 65.9553 90.5156 65.6271C90.5 65.299 90.4922 65.0803 90.4922 64.9709V64.8771ZM104.109 64.8771C104.078 64.4709 104.039 64.0646 103.992 63.6584C103.961 63.2365 103.906 62.8224 103.828 62.4162C103.828 62.0724 103.938 61.8537 104.156 61.7599C104.391 61.6662 104.641 61.6193 104.906 61.6193H105.375C105.609 61.7287 105.773 61.8615 105.867 62.0178C105.961 62.174 106.023 62.3459 106.055 62.5334C106.086 62.7209 106.094 62.9162 106.078 63.1193C106.078 63.3224 106.086 63.5178 106.102 63.7053C106.117 63.7834 106.125 63.9162 106.125 64.1037C106.125 64.2912 106.125 64.4865 106.125 64.6896C106.141 64.8928 106.156 65.0803 106.172 65.2521C106.203 65.424 106.242 65.5334 106.289 65.5803L108.352 61.7131C108.445 61.5412 108.578 61.4006 108.75 61.2912C108.938 61.1662 109.141 61.1193 109.359 61.1506C109.703 61.1818 109.961 61.2521 110.133 61.3615C110.305 61.4553 110.422 61.5881 110.484 61.7599C110.562 61.9162 110.602 62.1115 110.602 62.3459C110.617 62.5803 110.633 62.8381 110.648 63.1193C110.648 63.2131 110.656 63.3928 110.672 63.6584C110.688 63.9084 110.703 64.174 110.719 64.4553C110.75 64.7365 110.773 65.0021 110.789 65.2521C110.82 65.5021 110.844 65.674 110.859 65.7678H110.953C110.984 65.6584 111.039 65.4474 111.117 65.1349C111.211 64.8224 111.312 64.4943 111.422 64.1506C111.531 63.8068 111.633 63.4787 111.727 63.1662C111.82 62.8537 111.891 62.6349 111.938 62.5099C111.953 62.4787 111.984 62.4162 112.031 62.3224C112.078 62.2131 112.125 62.1037 112.172 61.9943C112.219 61.8693 112.266 61.7599 112.312 61.6662C112.359 61.5568 112.391 61.4787 112.406 61.4318C112.516 61.2599 112.625 61.174 112.734 61.174C112.859 61.1584 112.992 61.1506 113.133 61.1506C113.523 61.1506 113.82 61.2521 114.023 61.4553C114.242 61.6428 114.398 61.8849 114.492 62.1818C114.602 62.4787 114.68 62.8068 114.727 63.1662C114.773 63.5099 114.828 63.8303 114.891 64.1271C114.906 64.1271 114.914 64.1428 114.914 64.174C114.914 64.1896 114.906 64.2053 114.891 64.2209L116.18 71.0412C116.242 71.1037 116.273 71.1584 116.273 71.2053C116.289 71.2521 116.297 71.3146 116.297 71.3928C116.297 71.5646 116.211 71.7365 116.039 71.9084C115.883 72.0646 115.719 72.1428 115.547 72.1428C115.312 72.1428 115.039 72.0568 114.727 71.8849C114.43 71.7131 114.258 71.4943 114.211 71.2287L113.133 65.674L113.016 65.4865C112.984 65.5646 112.914 65.7912 112.805 66.1662C112.711 66.5256 112.594 66.9865 112.453 67.549C112.312 68.0959 112.148 68.7131 111.961 69.4006C111.789 70.0881 111.609 70.7912 111.422 71.5099C111.391 71.6506 111.297 71.7599 111.141 71.8381C111 71.9006 110.875 71.9318 110.766 71.9318C110.438 71.9318 110.172 71.8928 109.969 71.8146C109.766 71.7365 109.609 71.6193 109.5 71.4631C109.391 71.3068 109.312 71.1193 109.266 70.9006C109.219 70.6818 109.18 70.4318 109.148 70.1506C109.148 70.0881 109.133 69.8693 109.102 69.4943C109.07 69.1037 109.031 68.6662 108.984 68.1818C108.953 67.6818 108.914 67.1818 108.867 66.6818C108.82 66.1818 108.789 65.7834 108.773 65.4865C108.773 65.424 108.773 65.3771 108.773 65.3459C108.773 65.3146 108.773 65.2912 108.773 65.2756C108.773 65.2443 108.766 65.2131 108.75 65.1818C108.734 65.1349 108.703 65.0646 108.656 64.9709L107.977 66.5881L106.898 70.549L106.664 72.0021C106.648 72.0959 106.602 72.1818 106.523 72.2599C106.461 72.3224 106.383 72.3771 106.289 72.424C106.195 72.4553 106.102 72.4787 106.008 72.4943C105.914 72.5099 105.836 72.5178 105.773 72.5178C105.43 72.5178 105.133 72.3928 104.883 72.1428C104.648 71.8928 104.523 71.6193 104.508 71.3224C104.492 71.2131 104.477 71.0021 104.461 70.6896C104.445 70.3615 104.422 69.9787 104.391 69.5412C104.359 69.1037 104.328 68.6428 104.297 68.1584C104.281 67.674 104.258 67.2131 104.227 66.7756C104.195 66.3381 104.164 65.9553 104.133 65.6271C104.117 65.299 104.109 65.0803 104.109 64.9709V64.8771ZM122.016 70.2912C121.906 70.5256 121.797 70.7834 121.688 71.0646C121.578 71.3303 121.453 71.5724 121.312 71.7912C121.172 72.0099 121 72.1974 120.797 72.3537C120.594 72.4943 120.336 72.5646 120.023 72.5646C119.477 72.5646 119.023 72.4318 118.664 72.1662C118.305 71.8849 118.008 71.5412 117.773 71.1349C117.555 70.7131 117.398 70.2599 117.305 69.7756C117.211 69.2912 117.164 68.8381 117.164 68.4162L117.352 62.7443C117.336 62.6349 117.359 62.5256 117.422 62.4162C117.5 62.2912 117.594 62.1818 117.703 62.0881C117.828 61.9787 117.961 61.8928 118.102 61.8303C118.258 61.7678 118.398 61.7365 118.523 61.7365C118.883 61.7365 119.188 61.8537 119.438 62.0881C119.688 62.3068 119.812 62.5959 119.812 62.9553V63.1896C119.641 63.4709 119.492 63.8381 119.367 64.2912C119.242 64.7443 119.141 65.2365 119.062 65.7678C119 66.2834 118.961 66.8146 118.945 67.3615C118.93 67.9084 118.945 68.4084 118.992 68.8615C119.055 69.3146 119.148 69.7053 119.273 70.0334C119.398 70.3459 119.562 70.5334 119.766 70.5959C119.844 70.5959 119.961 70.5568 120.117 70.4787C120.289 70.4006 120.469 70.2521 120.656 70.0334C120.844 69.8146 121.039 69.5099 121.242 69.1193C121.445 68.7131 121.625 68.1818 121.781 67.5256C121.938 66.8693 122.055 66.0724 122.133 65.1349C122.211 64.1974 122.234 63.0724 122.203 61.7599C122.266 61.5881 122.352 61.4943 122.461 61.4787C122.586 61.4631 122.711 61.4553 122.836 61.4553C122.977 61.4553 123.094 61.4631 123.188 61.4787C123.281 61.4787 123.383 61.5334 123.492 61.6428C123.57 61.7209 123.656 61.8381 123.75 61.9943C123.844 62.1506 123.891 62.2365 123.891 62.2521L124.289 72.6349C124.289 72.8693 124.227 73.0646 124.102 73.2209C123.977 73.3771 123.797 73.4553 123.562 73.4553C123.484 73.4553 123.391 73.4474 123.281 73.4318C123.172 73.4162 123.062 73.3849 122.953 73.3381C122.844 73.2912 122.742 73.2287 122.648 73.1506C122.57 73.0881 122.523 73.0099 122.508 72.9162L122.109 70.5724L122.016 70.2912ZM132.258 71.7209C132.039 71.4084 131.852 70.9787 131.695 70.4318C131.555 69.8693 131.414 69.2834 131.273 68.674C131.148 68.049 131.031 67.4474 130.922 66.8693C130.812 66.2756 130.695 65.8068 130.57 65.4631C130.461 65.1037 130.336 64.9006 130.195 64.8537C130.055 64.8068 129.891 65.0178 129.703 65.4865L127.664 71.7678C127.586 71.9865 127.492 72.1428 127.383 72.2365C127.273 72.3146 127.094 72.3537 126.844 72.3537C126.719 72.3537 126.586 72.3381 126.445 72.3068C126.305 72.2599 126.172 72.1974 126.047 72.1193C125.922 72.0412 125.812 71.9474 125.719 71.8381C125.641 71.7287 125.594 71.6037 125.578 71.4631C125.625 71.2756 125.664 70.9318 125.695 70.4318C125.742 69.9318 125.773 69.3537 125.789 68.6974C125.805 68.0412 125.812 67.3537 125.812 66.6349C125.828 65.9006 125.828 65.2209 125.812 64.5959C125.812 63.9553 125.805 63.4084 125.789 62.9553C125.773 62.4865 125.758 62.1818 125.742 62.0412C125.742 61.8849 125.742 61.7287 125.742 61.5724C125.758 61.4006 125.781 61.2443 125.812 61.1037C125.859 60.9631 125.93 60.8537 126.023 60.7756C126.133 60.6818 126.297 60.6349 126.516 60.6349C126.812 60.6349 127.086 60.7599 127.336 61.0099C127.602 61.2599 127.734 61.5256 127.734 61.8068C127.734 62.2131 127.711 62.6193 127.664 63.0256C127.633 63.4162 127.617 63.8146 127.617 64.2209C127.617 64.4709 127.617 64.6818 127.617 64.8537C127.617 65.0256 127.648 65.2365 127.711 65.4865C127.758 65.3615 127.836 65.1428 127.945 64.8303C128.055 64.5178 128.172 64.1896 128.297 63.8459C128.438 63.5021 128.562 63.1818 128.672 62.8849C128.781 62.5724 128.859 62.3537 128.906 62.2287C129.016 61.9162 129.18 61.6193 129.398 61.3381C129.617 61.0412 129.906 60.8771 130.266 60.8459C130.5 60.8303 130.711 60.8928 130.898 61.0334C131.102 61.174 131.273 61.3615 131.414 61.5959C131.555 61.8146 131.672 62.049 131.766 62.299C131.859 62.5334 131.93 62.7365 131.977 62.9084L133.242 68.7443L134.227 71.4162C134.242 71.4318 134.25 71.4787 134.25 71.5568C134.25 71.6193 134.25 71.6662 134.25 71.6974C134.25 71.8849 134.203 72.0724 134.109 72.2599C134.031 72.4318 133.883 72.5178 133.664 72.5178C133.398 72.5178 133.125 72.4474 132.844 72.3068C132.562 72.1506 132.367 71.9553 132.258 71.7209ZM136.383 71.6271C136.227 70.0646 136.094 68.7287 135.984 67.6193C135.875 66.5099 135.781 65.5803 135.703 64.8303C135.625 64.0803 135.555 63.4865 135.492 63.049C135.445 62.5959 135.406 62.2599 135.375 62.0412C135.344 61.8068 135.32 61.6506 135.305 61.5724C135.289 61.4943 135.281 61.4474 135.281 61.4318V61.3381C135.281 61.1662 135.352 61.0256 135.492 60.9162C135.648 60.7912 135.805 60.7287 135.961 60.7287C136.195 60.7287 136.445 60.7678 136.711 60.8459C136.992 60.924 137.18 61.0881 137.273 61.3381C137.414 62.1037 137.508 62.8771 137.555 63.6584C137.617 64.4396 137.664 65.2209 137.695 66.0021C137.742 66.7678 137.797 67.5412 137.859 68.3224C137.938 69.1037 138.07 69.8771 138.258 70.6428C138.258 70.674 138.266 70.7365 138.281 70.8303C138.312 70.924 138.336 71.0256 138.352 71.1349C138.383 71.2443 138.406 71.3459 138.422 71.4396C138.438 71.5334 138.445 71.5959 138.445 71.6271V71.674C138.445 71.6896 138.453 71.7053 138.469 71.7209C138.469 71.9084 138.383 72.0959 138.211 72.2834C138.039 72.4709 137.859 72.549 137.672 72.5178C137.625 72.5021 137.508 72.4787 137.32 72.4474C137.148 72.4006 137.031 72.3615 136.969 72.3303C136.922 72.3146 136.859 72.2834 136.781 72.2365C136.703 72.174 136.625 72.1115 136.547 72.049C136.484 71.9865 136.43 71.9162 136.383 71.8381C136.336 71.7599 136.336 71.6896 136.383 71.6271ZM135.07 54.5412C135.07 54.4318 135.156 54.3381 135.328 54.2599C135.516 54.1662 135.656 54.1193 135.75 54.1193C135.984 54.1193 136.242 54.1896 136.523 54.3303C136.82 54.4553 136.969 54.6506 136.969 54.9162C136.969 55.1818 136.93 55.3615 136.852 55.4553C136.789 55.549 136.625 55.5959 136.359 55.5959C136.078 55.5959 135.789 55.5021 135.492 55.3146C135.211 55.1271 135.07 54.8693 135.07 54.5412ZM141.586 65.674C141.367 65.674 141.172 65.7287 141 65.8381C140.828 65.9474 140.625 66.0021 140.391 66.0021C140.359 66.0021 140.273 66.0021 140.133 66.0021C140.008 65.9865 139.93 65.9787 139.898 65.9787C139.836 65.9006 139.766 65.8381 139.688 65.7912C139.609 65.7443 139.531 65.6974 139.453 65.6506C139.375 65.5881 139.305 65.5178 139.242 65.4396C139.195 65.3615 139.172 65.2521 139.172 65.1115C139.172 64.8771 139.266 64.6896 139.453 64.549C139.641 64.3928 139.859 64.2599 140.109 64.1506C140.359 64.0412 140.609 63.9396 140.859 63.8459C141.125 63.7521 141.336 63.6428 141.492 63.5178V62.4865C141.492 61.3303 141.438 60.174 141.328 59.0178C141.219 57.8459 141.164 56.6896 141.164 55.549C141.164 55.2365 141.242 55.0334 141.398 54.9396C141.555 54.8459 141.766 54.799 142.031 54.799C142.344 54.799 142.57 54.8928 142.711 55.0803C142.867 55.2521 142.977 55.4709 143.039 55.7365C143.102 55.9865 143.133 56.2599 143.133 56.5568C143.133 56.8381 143.141 57.0803 143.156 57.2834C143.156 57.4865 143.172 57.8459 143.203 58.3615C143.234 58.8771 143.266 59.424 143.297 60.0021C143.328 60.5803 143.359 61.1271 143.391 61.6428C143.422 62.1584 143.445 62.5178 143.461 62.7209C143.523 62.7053 143.641 62.6662 143.812 62.6037C144 62.5256 144.195 62.4553 144.398 62.3928C144.602 62.3146 144.789 62.2443 144.961 62.1818C145.148 62.1193 145.281 62.0724 145.359 62.0412C145.766 61.8693 146.188 61.6818 146.625 61.4787C147.062 61.2599 147.508 61.1506 147.961 61.1506C148.273 61.1506 148.508 61.2599 148.664 61.4787C148.836 61.6818 148.922 61.924 148.922 62.2053C148.922 62.4084 148.844 62.5568 148.688 62.6506C148.531 62.7443 148.367 62.8303 148.195 62.9084L143.93 64.5021C143.883 64.5334 143.836 64.5646 143.789 64.5959C143.742 64.6115 143.695 64.6428 143.648 64.6896V65.4396C143.648 65.9865 143.656 66.5568 143.672 67.1506C143.703 67.7287 143.758 68.2912 143.836 68.8381C143.914 69.3068 144 69.7678 144.094 70.2209C144.188 70.674 144.234 71.1349 144.234 71.6037C144.234 71.7443 144.188 71.9318 144.094 72.1662C144 72.4006 143.852 72.5178 143.648 72.5178C143.227 72.5178 142.883 72.3928 142.617 72.1428C142.352 71.8928 142.203 71.5568 142.172 71.1349C142.094 70.3224 142.008 69.4318 141.914 68.4631C141.836 67.4943 141.758 66.5646 141.68 65.674H141.586ZM154.359 78.9631C154.328 78.6349 154.305 78.2365 154.289 77.7678C154.289 77.299 154.289 76.8068 154.289 76.2912C154.289 75.7756 154.289 75.2521 154.289 74.7209C154.305 74.1896 154.328 73.7053 154.359 73.2678V72.424C154.281 72.3146 154.188 72.2053 154.078 72.0959C153.969 71.9709 153.773 71.7365 153.492 71.3928C153.227 71.0334 152.844 70.5099 152.344 69.8224C151.844 69.1193 151.172 68.1428 150.328 66.8928C150 66.549 149.789 66.2678 149.695 66.049C149.602 65.8146 149.57 65.6271 149.602 65.4865C149.633 65.3459 149.711 65.2443 149.836 65.1818C149.977 65.1193 150.109 65.0881 150.234 65.0881C150.547 65.0881 150.828 65.1584 151.078 65.299C151.328 65.4396 151.555 65.6193 151.758 65.8381C151.961 66.0568 152.141 66.299 152.297 66.5646C152.469 66.8146 152.633 67.0568 152.789 67.2912C152.883 67.4318 153 67.6115 153.141 67.8303C153.281 68.049 153.422 68.2678 153.562 68.4865C153.703 68.6896 153.82 68.8693 153.914 69.0256C154.023 69.1818 154.078 69.2599 154.078 69.2599L154.359 69.5646V67.1037C154.359 66.3224 154.344 65.5646 154.312 64.8303C154.281 64.0803 154.266 63.3224 154.266 62.5568C154.266 62.3381 154.344 62.1584 154.5 62.0178C154.656 61.8771 154.844 61.8146 155.062 61.8303C155.328 61.8615 155.523 61.9084 155.648 61.9709C155.789 62.0334 155.93 62.1584 156.07 62.3459C156.195 62.5178 156.25 62.7209 156.234 62.9553C156.234 63.1896 156.242 63.4162 156.258 63.6349C156.32 65.1193 156.367 66.6037 156.398 68.0881C156.445 69.5568 156.469 71.0334 156.469 72.5178C156.453 72.6584 156.445 72.9396 156.445 73.3615C156.445 73.799 156.445 74.2912 156.445 74.8381C156.461 75.3849 156.469 75.9553 156.469 76.549C156.484 77.1428 156.492 77.6818 156.492 78.1662C156.508 78.6662 156.516 79.0724 156.516 79.3849C156.531 79.7131 156.547 79.8693 156.562 79.8537C156.562 80.0881 156.477 80.2599 156.305 80.3693C156.148 80.4787 155.953 80.5334 155.719 80.5334C155.406 80.5334 155.172 80.4865 155.016 80.3928C154.875 80.3146 154.766 80.1974 154.688 80.0412C154.609 79.9006 154.555 79.7365 154.523 79.549C154.492 79.3615 154.438 79.1662 154.359 78.9631ZM168.398 71.6271C168.242 70.0646 168.109 68.7287 168 67.6193C167.891 66.5099 167.797 65.5803 167.719 64.8303C167.641 64.0803 167.57 63.4865 167.508 63.049C167.461 62.5959 167.422 62.2599 167.391 62.0412C167.359 61.8068 167.336 61.6506 167.32 61.5724C167.305 61.4943 167.297 61.4474 167.297 61.4318V61.3381C167.297 61.1662 167.367 61.0256 167.508 60.9162C167.664 60.7912 167.82 60.7287 167.977 60.7287C168.211 60.7287 168.461 60.7678 168.727 60.8459C169.008 60.924 169.195 61.0881 169.289 61.3381C169.43 62.1037 169.523 62.8771 169.57 63.6584C169.633 64.4396 169.68 65.2209 169.711 66.0021C169.758 66.7678 169.812 67.5412 169.875 68.3224C169.953 69.1037 170.086 69.8771 170.273 70.6428C170.273 70.674 170.281 70.7365 170.297 70.8303C170.328 70.924 170.352 71.0256 170.367 71.1349C170.398 71.2443 170.422 71.3459 170.438 71.4396C170.453 71.5334 170.461 71.5959 170.461 71.6271V71.674C170.461 71.6896 170.469 71.7053 170.484 71.7209C170.484 71.9084 170.398 72.0959 170.227 72.2834C170.055 72.4709 169.875 72.549 169.688 72.5178C169.641 72.5021 169.523 72.4787 169.336 72.4474C169.164 72.4006 169.047 72.3615 168.984 72.3303C168.938 72.3146 168.875 72.2834 168.797 72.2365C168.719 72.174 168.641 72.1115 168.562 72.049C168.5 71.9865 168.445 71.9162 168.398 71.8381C168.352 71.7599 168.352 71.6896 168.398 71.6271ZM167.086 54.5412C167.086 54.4318 167.172 54.3381 167.344 54.2599C167.531 54.1662 167.672 54.1193 167.766 54.1193C168 54.1193 168.258 54.1896 168.539 54.3303C168.836 54.4553 168.984 54.6506 168.984 54.9162C168.984 55.1818 168.945 55.3615 168.867 55.4553C168.805 55.549 168.641 55.5959 168.375 55.5959C168.094 55.5959 167.805 55.5021 167.508 55.3146C167.227 55.1271 167.086 54.8693 167.086 54.5412ZM178.031 71.7209C177.812 71.4084 177.625 70.9787 177.469 70.4318C177.328 69.8693 177.188 69.2834 177.047 68.674C176.922 68.049 176.805 67.4474 176.695 66.8693C176.586 66.2756 176.469 65.8068 176.344 65.4631C176.234 65.1037 176.109 64.9006 175.969 64.8537C175.828 64.8068 175.664 65.0178 175.477 65.4865L173.438 71.7678C173.359 71.9865 173.266 72.1428 173.156 72.2365C173.047 72.3146 172.867 72.3537 172.617 72.3537C172.492 72.3537 172.359 72.3381 172.219 72.3068C172.078 72.2599 171.945 72.1974 171.82 72.1193C171.695 72.0412 171.586 71.9474 171.492 71.8381C171.414 71.7287 171.367 71.6037 171.352 71.4631C171.398 71.2756 171.438 70.9318 171.469 70.4318C171.516 69.9318 171.547 69.3537 171.562 68.6974C171.578 68.0412 171.586 67.3537 171.586 66.6349C171.602 65.9006 171.602 65.2209 171.586 64.5959C171.586 63.9553 171.578 63.4084 171.562 62.9553C171.547 62.4865 171.531 62.1818 171.516 62.0412C171.516 61.8849 171.516 61.7287 171.516 61.5724C171.531 61.4006 171.555 61.2443 171.586 61.1037C171.633 60.9631 171.703 60.8537 171.797 60.7756C171.906 60.6818 172.07 60.6349 172.289 60.6349C172.586 60.6349 172.859 60.7599 173.109 61.0099C173.375 61.2599 173.508 61.5256 173.508 61.8068C173.508 62.2131 173.484 62.6193 173.438 63.0256C173.406 63.4162 173.391 63.8146 173.391 64.2209C173.391 64.4709 173.391 64.6818 173.391 64.8537C173.391 65.0256 173.422 65.2365 173.484 65.4865C173.531 65.3615 173.609 65.1428 173.719 64.8303C173.828 64.5178 173.945 64.1896 174.07 63.8459C174.211 63.5021 174.336 63.1818 174.445 62.8849C174.555 62.5724 174.633 62.3537 174.68 62.2287C174.789 61.9162 174.953 61.6193 175.172 61.3381C175.391 61.0412 175.68 60.8771 176.039 60.8459C176.273 60.8303 176.484 60.8928 176.672 61.0334C176.875 61.174 177.047 61.3615 177.188 61.5959C177.328 61.8146 177.445 62.049 177.539 62.299C177.633 62.5334 177.703 62.7365 177.75 62.9084L179.016 68.7443L180 71.4162C180.016 71.4318 180.023 71.4787 180.023 71.5568C180.023 71.6193 180.023 71.6662 180.023 71.6974C180.023 71.8849 179.977 72.0724 179.883 72.2599C179.805 72.4318 179.656 72.5178 179.438 72.5178C179.172 72.5178 178.898 72.4474 178.617 72.3068C178.336 72.1506 178.141 71.9553 178.031 71.7209ZM191.906 69.1662C191.734 69.0881 191.57 68.9631 191.414 68.7912C191.273 68.6193 191.203 68.4474 191.203 68.2756C191.203 68.0568 191.266 67.8693 191.391 67.7131C191.531 67.5568 191.602 67.3693 191.602 67.1506C191.602 66.7912 191.555 66.4318 191.461 66.0724C191.383 65.7131 191.367 65.3459 191.414 64.9709L190.734 58.3615V58.3146C190.734 58.1271 190.812 57.9318 190.969 57.7287C191.125 57.5256 191.305 57.4396 191.508 57.4709C191.555 57.4709 191.617 57.4865 191.695 57.5178C191.789 57.5334 191.891 57.5646 192 57.6115C192.109 57.6428 192.203 57.6818 192.281 57.7287C192.375 57.7756 192.445 57.8224 192.492 57.8693C192.523 57.9006 192.578 57.9943 192.656 58.1506C192.734 58.3068 192.781 58.4084 192.797 58.4553C192.922 58.9084 192.977 59.4162 192.961 59.9787C192.961 60.5256 192.977 61.0412 193.008 61.5256C193.023 61.6974 193.039 61.9709 193.055 62.3459C193.086 62.7053 193.117 63.0724 193.148 63.4474C193.195 63.8068 193.242 64.1271 193.289 64.4084C193.336 64.674 193.383 64.8068 193.43 64.8068L193.477 64.7834C194.273 63.9865 194.969 63.1662 195.562 62.3224C196.172 61.4631 196.672 60.5099 197.062 59.4631C197.062 59.4318 197.078 59.3693 197.109 59.2756C197.141 59.1818 197.172 59.0881 197.203 58.9943C197.234 58.8849 197.258 58.7834 197.273 58.6896C197.305 58.5803 197.328 58.5021 197.344 58.4553C197.344 58.4553 197.352 58.4084 197.367 58.3146C197.383 58.2209 197.406 58.1271 197.438 58.0334C197.469 57.924 197.5 57.8224 197.531 57.7287C197.578 57.6349 197.625 57.5881 197.672 57.5881H198.75C198.859 57.5881 198.945 57.6271 199.008 57.7053C199.086 57.7834 199.148 57.8771 199.195 57.9865C199.242 58.0959 199.273 58.2053 199.289 58.3146C199.305 58.4084 199.312 58.4865 199.312 58.549C199.312 58.5646 199.297 58.6037 199.266 58.6662C199.25 58.7131 199.234 58.7443 199.219 58.7599V58.9474C199.094 59.3849 198.961 59.7834 198.82 60.1428C198.68 60.5021 198.523 60.8537 198.352 61.1974C198.195 61.5412 198.016 61.8849 197.812 62.2287C197.609 62.5724 197.391 62.9396 197.156 63.3303C197.078 63.4553 196.953 63.5959 196.781 63.7521C196.609 63.8928 196.5 64.049 196.453 64.2209L194.297 66.7756L193.992 67.3849H194.086C194.758 67.2131 195.398 67.0881 196.008 67.0099C196.633 66.9318 197.25 66.8771 197.859 66.8459C198.469 66.8146 199.086 66.799 199.711 66.799C200.336 66.799 201 66.7912 201.703 66.7756C201.719 66.7756 201.773 66.7756 201.867 66.7756C201.961 66.7599 202.055 66.7443 202.148 66.7287C202.242 66.7131 202.328 66.7053 202.406 66.7053C202.5 66.6896 202.562 66.6818 202.594 66.6818H202.805C202.977 66.6818 203.164 66.7131 203.367 66.7756C203.586 66.8381 203.727 66.9787 203.789 67.1974C203.852 67.3693 203.82 67.5568 203.695 67.7599C203.586 67.9474 203.453 68.0803 203.297 68.1584C203.25 68.174 203.164 68.1896 203.039 68.2053C202.93 68.2209 202.812 68.2443 202.688 68.2756C202.562 68.2912 202.445 68.3146 202.336 68.3459C202.227 68.3615 202.148 68.3693 202.102 68.3693H201.797C201.469 68.3849 201.055 68.3928 200.555 68.3928C200.07 68.3928 199.602 68.4006 199.148 68.4162C198.617 68.4318 198.055 68.4474 197.461 68.4631L193.992 69.1662V69.3068C193.992 69.6506 194.039 69.9865 194.133 70.3146C194.242 70.6428 194.297 70.9787 194.297 71.3224C194.297 71.6349 194.219 71.9162 194.062 72.1662C193.906 72.4006 193.648 72.5178 193.289 72.5178C193.102 72.5178 192.898 72.4162 192.68 72.2131C192.461 72.0099 192.328 71.8146 192.281 71.6271L191.906 69.1662ZM214.336 65.8615C214.305 66.1428 214.266 66.3615 214.219 66.5178C214.188 66.674 214.125 66.8146 214.031 66.9396C213.938 67.0646 213.805 67.1974 213.633 67.3381C213.461 67.4631 213.227 67.6506 212.93 67.9006C212.633 68.1349 212.266 68.4474 211.828 68.8381C211.391 69.2287 210.859 69.7365 210.234 70.3615C209.984 70.5959 209.727 70.8381 209.461 71.0881C209.195 71.3381 208.914 71.5646 208.617 71.7678C208.336 71.9553 208.039 72.1115 207.727 72.2365C207.414 72.3615 207.086 72.424 206.742 72.424C206.07 72.424 205.578 72.1974 205.266 71.7443C204.953 71.2912 204.797 70.7678 204.797 70.174C204.797 69.7834 204.805 69.4553 204.82 69.1896C204.852 68.924 204.914 68.5803 205.008 68.1584C204.836 68.0021 204.688 67.8693 204.562 67.7599C204.438 67.6349 204.375 67.4709 204.375 67.2678C204.375 67.0803 204.414 66.9553 204.492 66.8928C204.586 66.8303 204.688 66.7912 204.797 66.7756C204.922 66.7443 205.039 66.7131 205.148 66.6818C205.258 66.6506 205.336 66.5881 205.383 66.4943C205.414 66.4006 205.469 66.2287 205.547 65.9787C205.641 65.7287 205.734 65.4709 205.828 65.2053C205.922 64.924 206.008 64.6662 206.086 64.4318C206.18 64.1818 206.242 64.0099 206.273 63.9162C206.383 63.6506 206.5 63.3849 206.625 63.1193C206.766 62.8381 206.922 62.5881 207.094 62.3693C207.281 62.1506 207.492 61.9709 207.727 61.8303C207.977 61.6896 208.266 61.6193 208.594 61.6193C208.781 61.6193 209.008 61.7053 209.273 61.8771C209.555 62.049 209.82 62.2599 210.07 62.5099C210.32 62.7443 210.531 62.9943 210.703 63.2599C210.875 63.5256 210.961 63.7521 210.961 63.9396C210.961 64.174 210.906 64.3928 210.797 64.5959C210.688 64.7834 210.547 64.9631 210.375 65.1349C210.219 65.2912 210.047 65.4396 209.859 65.5803C209.672 65.7209 209.5 65.8537 209.344 65.9787C209.328 65.9787 209.297 65.9943 209.25 66.0256C209.203 66.0568 209.164 66.0803 209.133 66.0959C209.117 66.1115 209.078 66.1506 209.016 66.2131C208.969 66.2599 208.914 66.3146 208.852 66.3771C208.789 66.4396 208.727 66.5021 208.664 66.5646C208.617 66.6271 208.586 66.6662 208.57 66.6818C208.523 66.7287 208.43 66.8068 208.289 66.9162C208.164 67.0099 208.023 67.1193 207.867 67.2443C207.711 67.3537 207.562 67.4631 207.422 67.5724C207.297 67.6662 207.211 67.7287 207.164 67.7599L207.07 67.9474C207.039 68.0099 207.008 68.1506 206.977 68.3693C206.961 68.5724 206.938 68.8068 206.906 69.0724C206.875 69.3381 206.844 69.6115 206.812 69.8928C206.797 70.1584 206.789 70.3771 206.789 70.549C206.789 70.5646 206.797 70.5803 206.812 70.5959C206.844 70.6271 206.867 70.6428 206.883 70.6428C207.008 70.6428 207.125 70.5881 207.234 70.4787C207.344 70.3693 207.461 70.2912 207.586 70.2443L211.336 66.7756L212.297 65.299C212.375 65.1896 212.523 65.0724 212.742 64.9474C212.977 64.8068 213.211 64.7365 213.445 64.7365C213.68 64.7209 213.883 64.7912 214.055 64.9474C214.242 65.1037 214.336 65.4084 214.336 65.8615ZM209.18 64.0334C209.258 63.9709 209.289 63.8771 209.273 63.7521C209.258 63.6271 209.211 63.5178 209.133 63.424C209.07 63.3303 208.984 63.2756 208.875 63.2599C208.766 63.2287 208.664 63.2834 208.57 63.424C208.523 63.4865 208.438 63.6115 208.312 63.799C208.203 63.9865 208.086 64.1818 207.961 64.3849C207.852 64.5724 207.758 64.7365 207.68 64.8771C207.602 65.0178 207.586 65.0724 207.633 65.0412L209.18 64.0334ZM219.656 78.9631C219.625 78.6349 219.602 78.2365 219.586 77.7678C219.586 77.299 219.586 76.8068 219.586 76.2912C219.586 75.7756 219.586 75.2521 219.586 74.7209C219.602 74.1896 219.625 73.7053 219.656 73.2678V72.424C219.578 72.3146 219.484 72.2053 219.375 72.0959C219.266 71.9709 219.07 71.7365 218.789 71.3928C218.523 71.0334 218.141 70.5099 217.641 69.8224C217.141 69.1193 216.469 68.1428 215.625 66.8928C215.297 66.549 215.086 66.2678 214.992 66.049C214.898 65.8146 214.867 65.6271 214.898 65.4865C214.93 65.3459 215.008 65.2443 215.133 65.1818C215.273 65.1193 215.406 65.0881 215.531 65.0881C215.844 65.0881 216.125 65.1584 216.375 65.299C216.625 65.4396 216.852 65.6193 217.055 65.8381C217.258 66.0568 217.438 66.299 217.594 66.5646C217.766 66.8146 217.93 67.0568 218.086 67.2912C218.18 67.4318 218.297 67.6115 218.438 67.8303C218.578 68.049 218.719 68.2678 218.859 68.4865C219 68.6896 219.117 68.8693 219.211 69.0256C219.32 69.1818 219.375 69.2599 219.375 69.2599L219.656 69.5646V67.1037C219.656 66.3224 219.641 65.5646 219.609 64.8303C219.578 64.0803 219.562 63.3224 219.562 62.5568C219.562 62.3381 219.641 62.1584 219.797 62.0178C219.953 61.8771 220.141 61.8146 220.359 61.8303C220.625 61.8615 220.82 61.9084 220.945 61.9709C221.086 62.0334 221.227 62.1584 221.367 62.3459C221.492 62.5178 221.547 62.7209 221.531 62.9553C221.531 63.1896 221.539 63.4162 221.555 63.6349C221.617 65.1193 221.664 66.6037 221.695 68.0881C221.742 69.5568 221.766 71.0334 221.766 72.5178C221.75 72.6584 221.742 72.9396 221.742 73.3615C221.742 73.799 221.742 74.2912 221.742 74.8381C221.758 75.3849 221.766 75.9553 221.766 76.549C221.781 77.1428 221.789 77.6818 221.789 78.1662C221.805 78.6662 221.812 79.0724 221.812 79.3849C221.828 79.7131 221.844 79.8693 221.859 79.8537C221.859 80.0881 221.773 80.2599 221.602 80.3693C221.445 80.4787 221.25 80.5334 221.016 80.5334C220.703 80.5334 220.469 80.4865 220.312 80.3928C220.172 80.3146 220.062 80.1974 219.984 80.0412C219.906 79.9006 219.852 79.7365 219.82 79.549C219.789 79.3615 219.734 79.1662 219.656 78.9631ZM223.055 64.6896V64.6428C223.055 64.5178 223.094 64.3928 223.172 64.2678C223.266 64.1271 223.359 64.0099 223.453 63.9162V62.7209C223.453 61.424 223.43 60.1584 223.383 58.924C223.352 57.6896 223.273 56.4162 223.148 55.1037C223.148 54.9006 223.219 54.7521 223.359 54.6584C223.5 54.549 223.648 54.4943 223.805 54.4943C224.242 54.4162 224.57 54.5178 224.789 54.799C225.023 55.0803 225.188 55.4631 225.281 55.9474C225.375 56.4318 225.422 56.9787 225.422 57.5881C225.422 58.1818 225.406 58.7599 225.375 59.3224C225.359 59.8849 225.352 60.3849 225.352 60.8224C225.352 61.2599 225.406 61.5568 225.516 61.7131C225.719 61.6349 225.82 61.6037 225.82 61.6193C225.836 61.6193 225.836 61.6271 225.82 61.6428C225.82 61.6428 225.836 61.6271 225.867 61.5959C225.914 61.549 226.062 61.4318 226.312 61.2443C226.656 60.9787 227.055 60.8146 227.508 60.7521C227.977 60.674 228.414 60.6349 228.82 60.6349C229.773 60.7756 230.438 61.0724 230.812 61.5256C231.188 61.9631 231.352 62.5099 231.305 63.1662C231.258 63.8068 231.031 64.5256 230.625 65.3224C230.234 66.1037 229.742 66.9162 229.148 67.7599C228.555 68.5881 227.898 69.4162 227.18 70.2443C226.461 71.0568 225.766 71.8224 225.094 72.5412C224.953 72.5412 224.789 72.5178 224.602 72.4709C224.43 72.424 224.266 72.3537 224.109 72.2599C223.953 72.1662 223.82 72.049 223.711 71.9084C223.602 71.7678 223.547 71.6037 223.547 71.4162V65.299L223.055 64.6896ZM225.516 66.4943C225.516 66.5412 225.516 66.6506 225.516 66.8224C225.531 66.9943 225.547 67.1818 225.562 67.3849C225.578 67.5724 225.586 67.7521 225.586 67.924C225.602 68.0959 225.609 68.2053 225.609 68.2521C225.609 68.299 225.609 68.3849 225.609 68.5099C225.609 68.6193 225.609 68.7443 225.609 68.8849C225.625 69.0099 225.633 69.1349 225.633 69.2599C225.633 69.3693 225.633 69.4474 225.633 69.4943C225.805 69.4631 226.047 69.2443 226.359 68.8381C226.672 68.4318 226.992 67.9631 227.32 67.4318C227.648 66.8849 227.953 66.3381 228.234 65.7912C228.516 65.2443 228.727 64.8146 228.867 64.5021C228.93 64.3459 228.992 64.1584 229.055 63.9396C229.117 63.7209 229.156 63.5021 229.172 63.2834C229.203 63.049 229.188 62.8381 229.125 62.6506C229.078 62.4631 228.969 62.3146 228.797 62.2053C228.516 62.2053 228.211 62.2756 227.883 62.4162C227.57 62.5568 227.258 62.7365 226.945 62.9553C226.648 63.174 226.375 63.4162 226.125 63.6818C225.891 63.9318 225.719 64.174 225.609 64.4084C225.594 64.4865 225.578 64.6271 225.562 64.8303C225.562 65.0178 225.555 65.2209 225.539 65.4396C225.539 65.6584 225.531 65.8693 225.516 66.0724C225.516 66.2756 225.516 66.4162 225.516 66.4943ZM237.445 65.9787C237.305 66.2287 237.141 66.5334 236.953 66.8928C236.781 67.2365 236.594 67.6115 236.391 68.0178C236.188 68.4084 235.961 68.8068 235.711 69.2131C235.477 69.6037 235.227 69.9631 234.961 70.2912C234.711 70.6193 234.445 70.9006 234.164 71.1349C233.883 71.3537 233.594 71.4865 233.297 71.5334C233.172 71.5334 233.031 71.5256 232.875 71.5099C232.719 71.4787 232.562 71.4396 232.406 71.3928C232.25 71.3303 232.117 71.2521 232.008 71.1584C231.914 71.049 231.867 70.9084 231.867 70.7365C231.883 69.1428 232 67.6974 232.219 66.4006C232.438 65.0881 232.781 63.9396 233.25 62.9553C233.719 61.9553 234.32 61.1271 235.055 60.4709C235.789 59.8146 236.68 59.3459 237.727 59.0646C237.758 59.0646 237.812 59.0646 237.891 59.0646C237.984 59.049 238.047 59.0412 238.078 59.0412C238.547 59.0256 238.883 59.2443 239.086 59.6974C239.305 60.1349 239.461 60.8381 239.555 61.8068C239.664 62.7599 239.734 63.9943 239.766 65.5099C239.812 67.0099 239.898 68.8146 240.023 70.924C240.07 71.0959 240.094 71.2443 240.094 71.3693C240.109 71.4943 240.117 71.6428 240.117 71.8146C240.117 72.049 240.047 72.2287 239.906 72.3537C239.766 72.4631 239.586 72.5178 239.367 72.5178C238.914 72.5178 238.594 72.3928 238.406 72.1428C238.219 71.8928 238.094 71.5568 238.031 71.1349C238.031 71.1193 238.016 70.9943 237.984 70.7599C237.969 70.5256 237.938 70.2599 237.891 69.9631C237.859 69.6506 237.828 69.3381 237.797 69.0256C237.766 68.7131 237.742 68.4553 237.727 68.2521V68.1584C237.695 68.0021 237.672 67.8068 237.656 67.5724C237.656 67.3381 237.641 67.1115 237.609 66.8928C237.578 66.6271 237.555 66.3615 237.539 66.0959L237.445 65.9787ZM236.93 61.3381C236.508 61.6506 236.094 62.0724 235.688 62.6037C235.281 63.1349 234.992 63.6506 234.82 64.1506C234.742 64.3849 234.656 64.7053 234.562 65.1115C234.469 65.5178 234.383 65.924 234.305 66.3303C234.242 66.7209 234.188 67.0881 234.141 67.4318C234.094 67.7599 234.07 67.9709 234.07 68.0646C234.086 68.0646 234.102 68.049 234.117 68.0178C234.148 67.9865 234.172 67.9631 234.188 67.9474C235.156 67.0099 235.836 66.0021 236.227 64.924C236.633 63.8303 236.867 62.6349 236.93 61.3381ZM244.875 71.6271C244.875 71.549 244.875 71.4787 244.875 71.4162C244.891 71.3537 244.93 71.2912 244.992 71.2287C245.18 70.9943 245.391 70.7521 245.625 70.5021C245.859 70.2365 246.086 69.9787 246.305 69.7287C246.523 69.4631 246.727 69.1896 246.914 68.9084C247.102 68.6271 247.258 68.3459 247.383 68.0646V67.924L244.312 68.5568H243.961C243.742 68.5568 243.469 68.5412 243.141 68.5099C242.828 68.4787 242.516 68.4162 242.203 68.3224C241.906 68.2131 241.648 68.0646 241.43 67.8771C241.227 67.6896 241.125 67.4396 241.125 67.1271C241.141 66.7678 241.328 66.3693 241.688 65.9318C242.047 65.4943 242.469 65.0646 242.953 64.6428C243.438 64.2209 243.922 63.8303 244.406 63.4709C244.906 63.1115 245.305 62.8303 245.602 62.6271C245.93 62.4396 246.32 62.2912 246.773 62.1818C247.227 62.0568 247.641 61.9943 248.016 61.9943C248.328 61.9943 248.602 62.0568 248.836 62.1818C249.07 62.2912 249.188 62.5178 249.188 62.8615C249.188 63.0021 249.172 63.1349 249.141 63.2599C249.125 63.3849 249.031 63.4709 248.859 63.5178C248.359 63.4709 247.891 63.5099 247.453 63.6349C247.016 63.7443 246.602 63.9162 246.211 64.1506C245.82 64.3849 245.453 64.6662 245.109 64.9943C244.766 65.3068 244.43 65.6349 244.102 65.9787C244.008 66.0881 243.891 66.2443 243.75 66.4474C243.609 66.6349 243.539 66.7443 243.539 66.7756V66.799C243.945 66.799 244.344 66.7599 244.734 66.6818C245.141 66.6037 245.539 66.5256 245.93 66.4474C246.336 66.3537 246.734 66.2678 247.125 66.1896C247.531 66.1115 247.945 66.0724 248.367 66.0724C248.523 66.0724 248.695 66.0881 248.883 66.1193C249.07 66.1349 249.242 66.1818 249.398 66.2599C249.57 66.3381 249.703 66.4474 249.797 66.5881C249.906 66.7131 249.961 66.8771 249.961 67.0803C249.961 67.3771 249.883 67.6662 249.727 67.9474C249.586 68.2131 249.367 68.5412 249.07 68.9318C248.789 69.3068 248.422 69.7678 247.969 70.3146C247.531 70.8615 247.008 71.5646 246.398 72.424C246.367 72.4709 246.289 72.5021 246.164 72.5178C246.055 72.5334 245.961 72.5412 245.883 72.5412C245.664 72.5412 245.438 72.4474 245.203 72.2599C244.984 72.0724 244.875 71.8615 244.875 71.6271ZM260.789 65.8615C260.758 66.1428 260.719 66.3615 260.672 66.5178C260.641 66.674 260.578 66.8146 260.484 66.9396C260.391 67.0646 260.258 67.1974 260.086 67.3381C259.914 67.4631 259.68 67.6506 259.383 67.9006C259.086 68.1349 258.719 68.4474 258.281 68.8381C257.844 69.2287 257.312 69.7365 256.688 70.3615C256.438 70.5959 256.18 70.8381 255.914 71.0881C255.648 71.3381 255.367 71.5646 255.07 71.7678C254.789 71.9553 254.492 72.1115 254.18 72.2365C253.867 72.3615 253.539 72.424 253.195 72.424C252.523 72.424 252.031 72.1974 251.719 71.7443C251.406 71.2912 251.25 70.7678 251.25 70.174C251.25 69.7834 251.258 69.4553 251.273 69.1896C251.305 68.924 251.367 68.5803 251.461 68.1584C251.289 68.0021 251.141 67.8693 251.016 67.7599C250.891 67.6349 250.828 67.4709 250.828 67.2678C250.828 67.0803 250.867 66.9553 250.945 66.8928C251.039 66.8303 251.141 66.7912 251.25 66.7756C251.375 66.7443 251.492 66.7131 251.602 66.6818C251.711 66.6506 251.789 66.5881 251.836 66.4943C251.867 66.4006 251.922 66.2287 252 65.9787C252.094 65.7287 252.188 65.4709 252.281 65.2053C252.375 64.924 252.461 64.6662 252.539 64.4318C252.633 64.1818 252.695 64.0099 252.727 63.9162C252.836 63.6506 252.953 63.3849 253.078 63.1193C253.219 62.8381 253.375 62.5881 253.547 62.3693C253.734 62.1506 253.945 61.9709 254.18 61.8303C254.43 61.6896 254.719 61.6193 255.047 61.6193C255.234 61.6193 255.461 61.7053 255.727 61.8771C256.008 62.049 256.273 62.2599 256.523 62.5099C256.773 62.7443 256.984 62.9943 257.156 63.2599C257.328 63.5256 257.414 63.7521 257.414 63.9396C257.414 64.174 257.359 64.3928 257.25 64.5959C257.141 64.7834 257 64.9631 256.828 65.1349C256.672 65.2912 256.5 65.4396 256.312 65.5803C256.125 65.7209 255.953 65.8537 255.797 65.9787C255.781 65.9787 255.75 65.9943 255.703 66.0256C255.656 66.0568 255.617 66.0803 255.586 66.0959C255.57 66.1115 255.531 66.1506 255.469 66.2131C255.422 66.2599 255.367 66.3146 255.305 66.3771C255.242 66.4396 255.18 66.5021 255.117 66.5646C255.07 66.6271 255.039 66.6662 255.023 66.6818C254.977 66.7287 254.883 66.8068 254.742 66.9162C254.617 67.0099 254.477 67.1193 254.32 67.2443C254.164 67.3537 254.016 67.4631 253.875 67.5724C253.75 67.6662 253.664 67.7287 253.617 67.7599L253.523 67.9474C253.492 68.0099 253.461 68.1506 253.43 68.3693C253.414 68.5724 253.391 68.8068 253.359 69.0724C253.328 69.3381 253.297 69.6115 253.266 69.8928C253.25 70.1584 253.242 70.3771 253.242 70.549C253.242 70.5646 253.25 70.5803 253.266 70.5959C253.297 70.6271 253.32 70.6428 253.336 70.6428C253.461 70.6428 253.578 70.5881 253.688 70.4787C253.797 70.3693 253.914 70.2912 254.039 70.2443L257.789 66.7756L258.75 65.299C258.828 65.1896 258.977 65.0724 259.195 64.9474C259.43 64.8068 259.664 64.7365 259.898 64.7365C260.133 64.7209 260.336 64.7912 260.508 64.9474C260.695 65.1037 260.789 65.4084 260.789 65.8615ZM255.633 64.0334C255.711 63.9709 255.742 63.8771 255.727 63.7521C255.711 63.6271 255.664 63.5178 255.586 63.424C255.523 63.3303 255.438 63.2756 255.328 63.2599C255.219 63.2287 255.117 63.2834 255.023 63.424C254.977 63.4865 254.891 63.6115 254.766 63.799C254.656 63.9865 254.539 64.1818 254.414 64.3849C254.305 64.5724 254.211 64.7365 254.133 64.8771C254.055 65.0178 254.039 65.0724 254.086 65.0412L255.633 64.0334ZM261.305 71.7209C261.305 71.5646 261.359 71.4162 261.469 71.2756C261.594 71.1349 261.711 71.0178 261.82 70.924H262.195C262.461 70.924 262.68 70.9865 262.852 71.1115C263.039 71.2209 263.133 71.4162 263.133 71.6974C263.133 71.7912 263.102 71.8928 263.039 72.0021C262.977 72.0959 262.891 72.1896 262.781 72.2834C262.688 72.3615 262.578 72.424 262.453 72.4709C262.328 72.5178 262.211 72.5334 262.102 72.5178C261.945 72.4865 261.773 72.3928 261.586 72.2365C261.398 72.0803 261.305 71.9084 261.305 71.7209ZM261.305 63.9162C261.305 63.7443 261.305 63.5959 261.305 63.4709C261.32 63.3303 261.359 63.174 261.422 63.0021V54.9865C261.422 54.9396 261.453 54.8928 261.516 54.8459C261.594 54.7834 261.672 54.7287 261.75 54.6818C261.844 54.6349 261.93 54.5959 262.008 54.5646C262.102 54.5334 262.164 54.5178 262.195 54.5178C262.461 54.5178 262.656 54.6115 262.781 54.799C262.922 54.9865 263.031 55.1818 263.109 55.3849C263.109 55.5099 263.102 55.7209 263.086 56.0178C263.086 56.299 263.086 56.6037 263.086 56.9318C263.086 57.2443 263.086 57.549 263.086 57.8459C263.102 58.1428 263.109 58.3459 263.109 58.4553C263.109 58.5334 263.109 58.7053 263.109 58.9709C263.125 59.2209 263.141 59.5021 263.156 59.8146C263.172 60.1115 263.18 60.3928 263.18 60.6584C263.195 60.924 263.203 61.0881 263.203 61.1506C263.203 61.2287 263.195 61.3928 263.18 61.6428C263.18 61.8928 263.172 62.1662 263.156 62.4631C263.156 62.7443 263.148 63.0256 263.133 63.3068C263.117 63.5881 263.109 63.7912 263.109 63.9162C263.078 64.1974 263 64.4474 262.875 64.6662C262.75 64.8849 262.523 64.9943 262.195 64.9943C261.852 64.9943 261.617 64.9006 261.492 64.7131C261.367 64.5256 261.305 64.2599 261.305 63.9162Z" fill="#FF0000"/>
<path d="M36.5004 27.5177L37.5195 28.6183L36.5004 27.5177ZM69.4334 5.96066C69.6781 5.16917 69.2348 4.32923 68.4433 4.08459L55.5453 0.0979747C54.7538 -0.146664 53.9139 0.29664 53.6693 1.08812C53.4246 1.8796 53.8679 2.71954 54.6594 2.96418L66.1242 6.50785L62.5806 17.9727C62.3359 18.7642 62.7793 19.6041 63.5707 19.8487C64.3622 20.0934 65.2022 19.6501 65.4468 18.8586L69.4334 5.96066ZM23.0003 49.5177C24.5003 49.5177 24.5003 49.5187 24.5003 49.5197C24.5003 49.5199 24.5003 49.5209 24.5003 49.5214C24.5003 49.5225 24.5003 49.5235 24.5003 49.5243C24.5003 49.5259 24.5003 49.527 24.5003 49.5275C24.5003 49.5285 24.5003 49.5272 24.5003 49.5237C24.5005 49.5167 24.5009 49.5007 24.5021 49.476C24.5043 49.4264 24.5093 49.3418 24.5203 49.2237C24.5422 48.9874 24.588 48.6167 24.6837 48.124C24.875 47.1393 25.2661 45.6637 26.0665 43.7961C27.6652 40.0658 30.9122 34.7362 37.5195 28.6183L35.4812 26.417C28.5885 32.7992 25.0854 38.4696 23.3091 42.6143C22.422 44.6842 21.9694 46.3648 21.7388 47.552C21.6235 48.1452 21.5639 48.6144 21.5331 48.9465C21.5177 49.1125 21.5095 49.2442 21.5052 49.34C21.503 49.3878 21.5018 49.4267 21.5011 49.4564C21.5008 49.4713 21.5006 49.4838 21.5005 49.494C21.5004 49.4991 21.5004 49.5037 21.5003 49.5076C21.5003 49.5096 21.5003 49.5114 21.5003 49.5131C21.5003 49.5139 21.5003 49.5151 21.5003 49.5155C21.5003 49.5166 21.5003 49.5177 23.0003 49.5177ZM37.5195 28.6183C44.1763 22.4546 51.9677 17.0096 58.1182 13.0957C61.1887 11.1417 63.8399 9.5758 65.7217 8.49942C66.6624 7.96133 67.4102 7.54587 67.9214 7.26573C68.177 7.12567 68.3733 7.01946 68.505 6.94868C68.5709 6.91329 68.6205 6.88677 68.6533 6.8693C68.6697 6.86056 68.6819 6.8541 68.6898 6.84992C68.6937 6.84783 68.6966 6.84631 68.6984 6.84537C68.6993 6.8449 68.6999 6.84457 68.7002 6.84439C68.7004 6.8443 68.7005 6.84427 68.7005 6.84422C68.7005 6.84423 68.7005 6.84427 68.0003 5.5177C67.3002 4.19112 67.3 4.19124 67.2997 4.19139C67.2995 4.19149 67.2991 4.19168 67.2987 4.19188C67.298 4.19227 67.297 4.19281 67.2957 4.1935C67.2931 4.19487 67.2894 4.19682 67.2846 4.19935C67.2751 4.2044 67.2613 4.21174 67.2432 4.22137C67.2071 4.24061 67.154 4.26895 67.0847 4.3062C66.9461 4.38068 66.7426 4.49078 66.4796 4.63489C65.9537 4.92311 65.1899 5.3475 64.2321 5.89535C62.317 6.99084 59.6245 8.58117 56.5075 10.5647C50.2831 14.5257 42.3244 20.0808 35.4812 26.417L37.5195 28.6183Z" fill="#FF0000"/>
</svg>
