<svg width="229" height="85" viewBox="0 0 229 85" fill="none" xmlns="http://www.w3.org/2000/svg">
<path d="M37.982 32.56C36.9954 32.56 36.502 31.5467 36.502 29.52C36.502 28.24 35.942 23.6667 34.822 15.8C33.7287 7.90667 33.0354 3.6 32.742 2.88C33.0887 2.24 33.5554 1.92 34.142 1.92C34.7554 1.92 35.3287 3.30667 35.862 6.08C36.3687 9.01333 36.7954 12.3733 37.142 16.16L37.422 19.4C37.582 21.2133 37.6754 22.1333 37.702 22.16L38.102 18.8L38.342 16.72C38.6887 13.68 38.9154 11.5333 39.022 10.28C39.1554 8.62667 39.222 7.49333 39.222 6.88V6.12C39.222 5.82667 39.3287 5.54666 39.542 5.28C39.7554 5.01333 39.9954 4.88 40.262 4.88C41.222 4.88 41.702 5.28 41.702 6.08V6.68C41.702 8.2 41.8487 9.84 42.142 11.6C42.462 13.3333 42.9154 15.4133 43.502 17.84C43.8754 19.2533 44.2487 20.9733 44.622 23C44.702 22.12 44.9554 19.9867 45.382 16.6C45.8087 13.5067 46.1154 10.88 46.302 8.72C46.5154 6.53333 46.622 4.49333 46.622 2.6C46.622 1.98667 46.7154 1.56 46.902 1.32C47.1154 1.05333 47.502 0.92 48.062 0.92C48.382 0.92 48.662 1.02667 48.902 1.24C49.1687 1.42667 49.302 1.68 49.302 2C49.302 2.29333 49.1687 2.6 48.902 2.92C48.902 4.84 48.7554 7.09333 48.462 9.68C48.1687 12.24 47.8087 14.68 47.382 17C46.9554 19.2667 46.5954 21.7067 46.302 24.32C46.0087 26.9067 45.862 29.1867 45.862 31.16C45.862 31.5867 45.7554 31.92 45.542 32.16C45.3554 32.4267 45.062 32.56 44.662 32.56C44.3687 32.56 44.022 32.0133 43.622 30.92C43.1154 29.4 42.4887 26.3733 41.742 21.84L41.022 17.16L40.662 14.56C40.3154 16.9867 40.0487 18.9467 39.862 20.44C39.702 21.9067 39.542 23.6533 39.382 25.68C39.1954 27.6267 39.102 29.5467 39.102 31.44C39.102 31.7067 38.982 31.96 38.742 32.2C38.5287 32.44 38.2754 32.56 37.982 32.56ZM55.6277 32.52C55.281 32.52 54.961 32.4 54.6677 32.16C54.401 31.92 54.2543 31.6267 54.2277 31.28V30.24V29.44C54.201 29.2 54.1877 28.92 54.1877 28.6C54.1877 28.04 54.1477 27.1867 54.0677 26.04L53.9877 23.48C53.9877 22.1733 54.0277 20.2267 54.1077 17.64C54.2143 15.32 54.2677 13.3733 54.2677 11.8C54.2677 11.4267 54.2277 10.8667 54.1477 10.12C54.0677 9.34667 54.0277 8.78667 54.0277 8.44C54.0277 6.54667 54.5877 5.6 55.7077 5.6C56.5877 5.6 57.601 5.77333 58.7477 6.12C59.921 6.46667 60.5077 6.88 60.5077 7.36C60.5077 7.62667 60.3877 7.88 60.1477 8.12C59.9343 8.33333 59.6677 8.50666 59.3477 8.64C58.2277 8.24 57.2143 7.97333 56.3077 7.84C56.3343 8.24 56.3477 8.81333 56.3477 9.56C56.3477 10.6267 56.3343 11.5867 56.3077 12.44C56.2277 13.72 56.1877 14.68 56.1877 15.32L56.3077 15.96L56.9477 15.92C57.161 15.8933 57.4277 15.88 57.7477 15.88C59.0277 15.88 59.6677 16.2533 59.6677 17C59.6677 17.2933 59.5477 17.5467 59.3077 17.76C59.0677 17.9467 58.761 18.04 58.3877 18.04C57.9077 18.04 57.5343 18.0133 57.2677 17.96H56.2677C56.321 18.6533 56.3477 19.6667 56.3477 21C56.3477 22.3333 56.3343 23.5333 56.3077 24.6C56.2277 26.2267 56.1877 27.44 56.1877 28.24C56.1877 29.7333 56.2143 30.48 56.2677 30.48L57.5877 30.44C58.041 30.4133 58.5877 30.4 59.2277 30.4C60.241 30.4 60.7477 30.72 60.7477 31.36C60.7477 31.7333 60.5743 32.0133 60.2277 32.2C59.9077 32.4133 59.5077 32.52 59.0277 32.52H55.6277ZM74.4595 32.08C73.9262 32.08 73.4595 31.96 73.0595 31.72C72.6862 31.48 72.4995 31.1467 72.4995 30.72C73.0862 30.1333 73.3795 28.5733 73.3795 26.04C73.3795 24.52 73.2595 22.3067 73.0195 19.4C72.7529 16.6267 72.6195 14.44 72.6195 12.84L72.6995 10.64C72.7262 10 72.7395 9.26667 72.7395 8.44C72.7395 7.69333 72.6062 6.74667 72.3395 5.6C72.0195 4.4 71.8595 3.56 71.8595 3.08C71.8595 2.14667 72.8862 1.68 74.9395 1.68H75.5395C76.9795 1.68 78.2329 2.12 79.2995 3C80.1529 3.74667 80.8729 4.82667 81.4595 6.24C81.8595 7.2 82.2062 8.53333 82.4995 10.24C82.6595 11.7333 82.7395 12.9067 82.7395 13.76V15.04V16.92C82.6862 17.0267 82.6595 17.1333 82.6595 17.24C82.6595 17.4533 82.6729 17.6133 82.6995 17.72C82.7262 17.8267 82.7395 17.96 82.7395 18.12C82.7395 18.9733 82.6062 20 82.3395 21.2C82.0995 22.3733 81.7395 23.5733 81.2595 24.8C80.0595 27.7333 78.7129 29.8133 77.2195 31.04C76.3395 31.7333 75.4195 32.08 74.4595 32.08ZM75.2995 29.76C76.2862 29.1467 77.1529 28.2667 77.8995 27.12C78.6462 25.9467 79.2195 24.6533 79.6195 23.24C80.3395 20.6267 80.6995 17.9867 80.6995 15.32C80.6995 13.88 80.5662 12.3067 80.2995 10.6C80.0062 8.94667 79.3795 7.45333 78.4195 6.12C77.9662 5.48 77.3929 4.98667 76.6995 4.64C76.0062 4.26667 75.2195 4.08 74.3395 4.08V4.12C74.3395 6.52 74.4995 10.1467 74.8195 15C75.1395 19.8267 75.2995 23.48 75.2995 25.96V29.76ZM92.2958 32.76C91.6024 32.76 90.9624 32.5333 90.3758 32.08C89.7891 31.6533 89.3091 31.0667 88.9358 30.32C88.1624 28.6933 87.6824 26.92 87.4958 25C87.2558 23.1867 87.1358 21.44 87.1358 19.76C87.1358 19.44 87.1491 19.1733 87.1758 18.96V18.24C87.1758 18.1067 87.1624 18.04 87.1358 18.04V17.32L87.1758 14.52C87.2024 13.6667 87.3091 12.3067 87.4958 10.44C87.6291 9.16 87.9358 7.92 88.4158 6.72C88.6024 6.18667 88.8424 5.78667 89.1358 5.52C89.4291 5.22666 89.7624 5.08 90.1358 5.08C91.2024 5.08 92.1624 5.28 93.0158 5.68C93.8691 6.05333 94.5891 6.58666 95.1758 7.28C95.7091 7.94666 96.1624 8.77333 96.5358 9.76C96.9091 10.72 97.1758 11.7467 97.3358 12.84C97.4958 13.96 97.5758 15.1467 97.5758 16.4V16.72C97.5758 17.5467 97.5891 18.2933 97.6158 18.96L97.6558 21.24C97.6558 28.92 95.8691 32.76 92.2958 32.76ZM92.1358 31.08C92.6158 31.08 93.0558 30.8933 93.4558 30.52C93.8558 30.12 94.1624 29.5867 94.3758 28.92C94.8824 27.56 95.1891 26.0933 95.2958 24.52C95.4291 23.16 95.4958 21.9867 95.4958 21C95.4958 19.8 95.4024 18.2267 95.2158 16.28C95.0558 14.2267 94.9758 12.6933 94.9758 11.68V10.96C94.9224 9.94667 94.5758 9.06667 93.9358 8.32C93.3224 7.57333 92.5624 7.2 91.6558 7.2C90.7491 7.2 90.1491 7.72 89.8558 8.76C89.5891 9.58667 89.4558 10.6533 89.4558 11.96C89.4558 12.4667 89.4691 12.8933 89.4958 13.24V14.32L89.4158 16.16C89.3624 16.72 89.3358 17.3333 89.3358 18C89.3358 19.44 89.3758 20.8667 89.4558 22.28C89.5624 24.28 89.8291 26.2267 90.2558 28.12C90.6824 30.0933 91.3091 31.08 92.1358 31.08ZM112.95 32.12C112.63 32.12 112.39 32.04 112.23 31.88C112.07 31.6933 111.95 31.3867 111.87 30.96L111.63 30.2V30.12V30C111.63 29.12 110.71 26.12 108.87 21C107.057 15.88 105.63 12.0933 104.59 9.64V29.76L104.75 30.04C104.777 30.0933 104.83 30.1867 104.91 30.32C104.99 30.4533 105.03 30.5867 105.03 30.72C105.03 31.0667 104.91 31.36 104.67 31.6C104.43 31.84 104.137 31.96 103.79 31.96C102.937 31.96 102.51 31.1467 102.51 29.52L102.47 22.68C102.443 20.6267 102.43 18.3333 102.43 15.8C102.43 14.9467 102.47 13.7067 102.55 12.08C102.63 10.4 102.67 9.16 102.67 8.36C102.67 7.10667 103.15 6.12 104.11 5.4V5.64C104.27 5.58667 104.377 5.56 104.43 5.56C105.043 5.56 105.817 6.62667 106.75 8.76C107.497 10.4667 108.163 12.2667 108.75 14.16C109.363 16.0533 110.163 18.7467 111.15 22.24L111.55 23.68C112.163 25.84 112.63 27.3867 112.95 28.32C113.483 22.5867 113.75 15.8133 113.75 8V7.48C113.723 7.32 113.71 7.14667 113.71 6.96C113.71 6.16 114.03 5.76 114.67 5.76C115.043 5.76 115.323 5.90667 115.51 6.2C115.723 6.49333 115.83 6.86667 115.83 7.32V10.32C115.777 14.4267 115.617 18.88 115.35 23.68C115.083 28.48 114.763 31.1867 114.39 31.8C113.617 32.0133 113.137 32.12 112.95 32.12ZM122.89 10.88C122.677 10.8267 122.57 10.5867 122.57 10.16C122.57 9.6 122.717 8.64 123.01 7.28C123.304 5.92 123.704 4.62667 124.21 3.4C124.744 2.04 125.29 1.36 125.85 1.36C126.33 1.36 126.57 1.65333 126.57 2.24C126.57 3.36 126.37 4.61333 125.97 6C125.597 7.36 125.117 8.52 124.53 9.48C123.917 10.4133 123.37 10.88 122.89 10.88ZM134.973 31.36L134.933 29.8C134.906 29.3467 134.893 28.84 134.893 28.28L134.933 26.92C134.853 26.6267 134.653 23.7067 134.333 18.16C134.013 12.6133 133.826 9.05333 133.773 7.48C132.226 7.42667 131.24 7.26667 130.813 7C130.52 6.78667 130.373 6.54667 130.373 6.28C130.373 6.06667 130.506 5.88 130.773 5.72C131.066 5.53333 131.36 5.44 131.653 5.44C132.4 5.44 133.306 5.49333 134.373 5.6C135.386 5.73333 136.293 5.8 137.093 5.8H137.413H137.733C138.56 5.8 138.973 6.12 138.973 6.76C138.973 7.08 138.84 7.34667 138.573 7.56C138.306 7.74667 138 7.84 137.653 7.84C137.413 7.84 137.066 7.8 136.613 7.72L135.813 7.56L135.773 7.76L135.733 7.96C135.733 10.3333 135.96 14.12 136.413 19.32C136.84 24.2 137.053 27.9867 137.053 30.68C137.053 31 136.906 31.28 136.613 31.52C136.346 31.76 136.04 31.88 135.693 31.88L134.973 31.36ZM157.232 32.6C156.885 32.6 156.619 32.4667 156.432 32.2C156.272 31.96 156.192 31.6533 156.192 31.28C156.192 25.7067 156.085 21 155.872 17.16C155.232 17.0533 154.779 17 154.512 17C153.419 17 152.632 17.0933 152.152 17.28C152.152 18.7733 152.272 21.0267 152.512 24.04C152.725 27.24 152.832 29.5067 152.832 30.84C152.832 31.1067 152.752 31.36 152.592 31.6C152.432 31.8133 152.232 31.92 151.992 31.92C151.645 31.92 151.325 31.3067 151.032 30.08C150.605 28.2667 150.259 24.4667 149.992 18.68C149.805 14.76 149.712 10.5467 149.712 6.04C149.685 5.21333 149.672 4.04 149.672 2.52C149.672 2.04 149.899 1.8 150.352 1.8C150.619 1.8 150.885 1.86666 151.152 2C151.445 2.13333 151.659 2.28 151.792 2.44C151.685 3.29333 151.632 4.29333 151.632 5.44C151.632 6.56 151.685 7.92 151.792 9.52C151.872 11.36 151.912 12.7467 151.912 13.68V14.4C151.885 14.6133 151.872 14.8667 151.872 15.16C151.872 15.4267 151.899 15.7733 151.952 16.2C152.112 16.2 152.379 16.1867 152.752 16.16C153.125 16.1333 153.499 16.0933 153.872 16.04C154.752 15.96 155.405 15.92 155.832 15.92C155.832 13.6 155.805 11.4533 155.752 9.48L155.672 2.8V1.72C156.019 1.72 156.325 1.78667 156.592 1.92C156.859 2.02667 157.059 2.17333 157.192 2.36C157.432 2.65333 157.579 3.16 157.632 3.88V4.8C157.632 7.09333 157.765 11.48 158.032 17.96C158.272 23.8267 158.392 28.2267 158.392 31.16C158.392 31.5333 158.272 31.8667 158.032 32.16C157.819 32.4533 157.552 32.6 157.232 32.6ZM171.355 32.36C170.742 32.36 170.288 32.2667 169.995 32.08C169.702 31.8933 169.555 31.5467 169.555 31.04C169.555 30.24 169.422 28.88 169.155 26.96L168.995 26.12L165.035 25.52C164.875 26.1333 164.648 27.3733 164.355 29.24C164.195 30.5467 163.942 31.4133 163.595 31.84C163.408 32.08 163.142 32.2 162.795 32.2C162.475 32.2 162.182 32.1067 161.915 31.92C161.648 31.7067 161.515 31.4533 161.515 31.16L161.595 30.96L161.635 30.8C163.395 23.9467 164.728 17.1867 165.635 10.52C165.635 10.4133 165.648 10.24 165.675 10C165.702 9.73333 165.728 9.36 165.755 8.88C165.835 7.89333 165.915 7.10667 165.995 6.52C166.102 5.93333 166.262 5.49333 166.475 5.2H167.835C168.208 5.2 168.528 5.29333 168.795 5.48C169.062 5.64 169.195 5.88 169.195 6.2C169.195 8.22667 169.475 11.24 170.035 15.24C170.568 19.3467 170.835 22.2267 170.835 23.88C170.835 24.04 170.902 24.4533 171.035 25.12C171.168 25.7333 171.235 26.1333 171.235 26.32C171.235 26.5067 171.368 27.3067 171.635 28.72C171.875 30 171.995 30.8267 171.995 31.2V31.24C171.995 31.8267 171.782 32.2 171.355 32.36ZM168.715 24.68C168.635 24.28 168.595 23.7867 168.595 23.2C168.595 20.8 168.382 17.7333 167.955 14L167.555 9.84C166.408 16.1067 165.622 20.84 165.195 24.04C165.595 24.3067 166.768 24.52 168.715 24.68ZM178.508 31.88C178.508 28.8133 178.215 25.64 177.628 22.36C177.068 19.08 176.175 15.0667 174.948 10.32C174.895 10.0533 174.775 9.64 174.588 9.08C174.108 7.58667 173.868 6.64 173.868 6.24C173.868 6 173.962 5.78666 174.148 5.6C174.362 5.41333 174.588 5.32 174.828 5.32C175.228 5.32 175.602 5.65333 175.948 6.32C176.295 6.96 176.615 7.82667 176.908 8.92C177.202 9.98667 177.522 11.32 177.868 12.92C178.188 14.44 178.575 16.7733 179.028 19.92L179.268 21.48L179.748 25.04C179.855 26.0267 179.948 26.7333 180.028 27.16C180.588 24.2267 181.308 19.9867 182.188 14.44C182.908 9.69333 183.415 6.45333 183.708 4.72H184.588C184.828 4.72 185.042 4.81333 185.228 5C185.415 5.16 185.508 5.36 185.508 5.6C185.508 6.56 185.388 7.6 185.148 8.72C184.935 9.81333 184.602 11.1333 184.148 12.68C183.775 14.0133 183.522 15.0133 183.388 15.68C183.282 16.3467 183.175 17.4 183.068 18.84C182.855 22.0667 182.522 24.96 182.068 27.52C181.775 29.0667 181.388 30.28 180.908 31.16C180.428 32.04 179.882 32.48 179.268 32.48L178.508 31.88ZM191.331 32.52C190.984 32.52 190.664 32.4 190.371 32.16C190.104 31.92 189.957 31.6267 189.931 31.28V30.24V29.44C189.904 29.2 189.891 28.92 189.891 28.6C189.891 28.04 189.851 27.1867 189.771 26.04L189.691 23.48C189.691 22.1733 189.731 20.2267 189.811 17.64C189.917 15.32 189.971 13.3733 189.971 11.8C189.971 11.4267 189.931 10.8667 189.851 10.12C189.771 9.34667 189.731 8.78667 189.731 8.44C189.731 6.54667 190.291 5.6 191.411 5.6C192.291 5.6 193.304 5.77333 194.451 6.12C195.624 6.46667 196.211 6.88 196.211 7.36C196.211 7.62667 196.091 7.88 195.851 8.12C195.637 8.33333 195.371 8.50666 195.051 8.64C193.931 8.24 192.917 7.97333 192.011 7.84C192.037 8.24 192.051 8.81333 192.051 9.56C192.051 10.6267 192.037 11.5867 192.011 12.44C191.931 13.72 191.891 14.68 191.891 15.32L192.011 15.96L192.651 15.92C192.864 15.8933 193.131 15.88 193.451 15.88C194.731 15.88 195.371 16.2533 195.371 17C195.371 17.2933 195.251 17.5467 195.011 17.76C194.771 17.9467 194.464 18.04 194.091 18.04C193.611 18.04 193.237 18.0133 192.971 17.96H191.971C192.024 18.6533 192.051 19.6667 192.051 21C192.051 22.3333 192.037 23.5333 192.011 24.6C191.931 26.2267 191.891 27.44 191.891 28.24C191.891 29.7333 191.917 30.48 191.971 30.48L193.291 30.44C193.744 30.4133 194.291 30.4 194.931 30.4C195.944 30.4 196.451 30.72 196.451 31.36C196.451 31.7333 196.277 32.0133 195.931 32.2C195.611 32.4133 195.211 32.52 194.731 32.52H191.331ZM5.4 82.28C5 82.28 4.68 82.0933 4.44 81.72C4.22667 81.32 4.12 80.84 4.12 80.28C4.12 79.4 4.17333 78.32 4.28 77.04L4.36 76L4.44 73.88C4.44 72.9467 4.34667 70.8667 4.16 67.64C3.97333 64.4133 3.88 62.3333 3.88 61.4C3.88 61.32 3.88 61.1733 3.88 60.96C3.90667 60.72 3.92 60.36 3.92 59.88C3.94667 59.3467 3.96 58.6933 3.96 57.92C3.96 55.9733 3.82667 54.7333 3.56 54.2C3.4 54.2 3.05333 54.24 2.52 54.32L1.4 54.4C1.05333 54.4 0.746667 54.3067 0.48 54.12C0.213333 53.9067 0.08 53.64 0.08 53.32C0.08 53 0.4 52.72 1.04 52.48C1.97333 52.16 3.56 51.9333 5.8 51.8C6.70667 51.7467 7.25333 51.72 7.44 51.72C7.76 51.72 8.05333 51.8267 8.32 52.04C8.58667 52.2533 8.72 52.52 8.72 52.84C8.72 53.16 8.6 53.4267 8.36 53.64C8.14667 53.8267 7.86667 53.92 7.52 53.92L6.8 53.88C6.58667 53.8533 6.34667 53.84 6.08 53.84H5.68C5.86667 55.6533 5.96 57.2933 5.96 58.76L5.92 61.32C5.89333 62.0933 5.88 62.96 5.88 63.92C5.88 65.2 5.93333 66.7333 6.04 68.52C6.17333 70.7333 6.24 72.2667 6.24 73.12C6.24 74.1333 6.29333 75.3333 6.4 76.72C6.50667 78.1333 6.56 79.3333 6.56 80.32C6.56 81.6267 6.17333 82.28 5.4 82.28ZM14.7488 82.52C14.4021 82.52 14.0821 82.4 13.7888 82.16C13.5221 81.92 13.3754 81.6267 13.3488 81.28V80.24V79.44C13.3221 79.2 13.3088 78.92 13.3088 78.6C13.3088 78.04 13.2688 77.1867 13.1888 76.04L13.1087 73.48C13.1087 72.1733 13.1488 70.2267 13.2288 67.64C13.3354 65.32 13.3888 63.3733 13.3888 61.8C13.3888 61.4267 13.3488 60.8667 13.2688 60.12C13.1888 59.3467 13.1488 58.7867 13.1488 58.44C13.1488 56.5467 13.7088 55.6 14.8288 55.6C15.7088 55.6 16.7221 55.7733 17.8688 56.12C19.0421 56.4667 19.6288 56.88 19.6288 57.36C19.6288 57.6267 19.5088 57.88 19.2688 58.12C19.0554 58.3333 18.7888 58.5067 18.4688 58.64C17.3488 58.24 16.3354 57.9733 15.4288 57.84C15.4554 58.24 15.4688 58.8133 15.4688 59.56C15.4688 60.6267 15.4554 61.5867 15.4288 62.44C15.3488 63.72 15.3088 64.68 15.3088 65.32L15.4288 65.96L16.0688 65.92C16.2821 65.8933 16.5488 65.88 16.8688 65.88C18.1488 65.88 18.7888 66.2533 18.7888 67C18.7888 67.2933 18.6688 67.5467 18.4288 67.76C18.1888 67.9467 17.8821 68.04 17.5088 68.04C17.0288 68.04 16.6554 68.0133 16.3888 67.96H15.3888C15.4421 68.6533 15.4688 69.6667 15.4688 71C15.4688 72.3333 15.4554 73.5333 15.4288 74.6C15.3488 76.2267 15.3088 77.44 15.3088 78.24C15.3088 79.7333 15.3354 80.48 15.3888 80.48L16.7088 80.44C17.1621 80.4133 17.7088 80.4 18.3488 80.4C19.3621 80.4 19.8688 80.72 19.8688 81.36C19.8688 81.7333 19.6954 82.0133 19.3488 82.2C19.0288 82.4133 18.6288 82.52 18.1488 82.52H14.7488ZM30.4359 82.64C29.4759 82.32 28.2893 82.16 26.8759 82.16C26.4493 82.4267 25.9959 82.56 25.5159 82.56C25.1959 82.56 24.9159 82.4133 24.6759 82.12C24.4626 81.8533 24.3559 81.56 24.3559 81.24C24.3559 79 24.4493 76.0133 24.6359 72.28C24.7959 68.3067 24.8759 65.3333 24.8759 63.36V63.08C24.7159 61.4 24.6359 60.1467 24.6359 59.32C24.6359 56.7867 25.1026 55.52 26.0359 55.52C26.3026 55.52 26.5293 55.6267 26.7159 55.84C26.9293 56.0267 27.0359 56.2533 27.0359 56.52C27.0359 56.84 26.9959 57.3467 26.9159 58.04C26.8359 58.7067 26.7959 59.2133 26.7959 59.56C26.7959 61.3467 26.8093 62.96 26.8359 64.4C26.8626 65.8133 26.8759 67.4133 26.8759 69.2C26.7426 69.6 26.6759 70.16 26.6759 70.88V71.36L26.5959 74.52C26.5426 75.4533 26.5159 76.52 26.5159 77.72C26.5159 79.56 26.9559 80.48 27.8359 80.48C27.8893 80.48 27.9693 80.48 28.0759 80.48C28.2093 80.4533 28.3826 80.44 28.5959 80.44C28.8359 80.4133 29.1426 80.4 29.5159 80.4C30.9559 80.4 31.6759 80.8 31.6759 81.6C31.6759 81.8667 31.5559 82.0933 31.3159 82.28C31.0759 82.4667 30.7826 82.5867 30.4359 82.64ZM36.8191 82.52C36.4724 82.52 36.1524 82.4 35.8591 82.16C35.5924 81.92 35.4457 81.6267 35.4191 81.28V80.24V79.44C35.3924 79.2 35.3791 78.92 35.3791 78.6C35.3791 78.04 35.3391 77.1867 35.2591 76.04L35.1791 73.48C35.1791 72.1733 35.2191 70.2267 35.2991 67.64C35.4057 65.32 35.4591 63.3733 35.4591 61.8C35.4591 61.4267 35.4191 60.8667 35.3391 60.12C35.2591 59.3467 35.2191 58.7867 35.2191 58.44C35.2191 56.5467 35.7791 55.6 36.8991 55.6C37.7791 55.6 38.7924 55.7733 39.9391 56.12C41.1124 56.4667 41.6991 56.88 41.6991 57.36C41.6991 57.6267 41.5791 57.88 41.3391 58.12C41.1257 58.3333 40.8591 58.5067 40.5391 58.64C39.4191 58.24 38.4057 57.9733 37.4991 57.84C37.5257 58.24 37.5391 58.8133 37.5391 59.56C37.5391 60.6267 37.5257 61.5867 37.4991 62.44C37.4191 63.72 37.3791 64.68 37.3791 65.32L37.4991 65.96L38.1391 65.92C38.3524 65.8933 38.6191 65.88 38.9391 65.88C40.2191 65.88 40.8591 66.2533 40.8591 67C40.8591 67.2933 40.7391 67.5467 40.4991 67.76C40.2591 67.9467 39.9524 68.04 39.5791 68.04C39.0991 68.04 38.7257 68.0133 38.4591 67.96H37.4591C37.5124 68.6533 37.5391 69.6667 37.5391 71C37.5391 72.3333 37.5257 73.5333 37.4991 74.6C37.4191 76.2267 37.3791 77.44 37.3791 78.24C37.3791 79.7333 37.4057 80.48 37.4591 80.48L38.7791 80.44C39.2324 80.4133 39.7791 80.4 40.4191 80.4C41.4324 80.4 41.9391 80.72 41.9391 81.36C41.9391 81.7333 41.7657 82.0133 41.4191 82.2C41.0991 82.4133 40.6991 82.52 40.2191 82.52H36.8191ZM51.5463 82.32C50.7996 82.32 50.1196 82.1867 49.5063 81.92C48.8929 81.6267 48.3729 81.2533 47.9463 80.8C47.5996 80.4267 47.2796 79.88 46.9863 79.16C46.6929 78.44 46.4796 77.7467 46.3463 77.08C46.2129 76.5733 46.1063 75.84 46.0263 74.88C45.9463 73.92 45.8929 73.0933 45.8663 72.4V70.08V68.48C45.8663 66.9333 45.8929 65.6667 45.9463 64.68C45.9996 63.48 46.1729 62.2133 46.4663 60.88C46.7063 59.68 47.1196 58.6267 47.7063 57.72C48.2663 56.8133 49.0529 56.1867 50.0663 55.84C50.5463 55.6533 51.1063 55.56 51.7463 55.56C52.8929 55.56 53.4663 55.8933 53.4663 56.56C53.4663 56.88 53.3329 57.1467 53.0663 57.36C52.8263 57.5467 52.5329 57.64 52.1863 57.64C52.0263 57.64 51.8796 57.6267 51.7463 57.6C51.6396 57.5733 51.5063 57.56 51.3463 57.56C50.8929 57.56 50.4929 57.8 50.1463 58.28C49.7996 58.76 49.5063 59.4267 49.2663 60.28C48.8396 61.9333 48.5463 63.7333 48.3863 65.68C48.2796 67.4933 48.2263 68.84 48.2263 69.72C48.2263 70.6267 48.2663 71.8667 48.3463 73.44C48.4529 74.9067 48.6796 76.1867 49.0263 77.28C49.2129 77.92 49.4263 78.44 49.6663 78.84C49.9329 79.2133 50.2663 79.5333 50.6663 79.8C51.1196 80.0933 51.5863 80.24 52.0663 80.24C53.3463 80.24 53.9863 78.1067 53.9863 73.84V72C53.7996 71.92 53.4929 71.88 53.0663 71.88H52.7063H52.2663C51.3329 71.88 50.8663 71.5733 50.8663 70.96C50.8663 70.5867 50.9863 70.3067 51.2263 70.12C51.4929 69.9067 51.8263 69.8 52.2263 69.8V69.84H52.7863C55.1863 69.84 56.3863 70.2533 56.3863 71.08C56.3863 71.32 56.3196 71.8 56.1863 72.52C56.0263 73.16 55.9463 73.64 55.9463 73.96C55.9463 74.4133 55.9863 75.12 56.0663 76.08L56.1463 78.2C56.1463 79.48 55.6929 80.4933 54.7863 81.24C53.9063 81.96 52.8263 82.32 51.5463 82.32ZM67.1744 82.68C66.5877 82.68 66.0544 82.04 65.5744 80.76C65.0144 79.3733 64.601 77.9467 64.3344 76.48L64.0544 75.12C63.281 71.3067 62.7877 69.1333 62.5744 68.6H62.0944C62.0944 69.3733 62.081 70.08 62.0544 70.72V72.92C62.0544 76.4933 62.3077 79.28 62.8144 81.28L62.3744 82.36H61.2544L60.7344 81.76L60.7744 79.08C60.7744 76.68 60.6544 73.04 60.4144 68.16C60.201 62.96 60.0944 59.32 60.0944 57.24C60.0944 55.96 60.5344 55.32 61.4144 55.32C62.8544 55.32 64.0277 55.6933 64.9344 56.44C65.8677 57.1867 66.3344 58.2267 66.3344 59.56V62.36C66.3344 62.76 66.2677 63.2267 66.1344 63.76C66.001 64.2667 65.8544 64.68 65.6944 65L64.9344 66.44L64.2944 67.64L64.4944 68.6L65.0544 71.44C65.4277 73.4933 65.7877 75.16 66.1344 76.44C66.481 77.72 66.9077 78.88 67.4144 79.92L67.6544 80.4C67.921 80.9333 68.0544 81.36 68.0544 81.68C68.0544 81.9467 67.9744 82.1733 67.8144 82.36C67.6544 82.5733 67.441 82.68 67.1744 82.68ZM62.2544 66.64C62.841 66.3467 63.3344 65.5467 63.7344 64.24C64.161 62.9067 64.3744 61.68 64.3744 60.56C64.3744 59.7067 64.2677 58.9067 64.0544 58.16C63.921 57.7333 63.6944 57.4133 63.3744 57.2C63.081 56.96 62.7077 56.84 62.2544 56.84L62.1744 57.04L62.0944 57.4L62.1744 62.12C62.2277 63.5067 62.2544 65.0133 62.2544 66.64ZM79.8513 82.36C79.2379 82.36 78.7846 82.2667 78.4913 82.08C78.1979 81.8933 78.0513 81.5467 78.0513 81.04C78.0513 80.24 77.9179 78.88 77.6513 76.96L77.4913 76.12L73.5313 75.52C73.3713 76.1333 73.1446 77.3733 72.8513 79.24C72.6913 80.5467 72.4379 81.4133 72.0913 81.84C71.9046 82.08 71.6379 82.2 71.2913 82.2C70.9713 82.2 70.6779 82.1067 70.4113 81.92C70.1446 81.7067 70.0113 81.4533 70.0113 81.16L70.0913 80.96L70.1313 80.8C71.8913 73.9467 73.2246 67.1867 74.1313 60.52C74.1313 60.4133 74.1446 60.24 74.1713 60C74.1979 59.7333 74.2246 59.36 74.2513 58.88C74.3313 57.8933 74.4113 57.1067 74.4913 56.52C74.5979 55.9333 74.7579 55.4933 74.9713 55.2H76.3313C76.7046 55.2 77.0246 55.2933 77.2913 55.48C77.5579 55.64 77.6913 55.88 77.6913 56.2C77.6913 58.2267 77.9713 61.24 78.5313 65.24C79.0646 69.3467 79.3313 72.2267 79.3313 73.88C79.3313 74.04 79.3979 74.4533 79.5312 75.12C79.6646 75.7333 79.7313 76.1333 79.7313 76.32C79.7313 76.5067 79.8646 77.3067 80.1313 78.72C80.3713 80 80.4913 80.8267 80.4913 81.2V81.24C80.4913 81.8267 80.2779 82.2 79.8513 82.36ZM77.2113 74.68C77.1313 74.28 77.0913 73.7867 77.0913 73.2C77.0913 70.8 76.8779 67.7333 76.4513 64L76.0513 59.84C74.9046 66.1067 74.1179 70.84 73.6913 74.04C74.0913 74.3067 75.2646 74.52 77.2113 74.68ZM100.044 84.08C99.2177 84.08 98.8044 83.2533 98.8044 81.6V79.04V76.48C98.8044 75.1467 98.711 73.4 98.5244 71.24C98.311 68.8133 98.2044 67.1467 98.2044 66.24L98.2844 63.76C98.3377 63.04 98.3644 62.2267 98.3644 61.32C98.2577 61.6667 97.8177 63.5067 97.0444 66.84C96.271 70.0667 95.471 73.0533 94.6444 75.8C93.8444 78.44 93.191 79.76 92.6844 79.76C92.1777 79.76 91.7644 79.6133 91.4444 79.32C91.151 79 91.0044 78.5733 91.0044 78.04C91.0044 76.8667 90.5244 74.3733 89.5644 70.56C88.631 66.7467 87.7777 63.6267 87.0044 61.2L86.7644 65.72C86.551 69.5333 86.4044 72.7067 86.3244 75.24C86.271 77.6933 86.2444 79.3733 86.2444 80.28C86.2444 80.4933 86.2577 80.6933 86.2844 80.88V81.44C86.2844 81.8933 86.191 82.2267 86.0044 82.44C85.8177 82.68 85.471 82.8 84.9644 82.8C84.6977 82.8 84.4444 82.6933 84.2044 82.48C83.9644 82.2933 83.8444 82.08 83.8444 81.84C83.8444 79.12 84.0444 75.04 84.4444 69.6C84.8444 64.16 85.0444 60.08 85.0444 57.36C84.8844 57.12 84.8044 56.8667 84.8044 56.6C84.8044 56.28 84.951 56.04 85.2444 55.88C85.5644 55.6933 85.9377 55.6 86.3644 55.6C86.711 55.6 87.351 56.8533 88.2844 59.36C89.2177 61.8667 90.151 64.7067 91.0844 67.88C92.0177 71.0533 92.6177 73.3467 92.8844 74.76C93.0977 74.04 93.271 73.3733 93.4044 72.76L93.6444 71.8C94.4977 68.0667 95.351 64.6933 96.2044 61.68C96.711 59.84 97.2044 58.4 97.6844 57.36C98.1644 56.24 98.6044 55.68 99.0044 55.68C99.3777 55.68 99.711 55.7867 100.004 56C100.324 56.1867 100.484 56.44 100.484 56.76C100.484 58.68 100.564 61.56 100.724 65.4C100.911 68.9733 101.004 71.7467 101.004 73.72L100.964 75.84L100.884 77.96C100.884 78.28 100.924 78.76 101.004 79.4L101.124 80.8C101.151 81.04 101.164 81.2267 101.164 81.36C101.191 81.4933 101.204 81.5733 101.204 81.6C101.338 81.9467 101.404 82.2 101.404 82.36C101.404 82.8133 101.271 83.2133 101.004 83.56C100.738 83.9067 100.418 84.08 100.044 84.08ZM118.331 82.76C117.638 82.76 116.998 82.5333 116.411 82.08C115.824 81.6533 115.344 81.0667 114.971 80.32C114.198 78.6933 113.718 76.92 113.531 75C113.291 73.1867 113.171 71.44 113.171 69.76C113.171 69.44 113.184 69.1733 113.211 68.96V68.24C113.211 68.1067 113.198 68.04 113.171 68.04V67.32L113.211 64.52C113.238 63.6667 113.344 62.3067 113.531 60.44C113.664 59.16 113.971 57.92 114.451 56.72C114.638 56.1867 114.878 55.7867 115.171 55.52C115.464 55.2267 115.798 55.08 116.171 55.08C117.238 55.08 118.198 55.28 119.051 55.68C119.904 56.0533 120.624 56.5867 121.211 57.28C121.744 57.9467 122.198 58.7733 122.571 59.76C122.944 60.72 123.211 61.7467 123.371 62.84C123.531 63.96 123.611 65.1467 123.611 66.4V66.72C123.611 67.5467 123.624 68.2933 123.651 68.96L123.691 71.24C123.691 78.92 121.904 82.76 118.331 82.76ZM118.171 81.08C118.651 81.08 119.091 80.8933 119.491 80.52C119.891 80.12 120.198 79.5867 120.411 78.92C120.918 77.56 121.224 76.0933 121.331 74.52C121.464 73.16 121.531 71.9867 121.531 71C121.531 69.8 121.438 68.2267 121.251 66.28C121.091 64.2267 121.011 62.6933 121.011 61.68V60.96C120.958 59.9467 120.611 59.0667 119.971 58.32C119.358 57.5733 118.598 57.2 117.691 57.2C116.784 57.2 116.184 57.72 115.891 58.76C115.624 59.5867 115.491 60.6533 115.491 61.96C115.491 62.4667 115.504 62.8933 115.531 63.24V64.32L115.451 66.16C115.398 66.72 115.371 67.3333 115.371 68C115.371 69.44 115.411 70.8667 115.491 72.28C115.598 74.28 115.864 76.2267 116.291 78.12C116.718 80.0933 117.344 81.08 118.171 81.08ZM135.065 82.68C134.478 82.68 133.945 82.04 133.465 80.76C132.905 79.3733 132.492 77.9467 132.225 76.48L131.945 75.12C131.172 71.3067 130.678 69.1333 130.465 68.6H129.985C129.985 69.3733 129.972 70.08 129.945 70.72V72.92C129.945 76.4933 130.198 79.28 130.705 81.28L130.265 82.36H129.145L128.625 81.76L128.665 79.08C128.665 76.68 128.545 73.04 128.305 68.16C128.092 62.96 127.985 59.32 127.985 57.24C127.985 55.96 128.425 55.32 129.305 55.32C130.745 55.32 131.918 55.6933 132.825 56.44C133.758 57.1867 134.225 58.2267 134.225 59.56V62.36C134.225 62.76 134.158 63.2267 134.025 63.76C133.892 64.2667 133.745 64.68 133.585 65L132.825 66.44L132.185 67.64L132.385 68.6L132.945 71.44C133.318 73.4933 133.678 75.16 134.025 76.44C134.372 77.72 134.798 78.88 135.305 79.92L135.545 80.4C135.812 80.9333 135.945 81.36 135.945 81.68C135.945 81.9467 135.865 82.1733 135.705 82.36C135.545 82.5733 135.332 82.68 135.065 82.68ZM130.145 66.64C130.732 66.3467 131.225 65.5467 131.625 64.24C132.052 62.9067 132.265 61.68 132.265 60.56C132.265 59.7067 132.158 58.9067 131.945 58.16C131.812 57.7333 131.585 57.4133 131.265 57.2C130.972 56.96 130.598 56.84 130.145 56.84L130.065 57.04L129.985 57.4L130.065 62.12C130.118 63.5067 130.145 65.0133 130.145 66.64ZM149.167 82.08C148.633 82.08 148.167 81.96 147.767 81.72C147.393 81.48 147.207 81.1467 147.207 80.72C147.793 80.1333 148.087 78.5733 148.087 76.04C148.087 74.52 147.967 72.3067 147.727 69.4C147.46 66.6267 147.327 64.44 147.327 62.84L147.407 60.64C147.433 60 147.447 59.2667 147.447 58.44C147.447 57.6933 147.313 56.7467 147.047 55.6C146.727 54.4 146.567 53.56 146.567 53.08C146.567 52.1467 147.593 51.68 149.647 51.68H150.247C151.687 51.68 152.94 52.12 154.007 53C154.86 53.7467 155.58 54.8267 156.167 56.24C156.567 57.2 156.913 58.5333 157.207 60.24C157.367 61.7333 157.447 62.9067 157.447 63.76V65.04V66.92C157.393 67.0267 157.367 67.1333 157.367 67.24C157.367 67.4533 157.38 67.6133 157.407 67.72C157.433 67.8267 157.447 67.96 157.447 68.12C157.447 68.9733 157.313 70 157.047 71.2C156.807 72.3733 156.447 73.5733 155.967 74.8C154.767 77.7333 153.42 79.8133 151.927 81.04C151.047 81.7333 150.127 82.08 149.167 82.08ZM150.007 79.76C150.993 79.1467 151.86 78.2667 152.607 77.12C153.353 75.9467 153.927 74.6533 154.327 73.24C155.047 70.6267 155.407 67.9867 155.407 65.32C155.407 63.88 155.273 62.3067 155.007 60.6C154.713 58.9467 154.087 57.4533 153.127 56.12C152.673 55.48 152.1 54.9867 151.407 54.64C150.713 54.2667 149.927 54.08 149.047 54.08V54.12C149.047 56.52 149.207 60.1467 149.527 65C149.847 69.8267 150.007 73.48 150.007 75.96V79.76ZM164.323 81.96C162.003 81.96 160.843 81.56 160.843 80.76C160.843 80.12 161.256 79.8 162.083 79.8H162.523L162.923 79.84C163.136 79.84 163.283 79.7733 163.363 79.64C163.443 79.5067 163.483 79.2667 163.483 78.92C163.483 78.4667 163.456 77.76 163.403 76.8C163.323 76.16 163.229 75.0133 163.123 73.36C162.883 69.28 162.763 66.2 162.763 64.12C162.763 63.3733 162.776 62.6933 162.803 62.08L162.843 60.04C162.843 59.16 162.803 58.4267 162.723 57.84C162.296 57.9467 161.989 58 161.803 58C161.163 58 160.843 57.68 160.843 57.04C160.843 56.72 161.043 56.44 161.443 56.2C161.843 55.96 162.349 55.7867 162.963 55.68C164.029 55.4667 164.976 55.36 165.803 55.36C166.123 55.36 166.389 55.48 166.603 55.72C166.843 55.9333 166.963 56.1867 166.963 56.48C166.963 56.7733 166.869 57.0267 166.683 57.24C166.523 57.4533 166.309 57.56 166.043 57.56C165.883 57.56 165.749 57.5467 165.643 57.52H165.323C165.056 57.52 164.856 57.5867 164.723 57.72C164.616 57.8267 164.563 58.04 164.563 58.36C164.563 60.9467 164.723 64.84 165.043 70.04C165.096 71 165.203 72.4133 165.363 74.28C165.496 75.5067 165.563 76.76 165.563 78.04V79.56C165.723 79.5333 165.989 79.52 166.363 79.52C167.483 79.52 168.043 79.9867 168.043 80.92V81.16L167.043 81.84C167.016 81.84 166.923 81.8533 166.763 81.88C166.629 81.88 166.363 81.88 165.963 81.88C165.109 81.9333 164.563 81.96 164.323 81.96ZM172.066 82.56C171.586 82.48 171.173 82.3067 170.826 82.04C170.506 81.7733 170.32 81.4267 170.266 81L170.706 80.32C170.866 80.32 171.12 80.3733 171.466 80.48C171.866 80.56 172.173 80.6 172.386 80.6C172.866 80.6 173.293 80.3867 173.666 79.96C174.066 79.5333 174.36 78.9733 174.546 78.28C174.893 77 175.066 75.8533 175.066 74.84C175.066 73.08 174.506 71.2267 173.386 69.28L172.946 68.52C172.44 67.64 172.013 66.8533 171.666 66.16C171.32 65.4667 171.026 64.72 170.786 63.92C170.466 62.88 170.306 61.84 170.306 60.8C170.306 59.6267 170.573 58.4 171.106 57.12C171.373 56.5067 171.746 56.0133 172.226 55.64C172.733 55.24 173.293 55.04 173.906 55.04C174.386 55.04 174.826 55.2 175.226 55.52C175.653 55.8133 175.866 56.1733 175.866 56.6C175.866 56.84 175.773 57.0267 175.586 57.16C175.4 57.2933 175.173 57.36 174.906 57.36C174.613 57.36 174.333 57.28 174.066 57.12C173.48 57.1467 173.013 57.6667 172.666 58.68C172.373 59.6133 172.226 60.3867 172.226 61C172.226 61.7733 172.346 62.56 172.586 63.36C172.826 64.1333 173.133 64.84 173.506 65.48L174.386 67.08L175.786 69.72C176.16 70.4667 176.453 71.3333 176.666 72.32C176.906 73.3067 177.026 74.3067 177.026 75.32C177.026 76.9467 176.653 78.4933 175.906 79.96C175.533 80.7067 175 81.3067 174.306 81.76C173.64 82.2133 172.893 82.44 172.066 82.44V82.56ZM186.589 82.56C186.002 82.56 185.376 82.4667 184.709 82.28C184.069 82.12 183.576 81.9333 183.229 81.72C181.442 80.5733 180.549 77.44 180.549 72.32V71.24V70V69.04C180.549 67.9733 180.562 67.0267 180.589 66.2C180.616 65.3467 180.669 64.4267 180.749 63.44C180.829 62.4 180.949 61.56 181.109 60.92C181.269 60.2533 181.536 59.5067 181.909 58.68C182.229 57.9067 182.616 57.3067 183.069 56.88C183.549 56.4533 184.162 56.0933 184.909 55.8C185.576 55.5067 186.402 55.36 187.389 55.36C187.789 55.36 188.096 55.4533 188.309 55.64C188.522 55.8267 188.629 56.0667 188.629 56.36C188.629 56.6267 188.536 56.8667 188.349 57.08C188.189 57.2933 187.989 57.4133 187.749 57.44H185.869C185.336 57.44 184.869 57.7733 184.469 58.44C184.069 59.1067 183.789 59.9733 183.629 61.04C183.282 63.0133 183.109 64.6133 183.109 65.84V66.04L183.029 69.88C182.976 71.0267 182.949 72.32 182.949 73.76C182.949 74.7733 182.989 75.6 183.069 76.24C183.202 77.2 183.429 78 183.749 78.64C184.069 79.36 184.616 79.88 185.389 80.2C185.789 80.36 186.229 80.44 186.709 80.44C187.002 80.44 187.296 80.3333 187.589 80.12C187.936 80.12 188.216 80.2 188.429 80.36C188.669 80.4933 188.789 80.7067 188.789 81C188.789 82.04 188.056 82.56 186.589 82.56ZM197.081 82.76C196.388 82.76 195.748 82.5333 195.161 82.08C194.574 81.6533 194.094 81.0667 193.721 80.32C192.948 78.6933 192.468 76.92 192.281 75C192.041 73.1867 191.921 71.44 191.921 69.76C191.921 69.44 191.934 69.1733 191.961 68.96V68.24C191.961 68.1067 191.948 68.04 191.921 68.04V67.32L191.961 64.52C191.988 63.6667 192.094 62.3067 192.281 60.44C192.414 59.16 192.721 57.92 193.201 56.72C193.388 56.1867 193.628 55.7867 193.921 55.52C194.214 55.2267 194.548 55.08 194.921 55.08C195.988 55.08 196.948 55.28 197.801 55.68C198.654 56.0533 199.374 56.5867 199.961 57.28C200.494 57.9467 200.948 58.7733 201.321 59.76C201.694 60.72 201.961 61.7467 202.121 62.84C202.281 63.96 202.361 65.1467 202.361 66.4V66.72C202.361 67.5467 202.374 68.2933 202.401 68.96L202.441 71.24C202.441 78.92 200.654 82.76 197.081 82.76ZM196.921 81.08C197.401 81.08 197.841 80.8933 198.241 80.52C198.641 80.12 198.948 79.5867 199.161 78.92C199.668 77.56 199.974 76.0933 200.081 74.52C200.214 73.16 200.281 71.9867 200.281 71C200.281 69.8 200.188 68.2267 200.001 66.28C199.841 64.2267 199.761 62.6933 199.761 61.68V60.96C199.708 59.9467 199.361 59.0667 198.721 58.32C198.108 57.5733 197.348 57.2 196.441 57.2C195.534 57.2 194.934 57.72 194.641 58.76C194.374 59.5867 194.241 60.6533 194.241 61.96C194.241 62.4667 194.254 62.8933 194.281 63.24V64.32L194.201 66.16C194.148 66.72 194.121 67.3333 194.121 68C194.121 69.44 194.161 70.8667 194.241 72.28C194.348 74.28 194.614 76.2267 195.041 78.12C195.468 80.0933 196.094 81.08 196.921 81.08ZM213.815 82.68C213.228 82.68 212.695 82.04 212.215 80.76C211.655 79.3733 211.242 77.9467 210.975 76.48L210.695 75.12C209.922 71.3067 209.428 69.1333 209.215 68.6H208.735C208.735 69.3733 208.722 70.08 208.695 70.72V72.92C208.695 76.4933 208.948 79.28 209.455 81.28L209.015 82.36H207.895L207.375 81.76L207.415 79.08C207.415 76.68 207.295 73.04 207.055 68.16C206.842 62.96 206.735 59.32 206.735 57.24C206.735 55.96 207.175 55.32 208.055 55.32C209.495 55.32 210.668 55.6933 211.575 56.44C212.508 57.1867 212.975 58.2267 212.975 59.56V62.36C212.975 62.76 212.908 63.2267 212.775 63.76C212.642 64.2667 212.495 64.68 212.335 65L211.575 66.44L210.935 67.64L211.135 68.6L211.695 71.44C212.068 73.4933 212.428 75.16 212.775 76.44C213.122 77.72 213.548 78.88 214.055 79.92L214.295 80.4C214.562 80.9333 214.695 81.36 214.695 81.68C214.695 81.9467 214.615 82.1733 214.455 82.36C214.295 82.5733 214.082 82.68 213.815 82.68ZM208.895 66.64C209.482 66.3467 209.975 65.5467 210.375 64.24C210.802 62.9067 211.015 61.68 211.015 60.56C211.015 59.7067 210.908 58.9067 210.695 58.16C210.562 57.7333 210.335 57.4133 210.015 57.2C209.722 56.96 209.348 56.84 208.895 56.84L208.815 57.04L208.735 57.4L208.815 62.12C208.868 63.5067 208.895 65.0133 208.895 66.64ZM219.892 82.24C219.199 82.24 218.852 80.4933 218.852 77L218.932 70.68C218.959 68.8133 218.972 66.72 218.972 64.4C218.972 63.5467 218.892 62.2267 218.732 60.44C218.599 58.4933 218.532 57.3067 218.532 56.88C218.532 56.5333 218.679 56.2267 218.972 55.96C219.265 55.6933 219.585 55.56 219.932 55.56C220.865 55.56 221.759 55.7733 222.612 56.2C223.492 56.6 224.265 57.1733 224.932 57.92C226.345 59.5467 227.279 61.3333 227.732 63.28C227.972 64.2667 228.092 65.24 228.092 66.2C228.092 66.5467 228.079 66.8667 228.052 67.16L228.012 68.24V70.44C228.012 72.1467 227.959 73.4933 227.852 74.48C227.692 75.8133 227.385 77 226.932 78.04C226.399 79.16 225.625 80.16 224.612 81.04C224.132 81.44 223.519 81.84 222.772 82.24H219.892ZM221.652 80.2C222.185 80.2 222.679 80.0667 223.132 79.8C223.585 79.5067 223.972 79.12 224.292 78.64C224.559 78.2133 224.799 77.68 225.012 77.04C225.252 76.3733 225.425 75.7333 225.532 75.12C225.772 73.92 225.919 72.6933 225.972 71.44C225.999 71.12 226.012 70.6533 226.012 70.04C226.012 61.9867 224.452 57.7867 221.332 57.44C221.145 58.64 221.052 60.0267 221.052 61.6C221.052 63.28 221.159 66.2133 221.372 70.4C221.559 74.1067 221.652 77.0533 221.652 79.24V80.2Z" fill="white"/>
</svg>
