<svg width="131" height="36" viewBox="0 0 131 36" fill="none" xmlns="http://www.w3.org/2000/svg">
<path d="M6.744 28.664H19.56V35H0.12V1.4H6.744V28.664ZM49.5326 30.632C46.1406 33.992 42.0126 35.672 37.1486 35.672C32.2846 35.672 28.1566 33.992 24.7646 30.632C21.4046 27.24 19.7246 23.096 19.7246 18.2C19.7246 13.304 21.4046 9.176 24.7646 5.816C28.1566 2.424 32.2846 0.727998 37.1486 0.727998C42.0126 0.727998 46.1406 2.424 49.5326 5.816C52.9246 9.176 54.6206 13.304 54.6206 18.2C54.6206 23.096 52.9246 27.24 49.5326 30.632ZM29.4206 26.12C31.5006 28.168 34.0766 29.192 37.1486 29.192C40.2206 29.192 42.7966 28.168 44.8766 26.12C46.9566 24.04 47.9966 21.4 47.9966 18.2C47.9966 15 46.9566 12.36 44.8766 10.28C42.7966 8.2 40.2206 7.16 37.1486 7.16C34.0766 7.16 31.5006 8.2 29.4206 10.28C27.3406 12.36 26.3006 15 26.3006 18.2C26.3006 21.4 27.3406 24.04 29.4206 26.12ZM92.2523 16.952V19.544C92.2523 24.344 90.7163 28.232 87.6443 31.208C84.5723 34.184 80.6043 35.672 75.7403 35.672C70.5563 35.672 66.2523 33.992 62.8283 30.632C59.4363 27.24 57.7402 23.112 57.7402 18.248C57.7402 13.352 59.4203 9.208 62.7803 5.816C66.1723 2.424 70.3643 0.727998 75.3563 0.727998C78.4923 0.727998 81.3563 1.448 83.9483 2.888C86.5403 4.296 88.5563 6.184 89.9963 8.552L84.3323 11.816C83.5323 10.44 82.3163 9.32 80.6843 8.456C79.0843 7.592 77.2923 7.16 75.3083 7.16C72.1083 7.16 69.4683 8.216 67.3883 10.328C65.3403 12.408 64.3163 15.048 64.3163 18.248C64.3163 21.416 65.3563 24.04 67.4363 26.12C69.5483 28.168 72.3323 29.192 75.7883 29.192C78.3483 29.192 80.4603 28.632 82.1243 27.512C83.8203 26.36 84.9723 24.792 85.5803 22.808H75.4043V16.952H92.2523ZM125.236 30.632C121.844 33.992 117.716 35.672 112.852 35.672C107.988 35.672 103.86 33.992 100.468 30.632C97.1078 27.24 95.4277 23.096 95.4277 18.2C95.4277 13.304 97.1078 9.176 100.468 5.816C103.86 2.424 107.988 0.727998 112.852 0.727998C117.716 0.727998 121.844 2.424 125.236 5.816C128.628 9.176 130.324 13.304 130.324 18.2C130.324 23.096 128.628 27.24 125.236 30.632ZM105.124 26.12C107.204 28.168 109.78 29.192 112.852 29.192C115.924 29.192 118.5 28.168 120.58 26.12C122.66 24.04 123.7 21.4 123.7 18.2C123.7 15 122.66 12.36 120.58 10.28C118.5 8.2 115.924 7.16 112.852 7.16C109.78 7.16 107.204 8.2 105.124 10.28C103.044 12.36 102.004 15 102.004 18.2C102.004 21.4 103.044 24.04 105.124 26.12Z" fill="white"/>
</svg>
