<svg width="1106" height="1106" viewBox="0 0 1106 1106" fill="none" xmlns="http://www.w3.org/2000/svg">
<path d="M550.996 1.99096C697.13 1.46293 837.487 59.0077 941.193 161.966C1044.9 264.924 1103.46 404.863 1103.98 550.996C1104.51 697.129 1046.97 837.487 944.009 941.192C841.051 1044.9 701.113 1103.46 554.979 1103.98L552.987 552.987L550.996 1.99096Z" fill="url(#paint0_radial_50_630)" fill-opacity="0.2"/>
<path d="M368.926 624.176C364.088 613.721 336.706 628.612 341.786 639.59C357.367 673.951 391.892 746.513 391.697 795.473C354.266 755.037 329.895 700.308 314.298 649.452C311.392 639.056 283.908 653.041 287.419 664.745C305.922 725.997 336.839 790.073 386.583 832.428C393.367 838.175 411.722 827.778 412.639 818.786C437.267 762.964 390.051 671.205 368.926 624.176ZM577.833 736.006C562.513 722.785 547.595 709.061 533.34 694.712C534.264 693.967 535.068 692.961 536.254 692.095C544.232 683.961 532.618 654.745 523.716 663.624C520.259 667.127 517.064 670.509 513.225 673.872C487.915 645.917 464.472 615.827 444.588 583.139C441.768 578.415 434.266 579.347 427.852 582.632C420.292 585.495 413.398 591.858 414.651 597.308C426.822 642.132 433.06 687.164 435.034 732.581C433.466 733.307 432.019 734.294 430.833 735.16C423.737 739.712 427.938 758.395 435.647 763.396C435.479 777.437 435.191 791.215 434.379 805.236C433.626 817.326 462.198 805.693 462.67 794.368C463.642 779.321 463.829 764.637 463.895 749.691C479.816 738.834 495.756 727.334 510.69 715.03C524.703 728.855 539.118 742.178 553.934 754.997C562.349 762.21 587.878 744.686 577.833 736.006ZM463.056 713.586C461.972 694.096 459.861 674.446 456.967 655.158C467.519 668.364 478.474 681.066 489.951 693.526C481.107 700.474 472.142 707.161 463.056 713.586ZM595.03 583.028C606.963 610.191 618.636 637.476 630.047 664.882C592.958 625.874 552.051 589.586 510.14 556.617C503.395 549.583 481.502 561.934 483.402 571.527C483.523 571.789 483.644 572.05 483.765 572.311C483.885 572.573 484.006 572.834 484.248 573.357C514.713 626.853 542.645 683.108 562.131 741.684C565.299 751.96 593.165 738.114 589.01 726.391C578.177 692.689 563.965 659.916 548.446 627.747C591.589 666.809 632.181 709.273 666.581 756.188C668.235 761.135 675.476 760.324 681.889 757.039C690.113 753.551 697.307 745.78 693.339 740.634C671.138 682.363 646.985 624.676 622.049 567.353C617.594 557.038 590.091 571.667 595.03 583.028ZM568.584 524.498C573.905 535.999 579.226 547.5 584.668 559.262C589.123 569.576 616.626 554.947 611.426 543.708C606.366 532.086 601.045 520.586 595.603 508.824C590.886 498.63 563.383 513.259 568.584 524.498ZM623.485 503.539C619.846 504.588 616.951 506.562 614.681 509.199C610.58 512.683 608.251 517.251 610.85 520.809C621.746 535.442 630.792 551.566 639.316 567.931C644.677 578.145 671.938 562.992 666.336 552.256C660.613 541.259 654.508 530.121 647.739 519.608C682.319 522.331 719.86 550.657 738.067 574.918C750.332 591.139 764.357 617.335 758.06 638.019C750.621 662.406 722.197 660.642 701.571 652.415C697.264 628.704 689.981 605.417 680.747 582.717C676.553 572.281 649.05 586.91 653.606 598.13C660.683 615.483 666.332 633.178 670.432 650.956C664.101 655.789 660.305 661.988 665.739 665.503C668.396 667.13 671.314 668.636 674.111 669.88C675.324 676.618 676.155 683.215 676.725 689.932C677.501 702.584 705.711 690.166 704.895 678.802C705.036 678.42 704.915 678.159 704.673 677.636C750.437 681.213 797.961 652.243 784.494 599.133C768.523 535.122 687.894 482.94 623.485 503.539ZM931.356 572.435C916.036 559.214 901.118 545.489 886.864 531.141C887.788 530.396 888.592 529.389 889.778 528.523C897.756 520.389 886.142 491.173 877.239 500.053C873.783 503.556 870.588 506.938 866.749 510.301C841.438 482.345 817.996 452.256 798.112 419.568C795.291 414.843 787.789 415.776 781.376 419.061C773.815 421.924 766.922 428.287 768.174 433.737C780.346 478.561 786.584 523.592 788.558 569.01C786.99 569.735 785.543 570.722 784.357 571.588C777.26 576.141 781.462 594.824 789.171 599.825C789.003 613.865 788.714 627.644 787.903 641.665C787.15 653.755 815.722 642.121 816.194 630.796C817.165 615.749 817.353 601.065 817.419 586.12C833.34 575.263 849.28 563.762 864.213 551.458C878.226 565.284 892.641 578.606 907.458 591.426C915.873 598.639 941.402 581.115 931.356 572.435ZM816.58 550.015C815.496 530.525 813.385 510.874 810.49 491.587C821.043 504.793 831.998 517.495 843.475 529.955C834.631 536.903 825.666 543.59 816.58 550.015ZM989.594 468.377C968.734 467.874 954.877 448.898 947.278 431.788C942.823 421.473 915.319 436.103 920.137 447.201C928.462 465.88 942.436 480.993 960.807 487.091C946.4 503.277 937.267 524.004 932.219 546.014C913.381 491.581 901.899 432.475 892.856 377.952C890.672 365 862.443 378.061 864.304 388.941C876.987 463.676 894.245 548.987 928.385 617.284C933.624 627.236 959.036 613.574 956.009 602.916C955.888 602.655 956.028 602.273 956.048 601.629C953.317 564.178 956.785 509.261 990.655 484.387C997.248 479.433 1000.66 468.97 989.594 468.377Z" fill="white" fill-opacity="0.08"/>
<defs>
<radialGradient id="paint0_radial_50_630" cx="0" cy="0" r="1" gradientUnits="userSpaceOnUse" gradientTransform="translate(552.987 552.987) rotate(89.793) scale(551)">
<stop stop-color="#FF0000"/>
<stop offset="1" stop-color="#FF0000" stop-opacity="0"/>
</radialGradient>
</defs>
</svg>
