<svg id="katman_1" data-name="katman 1" xmlns="http://www.w3.org/2000/svg" viewBox="0 0 47.61 22.41"><defs><style>.cls-1{fill:#f9f4f4;}</style></defs><path class="cls-1" d="M.63,15.47c-.07-.06,0,.08-.05,0S.63,15.44.63,15.47Z"/><path class="cls-1" d="M10.35,11.55c0,.34-.26.66-.26,1,0,0-.07,0-.08.06a3.25,3.25,0,0,1-.26,1.2l0,0c0,.07,0,.17,0,.25s0,0,0,0,0,.15,0,.18-.06,0-.08.07l.05,0c.11.14,0,.31,0,.48,0,0,0,0,0,0a8.89,8.89,0,0,1,.09.93s-.06,0-.08,0,.07.11.09.19,0,.14,0,.24h0c.06.07,0,.1,0,.16l0,.05c.09,0,0,.1,0,.16h0s0,.08,0,.13h0c0,.12,0,.19.05.19s0-.12-.1-.05A8,8,0,0,1,9.9,18c0,.05,0,.08-.05.09s0,.15.05.19,0,0,0,0,.08.08.05.16,0,0-.06,0a.66.66,0,0,1,.07.25s0,0,0,0,0,.16,0,.26l0-.06c0,.08.08.11.06.2a.21.21,0,0,0,0-.07,1.45,1.45,0,0,1,.09.48h0a.1.1,0,0,0,0,0,2.58,2.58,0,0,0-.32-.18c-.05-.05,0-.12-.11-.16s-.18-.08-.11.06a1.32,1.32,0,0,0-.32-.21c.05,0,0-.1.08-.07l0-.07s.05.05.05,0A1.42,1.42,0,0,1,9,18.72c-.08,0-.19,0-.3,0,.07,0,0-.08.06-.07l-.22,0s0,0,0-.07,0,0-.06,0-.16-.07-.14-.14.07,0,0,0-.08,0-.14-.05h0s-.14-.05-.12,0,0-.05.05,0a.33.33,0,0,1-.2-.06s0,0,0,0a1.3,1.3,0,0,1-.33-.07s.07,0,.08,0c-.11-.12-.3-.09-.37-.2s0,0,0,0,0-.07-.08-.08-.06,0-.1,0,0,0,0,0a1.21,1.21,0,0,1-.45-.19s-.12,0-.15,0l0,0s-.11-.07-.09-.11.29.13.17.11-.17,0-.11-.06-.16,0-.19-.12.09,0,0-.05,0,0-.11,0l-.06,0s-.06-.06-.06,0-.13-.07-.07-.12l0,0s-.09,0-.13,0a0,0,0,0,1,0,0c-.06.07-.08-.06-.15,0s-.17-.09-.19-.15h-.2v-.29a.28.28,0,0,1,0-.15.07.07,0,0,0,0,.05s0,0,0-.07l.38.13v0s-.07.08-.12.12S6,17,6,17s0,.19-.07.25,0-.1-.06-.05,0,.14,0,.23l.08,0s0,.16-.06.13,0,.12,0,.12c-.08.15,0,.39-.15.48,0,0,0,.08,0,.07s0-.05,0-.07,0,0,0,0,0,.09-.08,0c0,.11.11.13.07.27,0,0,0,0,0,0l0,.09c0,.09-.07,0-.12,0s0,.12,0,.14l-.06.06s0,0,0,.07l0,0s0,.07,0,.1,0-.07,0-.1,0,.07,0,.1,0,.08,0,.12,0,.06,0,.07,0,.07,0,0,0,0,0-.06-.06,0,0,.08.1,0,.06.08,0,0,0,0l0,.08h0s0,0,0,0,0,.13.06.15,0,.09,0,.13h0a.15.15,0,0,0,0,.16h0a.22.22,0,0,0,0,.13c0,.06-.17,0-.12.09s.08.11.11.09a1.57,1.57,0,0,0,0,.22.62.62,0,0,1,0,.28s0,0,0,.1c0,.26,0,.71-.07.79,0-.11,0-.08-.06-.13,0,.14,0,0,0,.15s.06.12.07.06c0,.2,0,.56,0,.45,0,.09,0,.09,0,.09,0-.15-.13-.27-.18-.28l0,.07-.07-.13s0,.14-.06,0,0-.07,0-.11-.14,0-.22-.17l-.06-.16s-.08,0,0,.06a1.9,1.9,0,0,1-.22-.4,1.61,1.61,0,0,1-.39-.31,2.27,2.27,0,0,1-.26-.28h0c0-.07-.06,0-.07,0s0-.08.07-.06-.11-.06-.16-.1,0,0,0,0S4,20.12,4,20.15s0,0,.07,0l0,0c0-.09.19,0,.21-.07l0,0c0-.08.13.06.07,0s-.15,0-.14,0-.14,0-.22,0,.07.07.09,0-.09-.08-.11-.13-.06.06-.09,0,.07,0,0-.07-.1,0-.07,0-.05-.09-.13-.09.16,0,.11-.1-.13-.05-.15,0,0-.06.06-.06-.16,0-.1-.12H3.44V19.4s-.15-.07-.09-.12-.09-.09-.1,0,.08,0,0,.11c0-.08-.07-.07-.11-.09l0,0s-.06-.06-.09-.05,0,0,0,0H3.09c-.08-.06.05-.07,0-.13l.07,0s0-.06,0-.08L3,19s0-.05,0-.06L3,19s0-.09,0-.14-.14,0-.11,0,0-.08,0-.08,0,0-.09,0,0-.13,0-.2h.1l0,0c.09,0,0-.05.08-.06s-.05-.05-.08-.06-.17,0-.22.08c-.11-.09.11-.2-.09-.22,0,0-.09,0,0,.07s-.1,0-.14-.08,0-.11.13-.07,0,.06,0,.07.08-.06,0-.12-.08-.09-.11-.05,0,.06,0,.07,0-.13-.12-.11a.08.08,0,0,1,0,.11l-.07,0h0c-.06-.11-.07,0-.14-.08V18c.07,0,.09.15.15.07s-.1-.05-.12-.12l0,0s.07-.12-.06-.16,0,0-.06,0-.14-.09-.19-.14-.09-.11,0-.09.11.19.19.18,0,.08.13,0,0-.13,0-.17l-.07,0s0,.05-.06.08a.36.36,0,0,0-.22-.16,0,0,0,0,1,.07,0,2.34,2.34,0,0,1-.25-.3c0,.11-.1-.1-.11,0s0,.14,0,.13,0,0,0,0,0-.11-.09-.1c.1.07.09-.05.15-.07s0,0,0-.09a1,1,0,0,1-.25-.17c0-.13-.19-.23-.26-.31s.07-.08,0-.13,0,.09-.07,0h0s-.09-.18-.18-.14l.08,0s0,0-.05,0,0-.05.05,0S1,16.08.92,16v.07c-.11-.07-.13-.16-.21-.24l0,0-.06,0s0-.08,0-.09l.2.07c0,.06-.07,0-.09.05s.07.12.11.1,0,0-.06,0,.07,0,.13,0,0,0,0,0a.38.38,0,0,1,.13.1c-.05,0,0,0,0,0s.1,0,.14.09.14.1.19.18a.25.25,0,0,1-.19,0c0,.07,0,.06.06.12a.32.32,0,0,1,.19,0l0,0c.07.05.11,0,.17.09a3.75,3.75,0,0,0,.27.36l0,0c.11,0,.17.16.26.2s.25.24.25.35a3.91,3.91,0,0,1,.56.59H2.76c.06,0,0,.05,0,.08s.09,0,.14,0a.67.67,0,0,0,.3.28l0,0c.14,0,.17.19.26.31s0,.06,0,.09.13.06.23.12a1,1,0,0,1,.17.26,8.59,8.59,0,0,1,.68.67l0,0a1.58,1.58,0,0,1,.37.36l.1.12s0,0,0,0l0,.1c0,.07.06,0,0-.06,0,.07,0,0,.07.12s0,0,0-.06,0,.1.06.1,0-.05,0-.09h0a.64.64,0,0,0,.06.12.38.38,0,0,0-.07-.21s0-.14,0-.12,0,0,0,0a.5.5,0,0,0,0-.3s.05,0,.05,0,0,0-.05,0a4.44,4.44,0,0,1,.06-.74,6.27,6.27,0,0,1,0-1.23h0c-.06-.14.11-.29,0-.42s0-.11.06-.08c0-.12.1-.29.06-.45a.08.08,0,0,0,0,0,2.62,2.62,0,0,0,.09-.38l.58.18,0,.05s0-.05,0-.06S6.1,17,6,17H6l-.14-.32h0v0s0,0,0,0a6,6,0,0,1,1,.57c.16.16-.07.14.12.17,0,0,0,0,0,0s0,.15.12.13,0,0,.07-.05.13.17.26.19l0,0c.17,0,.3.11.46.09L9,18.29l.46.26s0,0,0,0h0s0,0,0,0v-.25c0-.36,0-.71,0-1.08a.51.51,0,0,0,0-.4s0,0,0,0,0-.14-.08-.16l0-.87c0,.05.06.08.06,0l0-.06h0s-.05-.08-.07,0a11.74,11.74,0,0,1,.19-2.29,4.37,4.37,0,0,0,.11-.63l.68-1.6A.45.45,0,0,1,10.35,11.55Z"/><path class="cls-1" d="M.71,15.56s0,.09,0,.08S.68,15.57.71,15.56Z"/><path class="cls-1" d="M1.58,17.11s0,0,0,0-.05,0-.05,0S1.56,17.11,1.58,17.11Z"/><path class="cls-1" d="M1.86,17.47s-.11,0-.15-.09Z"/><path class="cls-1" d="M2,17.87s0,0,0,0S2,17.87,2,17.87Z"/><path class="cls-1" d="M2.1,17.85s0,0,0,.07S2.06,17.87,2.1,17.85Z"/><path class="cls-1" d="M2.63,18.6s.06,0,.05.07S2.58,18.61,2.63,18.6Z"/><path class="cls-1" d="M2.93,18.89l0,0s0,0,0,0Z"/><polygon class="cls-1" points="5.94 17.34 5.95 17.39 5.92 17.37 5.94 17.34"/><path class="cls-1" d="M7.9,18.36s0,0,0,.05S8,18.39,7.9,18.36Z"/><polygon class="cls-1" points="9.58 19.21 9.57 19.2 9.56 19.12 9.58 19.21"/><path class="cls-1" d="M19.52,17.45c.06,0,0,0,0,0S19.54,17.47,19.52,17.45Z"/><path class="cls-1" d="M15.28,10.7c-.13.21-.43.15-.61.31,0,0,0-.09-.06,0a1,1,0,0,1-.78.17v0c-.05,0-.09.09-.14.09s0,0,0,0-.08,0-.1.08,0-.05-.06-.07l0,.06c0,.15-.19,0-.29.13s0,0,0,0a2,2,0,0,1-.57.22.06.06,0,0,0,0-.07c0,.06-.05.08-.1.11s-.09.07-.15,0h0c0,.06-.07,0-.07.05l-.05,0c0,.07-.08,0-.09,0h0s-.07,0-.08,0h0s-.14,0,0,.06c-.08,0,0,0-.09-.08.08.25.18.46.24.72,0,0,0,.06,0,.07s0,.09.08.11,0,0,0,0,.08,0,.07.08h-.07c.06,0,.07.09.1.14s0,0,0,0,0,.1.07.14h0c0,.09.08,0,.07.08h0c.08,0,.09.15.13.21s0,0,0,0a1.11,1.11,0,0,0,.08.21s-.09,0,0,.08.06.12.13.05,0,.17.05.2-.08.06-.1,0l0,.05s0,0,0,0,.06.09.06.12.15.05.18.13-.07,0-.09,0l.17.07s-.05,0,0,0,0,0,0,0,.05.11,0,.14,0,0,0,0,0,0,.05.08h0s.06.08.09,0,0,0,0,0a.13.13,0,0,1,.09.11s0,0-.05,0a.52.52,0,0,1,.15.18s-.07,0-.05,0,.12.17.08.27,0,0,0,0,0,.06,0,.08,0,0,0,.06,0,0,0,0a.44.44,0,0,1,.12.29s.09,0,.09.06h0s0,.07,0,.09-.1-.17,0-.12.09.07,0,.08.08.07.05.12-.07,0-.06,0,0,0,.06.05l0,0c.05,0,0,.06.06,0s0,.08,0,.1h-.06s.08,0,.11,0h0c.09,0,0,.07.09.08s0,.15,0,.19.08.06.08.12a.05.05,0,0,0,0,0s0,0,0,.07,0,.07-.05.12.08,0,.11,0,.09.1,0,.18-.06-.05-.07,0,.09.06.06.14l.07,0s.07.08,0,.09,0,.09.07.06.11.24,0,.34,0,.06.05,0,0,0,0-.05,0,0,0,0,0,.07-.07,0,.14,0,.14.14,0,0,0,0l.07,0c0,.06-.06.05-.1.07s0,.07.06.07l0,.06s0,0,0,0l0,0s0,0,0,.07a.09.09,0,0,0,0-.08s0,0,.06.05,0,.06,0,.09.05,0,.05,0,0,.05,0,0,0,0,0,0-.06,0,0,.07.09,0,.07,0l-.05,0V18h0s0,.08.1.08,0,.06,0,.09h0s0,.08,0,.08h0s0,0,0,0-.15.1-.09.09.08,0,.1,0,0,0,0,.13,0,0,0-.05.08-.09.13,0,0,0,0,.07,0,0,0,0,0-.06,0-.07.15-.07.18,0,0,0,0-.05.07.06.1,0v0l0,0s0-.08,0-.06,0,0,0,0,.06-.12.12-.1l0,0s0,0,0-.06.13,0,.17,0a.65.65,0,0,1,.43-.26v0c.05,0,0-.06,0,0s.05,0,0,.09.06-.07.09-.1,0,0,0,0,.09,0,.08-.06a.13.13,0,0,1,0,.09l0,0c.06.06-.06.15,0,.21h0c.05,0-.06.09,0,.08s0-.12,0-.14,0-.14.07-.16-.06,0,0,.07.07-.05.11,0,0-.08,0-.1,0,.06,0,.05,0-.07,0-.08.07,0,.08-.06,0,.13.05.14.05-.09,0-.15,0,0,0,.08.06-.11.1,0v-.05l.06,0s.08-.09.1,0,.08,0,0-.07,0,0-.09,0,.07,0,.09-.05v0s.05,0,.05-.06a0,0,0,0,0,0,0v0c.06,0,0,.07.09,0l0,.05s0,0,.06,0v-.14s0,.05.05,0l0,.06a.1.1,0,0,0,.09,0s.06-.1,0-.11.06,0,.05.05,0-.05,0-.08l.13.08,0,.08h0c0,.07,0,0,0,.1s.05,0,.06,0,0-.14,0-.22.1.19.15,0,0-.1,0-.06,0-.09.09-.07.07.07,0,.14,0,0-.05,0,0,.09.07.07.08,0,.06-.07,0,0,0,0,.09,0,.1-.05-.06,0-.07-.07l.05,0v0c.09,0,0-.07.09-.07l.05,0c0,.06-.12,0-.08.09s.05-.06.1,0l0,0s.07.12.12,0,0,0,0-.06.09-.07.14-.09.09,0,.05.07-.15,0-.16.06-.07,0-.07.09.08.07.1.11,0,0,0,0,0,0,0-.09a.22.22,0,0,0,.17-.1s0,.07,0,.08a.73.73,0,0,1,.25,0c-.06-.07.09,0,0-.1a.1.1,0,0,1-.08-.1s0,0,0,.05.07.06.09,0,0,.1,0,.16,0,.05.06,0a.45.45,0,0,1,.17-.11c.09,0,.19,0,.26-.05s0,.1.07.11-.05-.07,0,0h0s.13,0,.14-.07v.08l0,0s0,.05,0,.07.09,0,.14,0l0,0c.07-.05.13,0,.2,0v0l0,0c0,.05,0,.07.06,0l-.1.12s0-.06,0-.1a.06.06,0,0,0-.1,0s0,0,.05,0,0,.06,0,.1,0,0,0,0a.13.13,0,0,1-.1.06s0,0,0-.06,0,.08-.1.07-.09.06-.16,0,0-.11.08-.13-.05,0-.09,0a.19.19,0,0,1-.07.14v0s0,.09-.09.09a2.33,2.33,0,0,0-.3,0v0c0,.09-.14.06-.19.11s-.21.08-.28,0a2.16,2.16,0,0,1-.51.16l0-.07c0,.05,0,0-.06,0s0,.07,0,.11-.19.05-.25.1v0c-.06.09-.16,0-.25.05s0,0-.07,0-.06.08-.12.14a.66.66,0,0,1-.2,0c-.17.14-.39.14-.58.25l0,0c-.17.16-.44.14-.59.25v-.08a.08.08,0,0,0-.08.11c-.06,0-.11.08-.17,0s-.05.06-.09.09a.49.49,0,0,0-.25.08h0s0-.05,0-.05-.22.06-.13.13c-.18,0-.47.24-.6.18s0,0-.05,0a1.77,1.77,0,0,0-.14-.5s.05,0,0-.05,0,0-.06,0a.64.64,0,0,1-.09-.3.85.85,0,0,0,0-.23,5.56,5.56,0,0,1-.26-.75h0c-.09-.06,0-.21-.11-.24s0-.08,0-.08,0-.19-.1-.26v0c0-.11-.06-.18-.06-.29l0,0c0-.05-.1-.07,0-.12s-.05,0,0,0a2.79,2.79,0,0,0-.25-.66c0-.18.15-.06,0-.16s0,0,0,0,.07-.11,0-.13,0,0-.07,0,.05-.15,0-.21h0c-.11-.07-.1-.19-.22-.24-.17-.5-.37-1-.53-1.46-.06-.24-.14-.48-.22-.72l-.11-.37-.14-.56a.64.64,0,0,0,0-.2.22.22,0,0,0,0-.1l0-.06s0,0,0-.06,0,0,0,0,.15,0,.11-.09c.36-.07.72-.17.85-.2,0,0,0,.07,0,.06l0-.05h0s0-.05,0-.06c.47-.17,1-.14,1.42-.27a1.29,1.29,0,0,0,.38-.12,2.11,2.11,0,0,0,1-.25A.31.31,0,0,1,15.28,10.7Z"/><path class="cls-1" d="M19.45,17.47s-.07,0,0-.09S19.45,17.44,19.45,17.47Z"/><path class="cls-1" d="M18.26,17.32l0,0s0,0,0,0S18.26,17.3,18.26,17.32Z"/><path class="cls-1" d="M18,17.35s.06-.06.1-.07Z"/><path class="cls-1" d="M17.67,17.29s0,0,0,0S17.67,17.28,17.67,17.29Z"/><path class="cls-1" d="M17.66,17.36s0,0-.05,0S17.66,17.31,17.66,17.36Z"/><path class="cls-1" d="M17.06,17.41s0,0-.06,0S17.06,17.36,17.06,17.41Z"/><path class="cls-1" d="M16.8,17.52h0s0,0,0,0Z"/><polygon class="cls-1" points="13.69 16.66 13.71 16.68 13.68 16.69 13.69 16.66"/><path class="cls-1" d="M13.05,14.56s0,0,0,0S13,14.52,13.05,14.56Z"/><polygon class="cls-1" points="12.56 13.47 12.56 13.47 12.51 13.49 12.56 13.47"/><path class="cls-1" d="M12.53,15.11v0S12.53,15.09,12.53,15.11Z"/><path class="cls-1" d="M14.9,14.46c0,.16-.07,0-.07.12s0-.08,0-.06-.06.07-.12,0v0s0,.06,0,.06a.09.09,0,0,0,0-.05c0,.05,0,0,0,.06a.49.49,0,0,1,0-.07v0c0,.13,0,0,0,.07v0c0,.08,0,.08-.06.11l0-.07a.13.13,0,0,1,0,.08s0,.06,0,0h0c0,.06,0,0,0,0l0,0c0,.08,0,0,0,0h0s0,0,0,0h0s0,0,0,0,0,0,0-.1-.06.07-.1.08l0-.05a.2.2,0,0,0,0,.05v0s0,.07,0,0a.14.14,0,0,0,0-.06.09.09,0,0,1,0,.06s0,0,0,0,0,0,0,0v0s0,.07,0,0,0,0,0,0,0,0,0,.08v0s0,0,0,0,0-.09,0-.07,0,0,0,.11,0,0,0,0a.47.47,0,0,1,0-.09l0,0s0,0,0,0v0a.76.76,0,0,1,0,.14.64.64,0,0,0,0-.09l0,.14s0-.06,0,0a.09.09,0,0,1,0,.05s0,0,0-.05,0,0,0,0,0,0,0,0h0s0,0,0,.07,0,0,0,0,0,0,0,.06a.11.11,0,0,0,0-.05.32.32,0,0,1,0,.1s0-.06,0,0,0,.07,0,0l0,0s0,0,0,0v0s0,0,0,0,0,.08,0,0a.26.26,0,0,1,0,.07v0s0,0,0,0,0,0,0,0,0,.07,0,0,0,.06,0,0,0-.06,0-.06,0,0,0,0v0s0,0,0,0,0,0,0,0V15s0,.06,0,.09v0c0,.09,0,0,0,.06s0,0-.05,0,0,.06,0,0,0,0,0,0,0,0,0,0l0-.07a.36.36,0,0,0,0,.1c0-.08,0,.06,0,0a.08.08,0,0,0,0-.06c0-.08,0,.07,0,0l0,.07s0,0,0,0,0,0,0,.05,0,0-.07-.07,0,0,0,0,0,0,0,0v0s0,0,0-.08,0,.12,0,.1,0,0,0,0v0s0-.07,0-.11v0l0-.06s0,0,0,0v0s0,0,0,0,0,0,0,.05v0s0,0,0,0,0,0,0,0,0,0,0,0,0,0,0,0,0-.06,0,0,0,.09,0,.06v0s0,0,0,.06,0,0,0,0h0s0,0,0,0h0v0s-.05-.16,0-.11,0,.08,0,.11,0,0,0,0,0,0,0,0,0,.07-.06,0,0-.05,0-.07,0,0,0,0a.64.64,0,0,0,0,.07s0,0,0,0a.08.08,0,0,1,0,0c0-.06,0-.07,0,0v0s0,.08,0,0v0s0,.09,0,.06l0-.05s0,0,0,.05l0-.08c0,.12,0,.14,0,.14v0a.32.32,0,0,1,0-.09s0,.05,0,.06,0,0,0,0,0,0,0,0l0-.09v0c0-.06,0-.12,0-.2h0c0-.06,0-.07,0-.09a.58.58,0,0,0,0,.14s0,.13,0,.13,0,0,0-.05,0,0,0,0a.37.37,0,0,1,0,.09s0-.06,0-.06,0,.06,0,.08,0,0,0,0,0-.12,0-.14a1.21,1.21,0,0,0,0,.14.15.15,0,0,1,0-.08s0,.09,0,0v.05l0-.05s0,.07,0,0,0,0,0,.06,0-.05,0,0,0,0,0,0v0s0,0,0,0a.43.43,0,0,0,0-.05v.05s0-.08,0-.07v0s0,0,0,0l0,.12s0,0,0,0v-.05s0-.07,0-.06a.19.19,0,0,0,0,.09s0,0,0-.05,0,0,0,.07l0-.1v-.07h0c0-.06,0,0,0-.1s0,0,0,0,0,.13.05.21-.07-.2,0-.06,0,.08,0,.06,0,.08,0,.05,0-.08,0-.14,0,0,0,0,0-.08,0-.08,0,0,0,.06v0s0-.05,0,0l0,.08v0s0,.06,0,0l0-.06c0-.06,0,0,0-.07s0,.05,0,0h0s0-.12,0-.05,0,0,0,.06a.15.15,0,0,0,0,.06c0-.07,0,0,0-.07s0,0,0,0,0,0,0-.07,0-.07-.05-.12v0a.38.38,0,0,1,0,.1s0,0,0,.06,0-.07,0-.07,0,0,0,0,0,0,0,.09a.51.51,0,0,1,0,.1.2.2,0,0,1,0-.05s0-.06,0,0,0-.09,0-.15,0,0,0,0v.08c0-.05,0,0,0,0a.66.66,0,0,0,0-.11s0,.07,0,0v0s0,0,0,.06l0-.07h0a.13.13,0,0,1,0-.06s0,0,0,0l0,0s0,0,0,0v0s0-.07,0,0v-.11a.64.64,0,0,1,0,.09s0,0,0,0v0a.58.58,0,0,1,0-.1s0,0,0,0,0,0,0,0a.11.11,0,0,0,0,.06c0-.06,0-.07,0-.06s0,0,0,0a1,1,0,0,1,0,.12l0,0a.69.69,0,0,1,0-.13v0s0-.08,0-.07,0,0,0,0v0c0-.08,0,0,0-.07s0,0,0,0,0-.07.06-.06V15s0,0,0,0a.44.44,0,0,1,0-.1s0,0,0,0l0,0c0-.08,0,0,0,0s0,.05,0,0a.41.41,0,0,1,0-.1l0,0c0-.09,0-.05.06-.11l0,.05c0-.11.06,0,.07-.09l0,.08s0,0,0-.08,0,0,0,0,0,0,0,0,0,0,0,0h0a.11.11,0,0,0,0,.06s0,0,0-.08,0-.06.06,0,0,0,0,0,.05,0,.05,0v0c0-.06.06,0,.08,0s.07,0,.1-.06v0c0-.08.05.06,0,0a.15.15,0,0,1,0,0s0,0,0,0,0,0,0,0,0,0,.05,0v0s0-.08,0,0l0-.05s.07,0,.09-.07,0,.15,0,.08,0,0,0,0,.05.1,0,.05l0-.06s0,.08,0,0v0c0-.08,0,0,0-.14s.13-.12.2-.15.14-.06.23,0,0,.07.05,0v0c0-.07,0,0,0-.07s.05,0,.08,0,0,.06,0,.05v0s0-.05,0-.06.16,0,.22,0,0,0,.06,0,.14.13.18.05A1,1,0,0,1,14.9,14.46Z"/><path class="cls-1" d="M12.54,15.1s0,0,0,.09Z"/><path class="cls-1" d="M12.8,15.37v0Z"/><path class="cls-1" d="M12.85,15.38a.11.11,0,0,1,0,.06Z"/><path class="cls-1" d="M12.92,15.49v0A0,0,0,0,1,12.92,15.49Z"/><path class="cls-1" d="M12.9,15.42s0,0,0,0S12.92,15.47,12.9,15.42Z"/><path class="cls-1" d="M13,15.48s0,0,0,0S13,15.52,13,15.48Z"/><path class="cls-1" d="M13,15.42h0s0,0,0,0Z"/><polygon class="cls-1" points="13.72 15.11 13.72 15.12 13.71 15.09 13.72 15.11"/><path class="cls-1" d="M14,15v0S14,15,14,15Z"/><polygon class="cls-1" points="14.16 14.83 14.16 14.83 14.15 14.77 14.16 14.83"/><path class="cls-1" d="M23.17,8.27c-.07.05.06,0,0,.05S23.14,8.27,23.17,8.27Z"/><path class="cls-1" d="M23.36,7.93c.22.21.16.59.34.84,0,0-.09,0-.05.08a1.81,1.81,0,0,1,.25,1h0c0,.06.1.12.11.19s0,0,0,0,0,.12.09.13,0,0-.05.08l.06,0c.15.07.06.26.17.39s0,0,0,0a4.11,4.11,0,0,1,.31.74s-.06,0-.07,0,.09.07.12.14.09.1.08.19h0c.08,0,0,.1.08.12l0,0c.08,0,0,.1,0,.14h0s0,.08,0,.12h0c.05.09,0,.16.08.14s-.05-.09-.1,0a6.8,6.8,0,0,1,.34,1s0,.07,0,.09.05.12.09.14,0,0,0,0,.09.05.08.12a0,0,0,0,0-.06,0c.06,0,.07.12.11.19l0,0c.07.06,0,.14.08.2l0,0c0,.12.09,0,.09.11s0,0-.05,0,.11.21.15.29h0a1,1,0,0,0,.1.28s-.09,0-.05.1.07.16.14.08a.72.72,0,0,0,.06.27s-.08.07-.1,0l0,.06s0-.05,0,0a.71.71,0,0,1,.07.16c.06.05.16.09.2.19s-.07,0-.09,0l.17.1s-.05,0,0,.07,0,0,0,0a.13.13,0,0,1,0,.15s0,0,0,0,0,0,0,.09h0c0,.06.05.07.07,0s0,.06,0,0,0,0,.07,0h0a.56.56,0,0,0-.05.08c.09-.11.15-.15.19-.2s0,.08,0,.06.11-.12.25-.11c0,0,0,0,0,0s.08,0,.11,0,0,0,.07-.05,0,0,0,0a.68.68,0,0,1,.36-.2s0-.1.06-.11v0s.09,0,.11,0-.19.15-.14.07.08-.12.09-.05.08-.1.15-.09,0,.07,0,.05,0,0,.07-.08l0,0s.07,0,0,0,.09-.09.12,0l0,.06s0-.09,0-.12h0c0-.07.08,0,.07-.12s.15-.11.21-.09,0-.11.1-.14,0,0,0,0,0,0,.06-.06l.14,0c0-.06,0-.08,0-.11s.06-.15.15-.15,0,.09,0,.07,0-.12.09-.16l-.07,0c.06,0,0-.12.09-.08s.07-.07,0-.09c.12-.09.12-.31.27-.33,0,0,0-.07,0-.07s0,0,0,0,0,0,0,0,0-.06.08,0-.07-.14,0-.24,0,0,0,0l0-.08c0-.07.08,0,.12,0s0-.1,0-.12l.07,0c-.05,0,0,0,0-.06v0s0,0,0-.08-.05.05-.07.07,0,0,0-.09,0-.06.05-.09,0,0,0,0,0-.06,0,0,0,0,0,.05.07,0,0-.07-.09,0-.06-.07a.1.1,0,0,0,0,0l0-.06h0c-.05,0,0-.1-.06-.12s0-.07,0-.1h0a.11.11,0,0,0,0-.12h0s0-.07,0-.1.16,0,.1-.09-.1-.07-.12,0-.08-.2,0-.3,0,0-.05,0-.15-.25-.13-.39c0,0,0,0,.06,0s0-.06-.05,0-.05,0-.05.07a.45.45,0,0,1-.13-.23s0,0,0,0,0-.09,0-.12l0,0v0s-.08,0-.08,0l0,0c-.06,0-.14,0-.16-.11l0-.08s-.08,0-.06,0-.08-.15-.06-.21a1.06,1.06,0,0,1-.51-.4l0,0c0-.06-.06,0-.07,0s0-.07.07-.06-.1,0-.14-.07,0,0,0,0,0-.1-.1-.07.05,0,.07-.06l-.05,0c0-.08.18,0,.2-.08l0,0c0-.07.13,0,.08-.06s-.15,0-.14.06-.13.05-.2,0,.06.06.08,0S27,10,27,10s-.06.06-.08,0,.06,0,0-.07-.1,0-.07,0,0-.07-.11-.07.14,0,.11-.1-.12,0-.15,0,0-.06.06-.06-.15,0-.08-.11l-.05,0V9.62s-.14-.06-.08-.11-.07-.07-.09,0,.07,0,0,.1c0-.07-.06-.06-.1-.07l0,0s-.05,0-.08,0,0,0,0,0l0,0c-.07,0,0-.07,0-.12l.07,0s0,0,0-.07l-.13,0s0,0,0,0h.07s0-.07,0-.12-.12,0-.1.05,0-.07,0-.08,0,0-.09,0a.59.59,0,0,0,0-.17h.09l0,0c.07,0,0,0,.07-.07a.09.09,0,0,0-.08,0c0,.12-.16,0-.2.12s.09-.21-.08-.17c0,0-.08.05,0,.07s-.08.05-.12,0,0-.11.1-.11,0,0,0,0,.06-.07,0-.11-.09-.05-.1,0,.05,0,0,.05,0-.1-.12,0,0,.07,0,.1h-.06l0,0c-.07-.07-.06,0-.12,0V8.65c.05,0,.1.08.13,0s-.08,0-.12,0h0s0-.13-.08-.1,0,0,0,.06-.13,0-.18,0-.1,0,0-.08.13.08.19,0,.06,0,.11,0,0-.1,0-.15a0,0,0,0,0-.06,0s0,0,0,.1a.22.22,0,0,0-.22,0,0,0,0,0,1,0-.07,1.46,1.46,0,0,1-.3-.07c0,.09-.12,0-.08.07s.08.09.05.12,0,0,0,0-.05-.08-.1,0,0-.1.06-.16,0,0-.07-.05a1,1,0,0,1-.23.07c-.1-.06-.25,0-.33,0s0-.1-.08-.1.05.07,0,.05v0s-.17,0-.18.09V8.21s0,0,0,0,0,0,0-.06-.12,0-.17.05l.05,0c-.09.06-.17,0-.26.08v0l-.05,0a0,0,0,0,0-.07,0l.11-.15c.05,0,0,.07,0,.1s.12,0,.12-.06,0,0-.06,0,0-.07,0-.12-.05,0-.05,0a.2.2,0,0,1,.12-.07s0,0,0,.05,0-.09.12-.09S24,8,24.05,8a.36.36,0,0,1-.12.15c.06,0,.06,0,.12,0s0-.11.1-.14V8c.06,0,.06-.09.15-.09l.41,0V8c.07-.08.21,0,.3,0s.32,0,.37.13a1.56,1.56,0,0,1,.68.31l-.07,0c.06,0,0,.05.05.07s.08,0,.13,0a.64.64,0,0,0,.31.21l0,0c.13,0,.16.15.24.25s0,.07,0,.09a.51.51,0,0,1,.22.09,1.76,1.76,0,0,1,.14.23c.25.15.38.39.61.57l0,.05c.25.14.4.46.6.6l-.08,0c0,.07.13.11.16.06s.15.12.13.2.09,0,.14.1a1.13,1.13,0,0,0,.21.31l0,0s0,0,0,.05.09.19.15.09c0,.18.22.35.19.54,0,0,0,0,.06,0s0,.31.08.43-.05,0-.05,0,0,0,.06,0a2.06,2.06,0,0,1-.05.71,2.73,2.73,0,0,1-.3,1.1h0c0,.15-.2.22-.16.36s-.06.09-.08,0c0,.11-.2.2-.24.35l0,0c-.13.09-.17.22-.31.3s0,0,0-.06-.05.15-.13.1,0,.05,0,0c-.27.18-.53.41-.81.58s-.09-.13-.22,0c0,0,0,0,0,0s-.15-.05-.17,0,0,0,0,.08-.19,0-.27.07v0a.36.36,0,0,1-.16.14,1.36,1.36,0,0,0-.25.2l-.56.28-.65-2c-.17-.66-.39-1.28-.53-2a.39.39,0,0,0-.05-.35h0c-.07,0,0-.12-.11-.12-.06-.24-.14-.46-.21-.71,0,0,.07,0,.06,0l-.06,0h0s-.06,0-.07,0c-.24-.62-.29-1.27-.48-1.89a2.14,2.14,0,0,0-.16-.51,4.5,4.5,0,0,0-.3-1.4A.4.4,0,0,1,23.36,7.93Z"/><path class="cls-1" d="M23.26,8.23s.09,0,.06.08S23.27,8.26,23.26,8.23Z"/><path class="cls-1" d="M24.77,8.31l0,0s0,0,0,0S24.76,8.33,24.77,8.31Z"/><path class="cls-1" d="M25.12,8.39s-.09,0-.14,0Z"/><path class="cls-1" d="M25.37,8.6s0,.05,0,0Z"/><path class="cls-1" d="M25.42,8.55a.05.05,0,0,1,0,0S25.39,8.59,25.42,8.55Z"/><path class="cls-1" d="M25.94,9s.06,0,0,.05S25.9,9,25.94,9Z"/><path class="cls-1" d="M26.21,9.21l0,0s0,0,0,0Z"/><polygon class="cls-1" points="28.13 14.53 28.14 14.49 28.16 14.52 28.13 14.53"/><path class="cls-1" d="M26,15.93s0,0,0,0S26,16,26,15.93Z"/><polygon class="cls-1" points="25.47 14.79 25.48 14.81 25.42 14.82 25.47 14.79"/><path class="cls-1" d="M30.67,12.13c0-.08,0,0,0-.05S30.68,12.1,30.67,12.13Z"/><path class="cls-1" d="M30.57,11.83c-.21-.21-.13-.57-.29-.81,0,0,.08,0,0-.08a1.7,1.7,0,0,1-.19-1l0,0c0-.07-.09-.12-.1-.19s0,0,.05,0-.05-.12-.09-.13,0,0,.06-.08l-.06,0c-.15-.08,0-.25-.14-.38s0,0,0,0a3.4,3.4,0,0,1-.26-.74s.06,0,.07,0-.09-.07-.11-.14-.08-.1-.07-.19h0c-.07,0,0-.1-.07-.13l0,0c-.09,0,0-.09,0-.13h0s0-.08,0-.12h0c0-.1,0-.16-.07-.15s0,.09.11,0a1.43,1.43,0,0,1-.1-1s.05,0,.08,0,0-.11,0-.16h.05c.06,0,0-.1.06-.13s0,.06,0,.07.08-.12.13-.17,0,0,0,0,.12-.06.16-.12v.05c.11,0,0-.09.09-.1s0,0,0,0,.2-.12.27-.16h0a2.86,2.86,0,0,0,.28-.07s0,.09.1.06.16-.06.09-.13a1.15,1.15,0,0,0,.27,0s.05.08,0,.09l.05.05s-.05,0,0,0a.45.45,0,0,1,.16,0c.06-.05.12-.13.23-.13-.05,0,0,.08,0,.09l.16-.12s0,0,0,0,0,0,0,0,.15,0,.15.09-.06,0,0,0,.08,0,.14,0h0s.13,0,.09,0,0,0,0,0,.12,0,.18,0,0,0,0,0a.65.65,0,0,1,.31,0s-.06,0-.07,0,.27.07.32.19,0,0,0,0,0,.08.06.09,0,0,.08,0,0,0,0,0a.61.61,0,0,1,.33.28s.11,0,.13,0l0,0s.07.08,0,.1-.2-.16-.11-.12.14,0,.08.07.12.07.12.14-.08,0-.05,0,0,0,.08,0l0,0s0,.07.07,0,.08.09,0,.12l-.06,0s.08,0,.12,0a0,0,0,0,1,0,0c.08,0,0,.09.12.09s.08.19,0,.25a.24.24,0,0,1,.11.15s0,0,0,0,0,0,0,.08a.75.75,0,0,0,0,.15s.08,0,.11,0,.11.15.05.24-.07-.07-.07,0,.09.08.07.18l.07,0c0,.05.07.11,0,.12s0,.11.06.08c0,.16.12.34,0,.45s0,.07,0,.05,0,0,0-.06a0,0,0,0,0,0,0c0,.05,0,.08-.08.05s.14.08.13.21,0,0,0,0l.06.06c0,.09-.06.06-.11.07s0,.09.06.11l0,.06s0,0,0,0h0s0,0,0,.08,0-.06,0-.09,0,0,.05.08,0,.07,0,.1.05,0,.05,0,0,.07,0,0,0,0,0-.05-.06,0,0,.08.1,0,.08.06l-.06,0v.08h0c.05,0,0,.1.08.11s0,.08,0,.12h0a.12.12,0,0,0,0,.13h0a.17.17,0,0,0,0,.11c0,.06-.17,0-.11.09s.09.09.12.06,0,.23,0,.33,0,0,0,0,.06.33,0,.46c0-.05,0,0-.07,0s0,0,0,.06.06,0,.07,0a.44.44,0,0,1,0,.29s0,0,0,0-.08.06-.06.11h0l-.05,0s.08,0,0,.09h0c0,.06.07.15,0,.2l-.07,0s0,.08,0,0-.07.16-.12.18a.87.87,0,0,1-.08.65h0s0,0,0,.08-.07,0-.09,0,0,.11,0,.17,0,0,0,0-.07.09,0,.13-.06,0-.08-.05v.06c-.09,0-.05-.18-.15-.16v0c-.08,0,0-.13-.08,0s.06.13.1.1.1.11,0,.21,0-.08,0-.09,0,.1-.07.14.07,0,.06.07,0-.06-.07,0,0,.11.05.07-.07.06-.05.13,0-.14-.12-.09,0,.14.07.15-.07,0-.08,0,0,.16-.1.1l0,0H33.5s-.07.15-.12.09-.09.08,0,.1,0-.08.12-.05c-.08,0-.08.07-.1.11l0,0s-.06.05-.05.08,0,0,0,0v.06c-.08.07-.07-.06-.14,0l0-.07s-.06,0-.09,0,0,.1,0,.14-.05,0-.08,0l0-.08s-.07,0-.13,0-.08.11,0,.11-.09,0-.07,0,0,0,0,.09-.13,0-.19-.06l.05-.09h-.05c0-.07,0,0,0-.1s-.06,0-.09.05-.07.15,0,.23c-.14,0-.1-.2-.23-.05,0,0,0,.09,0,.06-.08,0,0,.09-.16,0,.08,0-.07-.09,0-.14s.06,0,.08,0,0-.08-.08-.09-.11,0-.11,0,.08,0,0,.05-.11-.07-.16,0a.08.08,0,0,1,.07.09h-.09l0,0c-.12-.05-.05.06-.17,0l0-.08c0-.05.17.07.17,0s-.11,0-.18,0h.06s0-.13-.14-.11,0,0,0,.06a1.84,1.84,0,0,1-.24-.07c0-.05-.11-.08,0-.09s.17.14.24.1.08.05.13,0,0-.11,0-.16h-.06s0,0,0,.1a.45.45,0,0,0-.25-.09s0-.07.06-.05a.78.78,0,0,1-.27-.24c0,.11-.1-.08-.11,0s0,.13,0,.13,0,0,0,0,0-.11-.08-.1c.09.07.09,0,.15-.07s0,0,0-.08a.65.65,0,0,1-.2-.17c0-.12-.13-.23-.17-.32s.09-.05.08-.1-.05.07-.06,0h0s0-.17-.12-.16h.08s0,0,0,0,0,0,.06,0,0-.11-.06-.16l0,0c-.07-.09,0-.17-.09-.25h.05l0,0s.05-.06,0-.08l.15.12s-.07,0-.1,0,0,.12.05.12,0,0,0-.05.07,0,.11,0,0,0,0,0,.05,0,.07.11,0,0,0,0,.08,0,.09.11.08.11.1.19a.29.29,0,0,1-.16-.07c0,.05,0,.05,0,.11s.11,0,.16,0l0,0c.05.05.1,0,.12.09a1.36,1.36,0,0,0,.16.32l0,0c.1,0,.13.13.21.15s.22.13.23.22a1.94,1.94,0,0,0,.58.12l0,.06s0,0,.07,0,.05-.06.07-.1.22,0,.28-.1l0,0c0-.1.17-.07.27-.12s.05,0,.08,0,0-.1.08-.18l.19-.12a3.61,3.61,0,0,0,.33-.65h.05c0-.26.17-.52.16-.74l.08,0c0-.06,0-.15-.05-.14s0-.17.06-.21,0-.09,0-.14a.71.71,0,0,0,0-.32v0s0,0,0,0,0-.18-.06-.13c.06-.14,0-.33,0-.47,0,0,0,0,0,0s0-.26,0-.35,0,0,0,0,0,0,0,0c-.07-.2,0-.41,0-.59s-.11-.66-.18-1h0c-.1-.08,0-.25-.11-.3s0-.1,0-.09,0-.23-.11-.32l0,0c0-.12-.08-.2-.1-.33s0,0,0,0-.12-.07,0-.13,0,0,0,0a1.72,1.72,0,0,0-.45-.68c-.07-.18.12-.11,0-.18s0,0,0,0,0-.14-.06-.13,0,0-.06,0-.05-.17-.15-.19l0,0c-.13,0-.22-.1-.34-.06a2.39,2.39,0,0,0-1.67-.08,1.16,1.16,0,0,0-.63.28c-.09.09-.12.28-.09.58-.06.15-.05.16,0,.32,0,0,0,0,0,0s0,.11.1.11c0,.24.11.46.16.7,0,0-.07,0-.06,0l0,0h0s.05.06.07,0c.19.6.19,1.23.35,1.82a2.27,2.27,0,0,0,.12.5A4.45,4.45,0,0,0,30.83,12,.37.37,0,0,1,30.57,11.83Z"/><path class="cls-1" d="M30.7,12.21s0,.09-.08,0Z"/><path class="cls-1" d="M31,13.71s0,0,0,0-.05,0,0,0S31,13.71,31,13.71Z"/><path class="cls-1" d="M31.26,14s-.11,0-.15-.06Z"/><path class="cls-1" d="M31.57,14.36s0,0,0,0S31.55,14.37,31.57,14.36Z"/><path class="cls-1" d="M31.62,14.31s0,0,.06.06S31.59,14.35,31.62,14.31Z"/><path class="cls-1" d="M32.55,14.48s.06,0,.09,0S32.54,14.52,32.55,14.48Z"/><path class="cls-1" d="M32.94,14.31l0,0s0,0,0,0Z"/><polygon class="cls-1" points="34.02 8.05 34.04 8.09 34.02 8.09 34.02 8.05"/><path class="cls-1" d="M32.25,5.77s0,0,0,0S32.2,5.75,32.25,5.77Z"/><polygon class="cls-1" points="30.67 5.78 30.68 5.77 30.69 5.83 30.67 5.78"/><path class="cls-1" d="M35,5s-.05,0,0,0S35,4.94,35,5Z"/><path class="cls-1" d="M37.06,12.65c-.16-.09,0-.22-.13-.32s.08,0,.06,0-.07-.25,0-.39h0s-.07,0-.06-.07h0s0-.05-.07-.05l.08,0H37c-.13,0,0-.1-.07-.14h0c-.09-.08-.1-.18-.15-.27l.07,0c-.05,0-.07,0-.09,0s-.06,0,0-.07h0c-.07,0,0,0-.05,0l0,0c-.09,0,0,0,0-.05h0s0,0,0,0h0s0-.07-.05-.05,0,0,.1,0a.85.85,0,0,1-.16-.35l0-.05s0,0-.06,0l0,0s-.08,0-.06,0,0,0,.07,0-.06,0-.08-.05h0c-.06,0,0,0,0-.06h0s-.08,0-.07,0h0c-.08,0-.07-.06-.1-.08h0s0-.07-.05-.09.09,0,.06-.06,0-.05-.12,0,0-.09,0-.1.08,0,.1,0l0,0s0,0,0,0,0,0,0,0-.14,0-.16,0,.07,0,.09,0h-.16s.06,0,0,0h0s0,0,0-.08,0,0,0,0,0,0,0,0h0s0,0-.07,0,0,0,0,0a.05.05,0,0,1-.07,0s0,0,0,0a.27.27,0,0,1-.12-.07s.06,0,0,0-.09-.07,0-.13h0s0,0,0,0,0,0,0,0h0S36,9.3,36,9.24l-.08,0h0s0,0,0-.05.08.07,0,.06-.09,0,0,0-.06,0,0,0,.06,0,.05,0,0,0,0,0h0s0,0,0,0,0,0,0-.05l0,0H35.9c-.08,0,0,0-.07,0s0-.07,0-.1-.07,0-.06,0h0s0,0,0,0,0,0,.06-.07-.07,0-.1,0-.07,0,0-.09,0,0,.07,0-.07,0,0-.07l-.07,0s0,0,0-.05,0,0-.06,0-.07-.11,0-.18,0,0,0,0,0,0,0,0h0s0,0,.07,0-.13,0-.11-.05,0,0,0,0H35.6s.06,0,.11-.05,0,0-.06,0l.06,0s0,0-.05,0h0s0,0,0,0,0,0,0,0,0,0-.05,0,0,0,0,0,0,0,0,0,0,0,0,0,0,0,0,0,.06,0,0,0-.1,0-.07,0h.05V8h0c-.05,0,0,0-.08,0s0,0,0,0h0s0,0,0,0h0s0,0,0,0,.16-.05.1-.06-.09,0-.11,0-.07-.07,0-.13,0,0,0,0-.09-.1,0-.17,0,0,.07,0,0,0,0,0-.05,0-.06,0,0-.08,0-.11h0c.06,0,.06,0,0-.06h0l0,0s-.08,0,0,0l0,0s-.1,0-.07,0l0,0a0,0,0,0,0-.06,0s0-.07.06-.1a.22.22,0,0,1-.18-.19h0s0,0,0,0,.05,0,.09,0-.06,0-.08,0,0,0,0,0,0,0,0,0l.09,0h0c.06,0,.13,0,.21,0h0c.06,0,.08,0,.09,0s-.12,0-.14,0-.13,0-.14,0,0,0,.06,0,0,0,0-.05-.07,0-.09,0,.06,0,.06,0-.07,0-.08,0,0,0,0,0,.12,0,.14-.05-.08,0-.15,0a.16.16,0,0,1,.09,0s-.11,0,0,0H35l.05,0s-.09,0,0,0,0,0-.06,0,0,0,0,0,0,0,0,0h0s0,0,0,0h0s.08,0,.06,0h0s0,0,0,0l-.13,0s0,0,0,0h.06s.06,0,.05,0-.08,0-.1,0,0,0,0,0,0,0-.07,0L35,6.2H35c.06,0,0,0,.1,0s0,0,0,0-.13,0-.22,0,.2-.08.06-.09-.09,0-.06,0-.09,0-.06,0,.07,0,.13,0,0,0,0,0,.08,0,.08,0S35,6,35,6s0,0,0,0,.05-.06,0,0,0,0-.07,0l0,0h0s-.07,0-.07,0l.06,0c.06,0,0,.06.08,0s-.05,0,0-.05h0s.11-.05,0-.06,0,0-.06,0-.06,0-.07,0,0,0,.06,0,0,.08.06.07,0,0,.08,0,.06,0,.11-.07,0,0,0,0l-.09,0s0-.06-.09-.07.07,0,.08,0a.27.27,0,0,1,0-.12c-.07.05,0,0-.09,0a.14.14,0,0,1-.1.05s0,0,.05,0,.06,0,0,0,.1,0,.16,0,0,0,0,0a.2.2,0,0,1-.1-.07s0-.09,0-.12.09,0,.1,0-.07,0,0,0h0s0-.07-.07-.05h.07s0,0,0,0l.06,0c.05,0,0,0,0-.06l0,0s0-.06,0-.09h0l0,0s.06,0,0,0l.12,0s-.06,0-.1,0,0,0,0,0h0c.06,0,.07,0,.11,0s0,0,0,0,0,0,0,0,0,0,0,0,.07,0,.06,0,.06,0,0,.07a.24.24,0,0,1-.13,0s0,0,0,0,.1,0,.13,0h0s.09,0,.09,0a.66.66,0,0,0,0,.15h0c.09,0,0,.06.09.08s.07.09,0,.13a.5.5,0,0,1,.12.24h-.06c.05,0,0,0,0,0s.07,0,.11,0,0,.08.08.11h0c.08,0,0,.07,0,.12l0,0a.34.34,0,0,1,.12,0,.14.14,0,0,1,0,.11c.12.06.09.18.17.26l0,0c.13.07.07.21.15.28h-.08s0,0,.09,0,.06.05,0,.09,0,0,.06,0a.12.12,0,0,0,0,.12h0s0,0,0,0,0,.08.08,0,.09.11,0,.18h0s0,.11,0,.14,0,0,0,0,0,0,0,0,0,.16,0,.23a1,1,0,0,1,.14.35h0c.08,0-.05.11.07.11s0,0,0,0,0,.1.06.12h0c0,.06,0,.08,0,.14h0s.09,0,0,.06,0,0,0,0,.09.2.14.31-.14.05-.06.09h0s-.09.07,0,.07,0,0,.07,0-.07.09,0,.11h0c.1,0,.07.08.18.09.09.23.23.44.32.68a4.11,4.11,0,0,1,.2.73c-.06.08-.06.08,0,.14h0c.07,0,0,0,.08,0s0,.18.08.28-.07,0-.06,0h0s0,0,.06,0c.12.24,0,.51,0,.75a.4.4,0,0,0,0,.21.71.71,0,0,0,0,.55S37.11,12.72,37.06,12.65Z"/><path class="cls-1" d="M35,5s0,0-.08,0A.19.19,0,0,1,35,5Z"/><path class="cls-1" d="M34.84,5.61h0s0,0,0,0Z"/><path class="cls-1" d="M34.86,5.75a.08.08,0,0,1-.07,0Z"/><path class="cls-1" d="M34.78,5.91s0,0,0,0Z"/><path class="cls-1" d="M34.85,5.9s0,0,0,0S34.8,5.91,34.85,5.9Z"/><path class="cls-1" d="M34.85,6.2s0,0,0,0S34.81,6.2,34.85,6.2Z"/><path class="cls-1" d="M34.94,6.31s0,0,0,0,0,0,0,0Z"/><polygon class="cls-1" points="35.76 8.61 35.74 8.6 35.77 8.59 35.76 8.61"/><path class="cls-1" d="M36.07,9.63s0,0,0,0S36.08,9.64,36.07,9.63Z"/><polygon class="cls-1" points="36.4 10.12 36.39 10.12 36.45 10.1 36.4 10.12"/><path class="cls-1" d="M34.65,4.34c-.06,0,0,.06,0,0S34.64,4.31,34.65,4.34Z"/><path class="cls-1" d="M39.08,3.18c.15.21,0,.48.12.71,0,0-.08,0-.06,0a1.2,1.2,0,0,1,0,.84h0c0,.05.07.11.07.16h0s0,.1.07.12-.05,0-.07,0l.06,0c.14.07,0,.21.1.31s0,0,0,0a3.09,3.09,0,0,1,.19.61h-.07s.08.06.1.12.07.08,0,.15h0c.07,0,0,.08.06.1l0,0c.09,0,0,.08,0,.11h0s0,.06,0,.09h0c0,.07,0,.13.07.11s0-.07-.1,0a4.49,4.49,0,0,1,.24.79s0,.06,0,.07,0,.1.08.12,0,0,0,0,.08,0,.07.09,0,0-.06,0,.07.09.1.14,0,0-.05,0,0,.11.07.15h0c0,.1.08,0,.08.08h0c.09,0,.1.16.14.22h0a1,1,0,0,0,.09.22s-.09,0-.06.09.07.12.14.05,0,.18,0,.22-.08.06-.1,0l0,.06s0,0,0,0a.45.45,0,0,1,.06.12c.06,0,.15.06.19.13s-.07.05-.09,0l.17.07s-.06,0,0,.06,0,0,0,0,.07.15,0,.16,0-.06,0,0,0,.06.07.11h0s.07.13.11.1,0,0,0,0a.46.46,0,0,1,.13.2L40.63,10a1.76,1.76,0,0,1,.23.37s-.1-.11-.08-.1.2.37.13.38.08.07.07.05-.07,0,0,.05,0,.06.07.13a.38.38,0,1,0,0-.06,1.73,1.73,0,0,1,.21.5,2.3,2.3,0,0,1,.19.33l-.1-.15c-.05-.05,0,.13,0,0,.14.24-.2-.4-.08-.18-.07-.09.21.34.07.14,0,.06.13.24.11.24l0,0,0-.06-.08-.11,0,0s0,.08,0,.12v0c.08.13-.07-.07,0,.09-.07-.1-.07,0-.19-.22L41,11.31s0,.12.06.16L41,11.4c.13.22-.09-.08,0,0a2.68,2.68,0,0,1-.28-.3s0,0-.11-.05,0,0,0,0-.05,0-.07,0a2.89,2.89,0,0,0-.16-.25s0,.11,0,.16c-.1-.2-.12,0-.21-.21,0,0,0,0,0-.08s-.06,0-.14-.1l0,.12c0-.09-.11,0-.1-.14s-.08-.11-.08,0c-.11-.19-.34-.27-.33-.44,0,0-.06-.05-.08,0s.06,0,.05,0,0,0,0,0,0-.07,0-.09-.15,0-.2-.06,0,0,0-.05h-.08c0-.05,0-.07.06-.11s-.06,0-.1,0l0-.08c0,.05,0,0-.07,0h0s0,0,0,0,0,.06,0,.09l-.08,0s0-.07,0-.09-.06,0-.06,0,0,0,0,0,0,0,0,0,0-.06,0-.07-.07.07-.09,0H39l0-.07,0,0,0,0c-.05,0-.07-.05-.12,0s0-.06,0-.09h0s-.05-.06-.09-.06h0a.15.15,0,0,0-.08,0c0-.06.11-.13,0-.13s-.12,0-.12,0-.16-.11-.16-.22,0,0,0,0-.22-.17-.21-.31c0,0,0,0,0,0s0-.05,0,0,0,0,0,.08-.14-.13-.14-.19,0,0,0,0,0-.09,0-.1l0,0V8.33s-.07,0-.07,0l0,0s-.13,0-.13-.09V8.13s-.06,0,0,0-.06-.13,0-.18a.71.71,0,0,1-.41-.31l0,0s-.06,0-.06,0,0-.06.07-.06-.09,0-.12,0,0,0,0,0,0-.09-.08-.06a.18.18,0,0,1,.07,0h0c0-.08.16,0,.19-.09l0,0c0-.07.11,0,.07-.06s-.13,0-.13.07-.13.06-.18,0,0,0,.08,0-.07,0-.08-.08-.06.06-.09,0,.06,0,0-.06-.09,0-.07,0,0-.06-.1,0,.14,0,.12-.1-.11,0-.15.06a.09.09,0,0,1,.06-.07s-.13,0-.06-.08l-.05,0,0-.07s-.13,0-.06-.09-.06-.06-.09,0,.07,0,0,.08,0,0-.08,0l0,0s0,0-.07,0a0,0,0,0,0,0,0l-.05,0c-.06,0,.05-.07,0-.11h.06s0,0,0-.06l-.13,0s0,0,0,0h.07a.09.09,0,0,0,0-.1s-.11,0-.1,0,0-.06,0-.07,0,0-.08,0,0-.1,0-.16h.08l0,0c.07,0,0-.05.08-.07s0,0-.07,0-.14,0-.2.11.13-.18,0-.16c0,0-.08,0,0,.06s-.09,0-.11,0,0-.1.12-.08,0,0,0,0,.07,0,0-.09-.07-.06-.1,0,0,0,0,0,0-.1-.1-.06,0,.07,0,.1l-.05,0h0c0-.08-.06,0-.1,0l0-.07s.06.1.12,0-.08,0-.1-.07l0,0s.07-.12,0-.12,0,0-.06,0-.11-.05-.15-.08-.06-.08,0-.08.07.13.14.11,0,.05.1,0,0-.1,0-.15h0s0,0-.06.08a.2.2,0,0,0-.17-.1s0-.06.06,0a1.07,1.07,0,0,1-.18-.19c0,.09-.08-.06-.1,0s0,.11,0,.11,0,0,0,0,0-.09-.06-.06.08-.06.14-.1,0,0,0-.07a.41.41,0,0,1-.19-.08c0-.1-.15-.14-.2-.19s.06-.08,0-.12,0,.08-.06,0h0s-.06-.13-.15-.07l.07,0h0s0,0,.05,0-.08,0-.12-.08v0c-.09,0-.1-.09-.17-.13l0,0h0a0,0,0,1,0,0-.06h.16s-.06,0-.07.06,0,.08.09.06,0,0-.06,0,.07,0,.11,0,0,0,0,0a.1.1,0,0,1,.1,0s0,0,0,0,.09,0,.12,0,.11,0,.15.1a.23.23,0,0,1-.16,0c0,.05,0,0,.05.08s.1,0,.15,0l0,0c.05,0,.09,0,.13,0a3,3,0,0,0,.21.24l0,0c.1,0,.14.09.21.11s.2.14.18.23a2.19,2.19,0,0,1,.42.38l-.07,0c.06,0,0,0,0,.06s.08,0,.13,0,.13.15.22.18l0,0c.11,0,.12.12.18.21s0,.06,0,.07.1,0,.18.06a.44.44,0,0,1,.1.19c.21.1.31.31.5.45l0,0c.22.1.32.37.48.47l-.07,0c0,.06.1.09.13,0s.13.09.1.16.07,0,.11.06a.65.65,0,0,0,.18.22l0,0s-.05,0,0,.05.08.13.13,0c0,.12.21.18.23.31,0,0,0,0,.06,0s.1.19.19.22-.05,0,0,.05,0,0,.05,0,.2.29.31.39a2.7,2.7,0,0,1,.31.28l.21.21v0c0-.07,0,.13.06,0a.35.35,0,0,1,0,.07c0-.07.06.13.06,0s0,0,0,0,0,0,.08.11l0,.07c.05.1-.07-.18.05.06,0,0-.05-.11-.05-.11s.13.1.05,0l0-.05c.1.12.32.45.16.2l0,0c-.06-.08.19.22.09.08L40.24,10c0,.05.14.12,0,0l.05.06c-.16-.19-.1-.17-.26-.31a.19.19,0,0,0,0-.09A.81.81,0,0,1,40,9.49c-.1-.26-.2-.51-.28-.77a13.88,13.88,0,0,1-.4-1.57.27.27,0,0,0,0-.29h0c-.07,0,0-.1-.09-.1,0-.2-.09-.38-.13-.59,0,0,.07,0,.06,0l0,0h0s-.05,0-.07,0a10.19,10.19,0,0,1-.16-1.56,1.33,1.33,0,0,0,0-.43,3.42,3.42,0,0,0,0-1.15A.35.35,0,0,1,39.08,3.18Z"/><path class="cls-1" d="M34.71,4.39s0,.08,0,.09A.25.25,0,0,1,34.71,4.39Z"/><path class="cls-1" d="M35.36,5.45s0,0,0,0,0,0,0,0S35.35,5.46,35.36,5.45Z"/><path class="cls-1" d="M35.56,5.68s-.09,0-.12,0Z"/><path class="cls-1" d="M35.67,6s0,0,0,0S35.65,6,35.67,6Z"/><path class="cls-1" d="M35.73,5.94s0,0,0,.06S35.69,6,35.73,5.94Z"/><path class="cls-1" d="M36.08,6.45s.05,0,0,0S36,6.47,36.08,6.45Z"/><path class="cls-1" d="M36.3,6.64h0a0,0,0,0,1,0,0Z"/><polygon class="cls-1" points="40.12 10.69 40.09 10.68 40.08 10.64 40.12 10.69"/><path class="cls-1" d="M40.79,10.1c0-.06,0,0,0,0S40.77,10,40.79,10.1Z"/><polygon class="cls-1" points="40.19 8.74 40.19 8.74 40.14 8.76 40.19 8.74"/><path class="cls-1" d="M41.14,1.55s0,0,0,0S41.15,1.53,41.14,1.55Z"/><path class="cls-1" d="M41.15,3.14c0-.15.09-.09,0-.18s.08,0,.06,0,0-.1.09-.12h0s-.05,0,0,0h0s0,0,0,0h.07l0,0c-.12-.06,0,0,0-.07h0c-.06-.06,0-.09,0-.13l.07,0c-.05,0-.06,0-.07-.05s0,0,0,0h0c-.06,0,0,0,0,0h0c-.08,0,0,0,0,0h0s0,0,0,0h0s0,0,0,0,0,0,.09,0,0-.11,0-.16h.06a.07.07,0,0,0,0,0h0s-.06,0,0,0l.05,0s0,0,0,0h0s0,0,0,0l0,0s-.07,0,0,0l0,0c-.06,0,0,0-.05-.06h0s0,0,0,0,.09,0,.08,0,0,0-.11,0,0,0,0,0l.09,0h.05s0,0,0,0,0,0,0,0a1.23,1.23,0,0,1-.13-.05h.09l-.14,0h0s0,0,.06,0h.05s0,0,0,0h0s0,0-.07,0,0,0,0,0-.06,0-.06,0h0s.07,0,0,0-.08,0,0,0l0,0s.06,0,0,0,0,0,0,0h0s-.08,0,0,0l-.07,0,0,0,0,0c-.06,0,.05,0,0,0s-.07,0,0,0-.06,0,0,0l0,0h-.06l0,0s0,0,0,0l0,0-.08,0h0c-.07,0,0,0,0,0s0,0,0,0-.05,0,0,0l0,0s0,0,0,0l0-.08a.46.46,0,0,0-.07.07c0-.07-.06,0,0-.05a.09.09,0,0,0,.05,0c.06-.06-.06,0,0,0l0,.05s0,0,0,0,0,0,0,0-.09-.08,0-.15,0,0,0,0,0,0,0,0h0s0,0,.08,0-.13,0-.11-.05,0,0,0,0L41,1.5s.07,0,.12,0,0,0,0,0h.06s0,0,0,0h0s0,0,0,0,0,0-.06,0,0,0,0,0,0,0,0,0,0,0,0,0,0,0,0,0,0,0,0,0,.06,0,0,0-.08-.06,0-.06,0,0,0,0h0l0,0h0s0,0,0-.08,0,0,0,0h0s0,0,0,0h0s0,0,0-.05.08.15.07.1a.15.15,0,0,0,0-.11s.06-.06.1,0,0,0,0,0,.11-.05.14,0,0,.05,0,.07,0,.05,0,0,0-.06,0-.08.09,0,.09,0,0,0,0,0,0,.07,0,.06l0,0v0s.05-.06.05,0,0,0,0,0,.1,0,.09,0l0,.05s0,0,.06,0,0,.07,0,.1a.15.15,0,0,1,.15.18h0s0,0,0,0-.06,0-.09,0,0,0,0,.05,0,0,0,0,0,0,0,0l-.09,0,0,0c-.07,0-.11-.06-.2-.06h0c-.06,0-.07,0-.09,0l.13,0s.13,0,.12.08,0,0,0,0,0,0,0,0,.08,0,.08,0,0,0-.06,0,0,.05.07,0,0,0,0,.05-.1-.08-.14-.07,0,.06.12.09l-.07,0s.06.08,0,0l0,0-.06,0s0,.08,0,0,0,0,0,.06,0,0,0,0,0,0,0,.05l0,0s0,0,0,0l0,0,0,0s-.06-.06-.07,0v0s0,0,0,0l.06.11s0,0,0,0V2s0-.05-.07,0,0,.08.05.09,0,0-.05,0,0,0,0,.07L41.55,2l0-.07h0c0-.06,0,0,0-.09s0,0,0,0,0,.13.06.21-.08-.2-.08-.06,0,.1,0,.07,0,.09,0,.06,0-.09,0-.15,0,0,0,0,0-.08,0-.08,0,0,0,.06,0,0,0,0,0-.05,0,0,0,0,0,.08l0,0v0s0,.07,0,.06l0-.07s.05,0,0-.07,0,0,0,0h0s0-.13,0-.06,0,0,0,.07,0,0-.06,0,0,0,0-.08.05,0,.06,0,0,0,0-.06,0-.09,0-.14v0s0,0,0,.09,0,0-.06.06a.15.15,0,0,1,0-.08.06.06,0,0,1-.07,0c0,.08,0,0,0,.07a.23.23,0,0,1,0,.11s0,0,0-.05,0-.07,0,0,0-.09.07-.15,0,0,0,0a.25.25,0,0,1-.08,0c0-.06,0,0-.06,0s.06-.08.06-.1,0,.07,0,0h0s0-.05-.06,0l0-.05s0,0,0,0l0-.05s0,0,0,0l0,0s0,0,0,0l0,0h0s0,0,0,0l.1,0-.08.06s0,0,0,0,0,0,0,0l.09-.06s0,0,0,0h0s0,0,0,0,0-.05,0,0,0,0,0,0l-.09.08v0l.09-.09,0,0s.05-.06.05,0a.05.05,0,0,0,0,0l0,0c0-.08,0,0,0-.06s0,0,0,0,0-.06,0,0v.06s0,0,0,0a.31.31,0,0,1,0-.09s0,0,0,0l0,0c0-.07,0,0,0,0s0,0,0,0l-.07-.08,0,0c-.08-.05-.05,0,0,0h0l0,0h0a0,0,0,0,0,0,0h0v0h0v0h0s0,0,0,0,0,0,0,0,0,0,0,0h0l.09-.06h0s0,0,0,0h0s0,0,0,.05,0,0,0,0,.07-.06,0,0l0,0c0,.07.12.07.19.12s-.14.09-.06.08,0,0,0,0-.08.06,0,.05,0,0,.06,0-.05.05,0,.06h0c.09,0,0,0,.15,0a.86.86,0,0,1,0,.5c-.05.08,0,.18-.12.25s-.08,0-.06,0h0c.06,0,0,0,.06,0a.38.38,0,0,0,0,.1s-.05,0-.05,0l0,0h0l.06,0c0,.1-.13.14-.15.23s0,0,0,.07-.07,0-.16.11a.81.81,0,0,1-.14.12.43.43,0,0,1-.18,0,.3.3,0,0,1-.26-.22l.11,0C41,3.19,41.14,3.18,41.15,3.14Z"/><path class="cls-1" d="M41.15,1.55a.55.55,0,0,1-.08.06Z"/><path class="cls-1" d="M41.13,2V2s0,0,0,0S41.12,2,41.13,2Z"/><path class="cls-1" d="M41.21,2a.06.06,0,0,1-.05,0Z"/><path class="cls-1" d="M41.29,2.13s0,0,0,0A.06.06,0,0,1,41.29,2.13Z"/><path class="cls-1" d="M41.3,2.07s0,0,0,0S41.29,2.11,41.3,2.07Z"/><path class="cls-1" d="M41.56,2.11s0,0,0,0S41.57,2.15,41.56,2.11Z"/><path class="cls-1" d="M41.66,2s0,0,0,0a0,0,0,0,1,0,0Z"/><polygon class="cls-1" points="41.14 1.79 41.12 1.79 41.14 1.77 41.14 1.79"/><path class="cls-1" d="M41.3,2h0Z"/><polygon class="cls-1" points="41.42 2.14 41.42 2.14 41.48 2.15 41.42 2.14"/><path class="cls-1" d="M44.1.91s0,0,0,0S44.12.89,44.1.91Z"/><path class="cls-1" d="M47,10.23c-.18-.07-.08-.26-.21-.36s.08,0,0,0-.14-.29-.1-.47h0s-.08,0-.08-.08h.05c-.05,0,0,0-.08,0s.05,0,.07-.05h-.06c-.14,0,0-.11-.11-.16h0a.83.83,0,0,1-.2-.32s.06,0,.07,0a.11.11,0,0,1-.1,0c.06,0-.06,0,0-.09h0c-.07,0,0-.05-.06-.05l0,0c-.08,0,0-.05,0-.06h0s0,0,0-.05h0s0-.07-.06,0,0,0,.1,0a1.11,1.11,0,0,1-.19-.43s0,0,0,0,0-.06-.06-.06l0,0s-.08,0-.06,0h.06s0,0-.08-.07h0c-.06,0,0-.07,0-.08h0c0-.06-.08,0-.07,0h0c-.07,0-.07-.08-.1-.11h0s0-.09,0-.12.09,0,.06-.06-.05-.07-.12,0,0-.1,0-.12.08,0,.1,0l0,0s0,0,0,0,0,0,0-.06-.15,0-.17-.06.08,0,.09,0l-.15,0s0,0,0,0h0s0-.06,0-.09,0,0,0,0,0,0,0,0h0s0,0-.07,0,0,0,0,0a.07.07,0,0,1-.07-.06h0a.27.27,0,0,1-.13-.09s.06,0,.05,0-.1-.1-.05-.16h0s.05,0,0-.05,0,0,0,0,0,0,0,0a.17.17,0,0,1-.09-.17s-.07,0-.08,0h0s0,0,0-.06.08.1,0,.07-.08,0,0,0-.07,0,0-.07.06,0,0,0,0,0,0,0h0s0,0-.05,0,0,0,0-.06l.06,0h-.08c-.08,0,0,0-.07,0s0-.09,0-.12-.07,0-.06-.06h0s0,0,0,0,0-.06.06-.09-.07,0-.1,0-.08-.06,0-.11.05,0,.06,0-.07,0,0-.08l-.07,0s-.06,0,0-.06,0,0-.06,0S45,5.1,45.1,5s0,0-.05,0,0,0,0,0h0s0,0,.07,0S45,5,45,4.92s0,0,0,0l-.06,0s.06,0,.11,0,0,0-.06,0l0,0s0,0,0,0h0s0,0,0,0,0,0,0,.06l0,0s0,0,0-.06,0,0,0,0,0,0,0,0,0,0,0,0,.05,0,0,0-.09,0-.07,0h.06v0h0s0,0-.09,0,0,0,0-.06h0s0,0,0-.05h0s0,0,0,0,.16-.06.09-.07-.09,0-.11,0-.07-.08,0-.15h0c0-.07-.1-.13,0-.21s0,0,.07,0,0,0,0,0-.06,0-.06.05-.06-.1,0-.13a0,0,0,0,1,0,0c.06,0,.06,0,0-.06h0l0,0s-.08,0,0,0l0,0s-.1,0-.07-.06l0,0s0,0,0,0,0-.08.06-.11a.27.27,0,0,1-.2-.23h0s0,0,0,0,.05,0,.09,0-.06,0-.08,0,0,0,0,0,0-.06,0,0,.06,0,.08,0h0c.06,0,.13,0,.21,0l0,0s.08,0,.09,0a.21.21,0,0,0-.14,0s-.14,0-.15,0,0,0,.06,0,0,0,0-.06-.07,0-.09,0,.06,0,.06,0-.07,0-.08,0,0,0-.06,0,.13,0,.15,0-.08,0-.15,0,.05,0,.08,0-.11,0,0-.06h0l0,0s-.09,0,0-.06,0,0-.07,0,0,0,0,0,0,0,0,0h0s0,0,0,0,0,0,0,0h-.05s.08,0,.06-.06h0s0,0,0,0l-.13,0s0,0,0,0h0a.09.09,0,0,0,.06-.07s-.09,0-.11,0a0,0,0,0,1,0,0s0,0-.07,0l.08-.1h.08v0c.07,0,0,0,.1,0s0,0,0,0-.14,0-.22,0,.19-.1,0-.11-.09,0,0,0-.09,0-.07,0,.08-.06.14,0,0,0,0,0,.09,0,.08-.06,0,0-.07,0,0,0,0,0,0-.06,0-.05,0,0-.07.05l0,0h0s-.07,0-.07,0l.06,0s0,.07.08,0-.06,0,0-.06h0s.12-.05,0-.07,0,0-.07,0S44,2,43.94,2s0-.05.07,0,0,.09.06.09,0,0,.08,0,.07-.06.11-.08,0,0,0,0,0,0-.09,0,0-.07-.09-.08.07,0,.08,0a.23.23,0,0,1,0-.14c-.07.05,0-.05-.09,0a.13.13,0,0,1-.1.07s0,0,.05,0,.06-.05,0-.05.1,0,.16,0,0,0,0-.05A.31.31,0,0,1,44,1.57c0-.06,0-.11-.05-.15s.1,0,.1-.06-.06,0,0,0h0s0-.08-.08-.06H44s0,0,0,0a.07.07,0,0,1,.06,0s0-.05,0-.08l0,0s0-.07,0-.11h0l0,0S44,1,44,1l.12,0s0,0-.09,0,0,.06,0,.05,0,0,0,0,.06,0,.11,0,0,0,0,0a.06.06,0,0,1,0,0s0,0,0,0,.07,0,.07,0,.06.05,0,.09a.24.24,0,0,1-.13,0s0,0,0,.06a.33.33,0,0,1,.14,0h0s.08,0,.08,0a.84.84,0,0,0,0,.18h0c.09,0,.06.08.11.1s.07.12,0,.17a.74.74,0,0,1,.14.28h-.07c.05,0,0,0,0,0s.07,0,.1,0,0,.11.09.14h0c.08,0,0,.09,0,.15s-.05,0,0,0a.22.22,0,0,1,.12,0,.28.28,0,0,1,0,.13c.12.09.1.22.19.33l0,0c.13.09.09.26.17.34l-.08,0s0,.06.1,0,.06.06,0,.1,0,0,.07.05a.15.15,0,0,0,0,.15h0l-.06,0s0,.09.09,0,.09.14,0,.22,0,0,0,0,0,.13,0,.16,0,0,0,0,0,0,.06,0,0,.2,0,.28a1.43,1.43,0,0,1,.17.43h0c.09,0,0,.13.09.13s0,0,0,0,0,.12.07.16,0,0,0,0,0,.1,0,.17h0s.1,0,0,.07,0,0,0,0a1,1,0,0,0,.16.38c0,.11-.15,0-.06.11s0,0,0,0-.09.08,0,.08,0,0,.07,0-.07.09,0,.13h0c.1,0,.07.11.18.12.11.29.25.56.35.85a7.94,7.94,0,0,1,.24.87c0,.09,0,.09,0,.16h0c.06,0,0,.06.08,0a3,3,0,0,0,.11.32s-.07,0-.06,0h0s0,0,.07,0a6,6,0,0,1,.2.84.37.37,0,0,0,.08.22.93.93,0,0,0,.1.64S47,10.3,47,10.23Z"/><path class="cls-1" d="M44.12,1s0,0-.08,0S44.09,1,44.12,1Z"/><path class="cls-1" d="M44,1.7h0s0,0,0,0S44,1.7,44,1.7Z"/><path class="cls-1" d="M44,1.87A.12.12,0,0,1,44,1.82Z"/><path class="cls-1" d="M44,2.06s0,0,0,0S44,2.06,44,2.06Z"/><path class="cls-1" d="M44,2.05s0,0,0,0S44,2.06,44,2.05Z"/><path class="cls-1" d="M44.06,2.41s0,0,0,0S44,2.42,44.06,2.41Z"/><path class="cls-1" d="M44.15,2.55s0,0,0,0,0,0,0,0Z"/><polygon class="cls-1" points="45.14 5.35 45.12 5.34 45.15 5.33 45.14 5.35"/><path class="cls-1" d="M45.53,6.59s0,0,0,0S45.54,6.61,45.53,6.59Z"/><polygon class="cls-1" points="45.87 7.22 45.87 7.21 45.93 7.2 45.87 7.22"/><path class="cls-1" d="M42.46,1.74s0,0,0,0S42.45,1.72,42.46,1.74Z"/><path class="cls-1" d="M46.08.73c0,.16-.1,0-.12.14s0-.09,0-.06-.11.08-.19,0v0s0,.07,0,.06,0,0,0,0,0,0,0,.06l0-.07v0c0,.13,0,0-.05.08a.08.08,0,0,0,0,0c0,.09-.07.09-.1.13s0-.05,0-.07,0,.07,0,.08,0,.06,0,0h0c0,.06,0,0,0,.05l0-.05c0,.08,0,0,0,0v0s0,0,0,0h0s0,0,0,.05,0,0,0-.1a.22.22,0,0,1-.16.11s0,0,0-.06,0,0,0,.05l0,0s0,.07,0,0a.13.13,0,0,0,0-.06c0,.05,0,.05,0,.06v0c0,.06,0,0,0,0v0s0,.08,0,.06v0c0,.07,0,0,0,.08v0s0,0-.05,0,0-.08,0-.07,0,0,0,.12-.05,0-.05,0,0-.09,0-.1l0,0s0,0,0,0,0,0,0,0a.41.41,0,0,1,0,.15.46.46,0,0,0,0-.09v.14s0-.06,0,0a.11.11,0,0,1,0,.05s0,0,0,0,0,0,0,0,0,0,0,0h0s0,0,0,.07,0,0,0,0,0,.06,0,.06a.43.43,0,0,1,0-.05.27.27,0,0,1,0,.11s0-.06,0-.05,0,.08-.06,0,0,0,0,0,0-.05,0,0,0,0,0,0,0,0,0,0,0,.08-.06.05v0s0,0,0,0,0-.05,0,0,0,.08,0,0,0,.05,0,0,0-.07,0-.06,0,0,0,0v0s0,0,0,0,0,0,0,0V1.42s0,.06,0,.09a0,0,0,0,1,0,0c0,.09,0,0,0,.07s0,0,0,0,0,.06,0,0v0s0,0,0,0a.2.2,0,0,0,0-.08.43.43,0,0,0,0,.11c0-.09,0,.06,0,0s0,0,0-.06,0,.07,0,0l0,.07s0,0,0,0,0,0,0,0-.05.06-.1-.06,0,0,0,0,0,0,0,0v0s0,0,0-.07,0,.12,0,.1,0,0,0,0v0s0-.06,0-.11,0,0,0,0l0-.05s0,0,0,0h0s0,0,0,0a.11.11,0,0,0,0,.05v0s0,0,0,0,0,0,0,0,0,0,0,0,0,0,0,0,0-.06,0,0,0,.09,0,.06a.06.06,0,0,0,0,0v0a0,0,0,0,1,0,0s0,0,0,.07l0,0h0s0,0,0,0h0s0,0,0,0,0-.16,0-.11,0,.09,0,.11,0,.05-.06,0,0,0,0,0,0,.07-.09,0a.25.25,0,0,0,0-.07s0,0,0,0,0,.06,0,.07,0,0-.06,0a.08.08,0,0,1,0,0c0-.06,0-.06,0,0v0l0,0s0,.08,0,.05,0,0,0,0,0,.09,0,.06l0-.05s0,0,0,.05,0,0-.06-.07c0,.12,0,.14-.07.14v0s0,.05,0,0a.92.92,0,0,0,0-.09s0,.06,0,.07,0,0,0,0,0,0,0,0l0-.08v0c0-.06,0-.12,0-.2h0c0-.06,0-.07,0-.09a.7.7,0,0,0,0,.14s0,.13,0,.13,0,0,0,0,0,0,0,0a.37.37,0,0,1,0,.09s0-.05,0-.05,0,.06,0,.08,0,0,0,0,0-.13,0-.15,0,.08,0,.15a.46.46,0,0,1,0-.09s0,.1,0,0V2s0,0,0-.05,0,.08,0,0,0,0,0,.06,0,0,0,0,0,0,0,0V2s0,0,0,0,0,0,0,0V2s0-.07,0-.06v0s0,0,0,0a.6.6,0,0,1,0,.12s0,0,0,0V2s0-.07,0-.06a.44.44,0,0,0,0,.1.13.13,0,0,1,0-.06s0,0,0,.08a.47.47,0,0,0,0-.1V1.88h0c0-.06,0,0,0-.1s0,0,0,0A.91.91,0,0,1,43.1,2S43,1.83,43.05,2s0,.09,0,.06,0,.08,0,.05S43,2,43,2s0,0,0,0,0-.09,0-.09a.11.11,0,0,0,0,.06c0,.05,0,0,0,0s0-.05,0,0l0,.07v0s0,.06,0,.06l0-.06c0-.06,0,0,0-.07s0,0,0,0V2s0-.12,0,0S43,2,43,2s0,0,0,.06,0,0,0-.07,0,0,0,0,0,0,0-.07,0-.07-.06-.12v0a.94.94,0,0,1,0,.09s0,0,0,.07a.31.31,0,0,1,0-.08s0,0-.06,0,0,0,0,.09a.51.51,0,0,1,0,.1s0,0,0,0,0-.06,0,0a.41.41,0,0,0,0-.16s0,0,0,0a.2.2,0,0,1,0,.09c0-.06,0,0-.06,0a1,1,0,0,0,0-.1s0,.07,0,0h0s0,0,0,.06l0-.08s0,0,0,0a.14.14,0,0,1,0-.06c0-.05,0,0,0,0l0,0s0,0,0,0v0s0-.07,0,0V1.74s0,.06,0,.1,0,0,0,0,0,0,0,0a.58.58,0,0,1,0-.1s0,0,0,0,0,0,0-.05,0,0,0,.06,0-.07,0-.06,0-.05,0,0a.72.72,0,0,1,0,.13s0,0,0,0a.69.69,0,0,1,0-.13v0s0-.08,0-.08a.09.09,0,0,0,.07,0v0c0-.09,0,0,0-.08s0-.06.07,0,.06-.08.1-.08V1.6c0-.05,0,0,0,0s0-.06,0-.1,0,0,0-.06l0,0c0-.08,0,0,0,0s0,.05,0,0a.4.4,0,0,1,0-.11.09.09,0,0,1,.06,0c0-.1.08-.06.11-.12l0,0c0-.11.1,0,.12-.1l0,.08s0,0,0-.08,0-.05.05,0,0,0,0-.05,0,0,.06,0h0l0,.05s0,0,0-.08,0-.06.09,0a.11.11,0,0,1,0-.05s.06,0,.06,0,0,0,0,0a.43.43,0,0,1,0-.05s.09,0,.12,0,.11-.06.16-.08v0c0-.08.06.06,0-.05s0,0,0,0,.06,0,.06,0h0s0,0,.07,0,0,0,0,0,0-.08,0,0V1c.06,0,.09-.05.14-.08s0,.15,0,.07,0,0,0,0,.05.09,0,0,0,0,0-.06,0,.07.06,0v0c0-.09,0-.05,0-.15a2.48,2.48,0,0,1,.31-.18c.12,0,.22-.09.34-.07s0,.06.07,0,0,0,0,0,0,0,0-.07.08,0,.13,0,0,.06,0,.05v0s0-.05,0-.07.24,0,.34,0,.06,0,.08,0,.2.11.26,0A.59.59,0,0,1,46.08.73Z"/><path class="cls-1" d="M42.47,1.73a.2.2,0,0,1,0,.08Z"/><path class="cls-1" d="M42.82,2s0,0,0,0,0,0,0,0Z"/><path class="cls-1" d="M42.89,2a.06.06,0,0,1,0,.06Z"/><path class="cls-1" d="M43,2.08s0,0,0,0A0,0,0,0,1,43,2.08Z"/><path class="cls-1" d="M43,2l0,0S43,2.06,43,2Z"/><path class="cls-1" d="M43.12,2.06s0,0,0,0S43.13,2.1,43.12,2.06Z"/><path class="cls-1" d="M43.17,2h0a.1.1,0,0,1,0,0Z"/><polygon class="cls-1" points="44.23 1.57 44.23 1.58 44.23 1.55 44.23 1.57"/><path class="cls-1" d="M44.72,1.43s0,0,0,0S44.72,1.42,44.72,1.43Z"/><polygon class="cls-1" points="44.94 1.21 44.93 1.21 44.92 1.16 44.94 1.21"/></svg>